<svg width="1920" height="314" viewBox="0 0 1920 314" fill="none" xmlns="http://www.w3.org/2000/svg">
<path d="M274.542 269.83C267.629 271.36 262.636 269.86 256.72 268.37L274.542 264.82V260.22L243.7 265.97L231.051 263.76L274.542 255.61V251.01L219.925 261.28H217.687L206.561 259.36L250.459 251H224.935L194.393 256.66L182.061 254.76L201.867 251H175.565L169.884 252.06C168.833 252.13 165.481 251.53 162.817 251H154.037L274.551 276.52V269.83H274.542Z" fill="black" fill-opacity="0.1"/>
<path d="M0 255.61C7.4296 257.68 22.8777 259.78 23.367 260.07L0 260.21L0.018121 264.78C0.670476 265.17 30.6154 261.04 30.6154 261.04C30.6154 261.04 37.6101 262.47 41.9229 263C38.643 264.23 1.43156 269.37 0.0271815 270.06C0.0271815 271.25 0.0724839 274.71 0.0724839 276.51L47.178 265.82L62.8255 268.96L0.0453025 281.08V285.69L71.5235 270.93C78.6904 271.58 80.3303 272.4 84.6522 273.12L0.0453025 290.28V295.3L93.4771 275.43C95.7875 275.7 104.205 277.48 109.904 278.28L0.0634234 299.89L0.0453025 304.49L120.206 280.72C126.675 282.29 129.474 282.71 133.135 283.3L0.018121 309.07C0.018121 309.91 0.036242 311.33 0.0453025 313.6L138.834 287.08L274.614 313.68V308.26L0 251.01V255.61Z" fill="black" fill-opacity="0.1"/>
<path d="M274.588 290.28L87.5793 251H65.209L274.588 295.3V290.28Z" fill="black" fill-opacity="0.1"/>
<path d="M274.588 299.89H274.606L43.473 251H21.7188L274.588 304.49V299.89Z" fill="black" fill-opacity="0.1"/>
<path d="M274.587 281.08L132.419 251H110.701L274.587 285.69V281.08Z" fill="black" fill-opacity="0.1"/>
<path d="M549.157 269.83C542.244 271.36 537.251 269.86 531.335 268.37L549.157 264.82V260.22L518.315 265.97L505.667 263.76L549.157 255.61V251.01L494.54 261.28H492.302L481.176 259.36L525.074 251H499.551L469.008 256.66L456.676 254.76L476.483 251H450.18L444.499 252.06C443.448 252.13 440.096 251.53 437.432 251H428.652L549.166 276.52V269.83H549.157Z" fill="black" fill-opacity="0.1"/>
<path d="M274.615 255.61C282.045 257.68 297.493 259.78 297.982 260.07L274.615 260.21L274.633 264.78C275.286 265.17 305.231 261.04 305.231 261.04C305.231 261.04 312.225 262.47 316.538 263C313.258 264.23 276.047 269.37 274.642 270.06C274.642 271.25 274.688 274.71 274.688 276.51L321.793 265.82L337.441 268.96L274.661 281.08V285.69L346.139 270.93C353.306 271.58 354.946 272.4 359.267 273.12L274.661 290.28V295.3L368.092 275.43C370.403 275.7 378.82 277.48 384.519 278.28L274.679 299.89L274.661 304.49L394.821 280.72C401.29 282.29 404.09 282.71 407.75 283.3L274.633 309.07C274.633 309.91 274.651 311.33 274.661 313.6L413.449 287.08L549.23 313.68V308.26L274.615 251.01V255.61Z" fill="black" fill-opacity="0.1"/>
<path d="M549.203 290.28L362.195 251H339.824L549.203 295.3V290.28Z" fill="black" fill-opacity="0.1"/>
<path d="M549.203 299.89H549.221L318.088 251H296.334L549.203 304.49V299.89Z" fill="black" fill-opacity="0.1"/>
<path d="M549.203 281.08L407.034 251H385.316L549.203 285.69V281.08Z" fill="black" fill-opacity="0.1"/>
<path d="M823.77 269.83C816.857 271.36 811.865 269.86 805.948 268.37L823.77 264.82V260.22L792.928 265.97L780.28 263.76L823.77 255.61V251.01L769.154 261.28H766.916L755.789 259.36L799.687 251H774.164L743.621 256.66L731.29 254.76L751.096 251H724.793L719.112 252.06C718.061 252.13 714.709 251.53 712.045 251H703.266L823.779 276.52V269.83H823.77Z" fill="black" fill-opacity="0.1"/>
<path d="M549.229 255.61C556.658 257.68 572.106 259.78 572.596 260.07L549.229 260.21L549.247 264.78C549.899 265.17 579.844 261.04 579.844 261.04C579.844 261.04 586.839 262.47 591.151 263C587.872 264.23 550.66 269.37 549.256 270.06C549.256 271.25 549.301 274.71 549.301 276.51L596.407 265.82L612.054 268.96L549.274 281.08V285.69L620.752 270.93C627.919 271.58 629.559 272.4 633.881 273.12L549.274 290.28V295.3L642.706 275.43C645.016 275.7 653.433 277.48 659.132 278.28L549.292 299.89L549.274 304.49L669.434 280.72C675.903 282.29 678.703 282.71 682.363 283.3L549.247 309.07C549.247 309.91 549.265 311.33 549.274 313.6L688.062 287.08L823.843 313.68V308.26L549.229 251.01V255.61Z" fill="black" fill-opacity="0.1"/>
<path d="M823.816 290.28L636.808 251H614.438L823.816 295.3V290.28Z" fill="black" fill-opacity="0.1"/>
<path d="M823.817 299.89H823.835L592.702 251H570.947L823.817 304.49V299.89Z" fill="black" fill-opacity="0.1"/>
<path d="M823.816 281.08L681.648 251H659.93L823.816 285.69V281.08Z" fill="black" fill-opacity="0.1"/>
<path d="M1098.39 269.83C1091.47 271.36 1086.48 269.86 1080.56 268.37L1098.39 264.82V260.22L1067.54 265.97L1054.9 263.76L1098.39 255.61V251.01L1043.77 261.28H1041.53L1030.4 259.36L1074.3 251H1048.78L1018.24 256.66L1005.9 254.76L1025.71 251H999.409L993.728 252.06C992.677 252.13 989.324 251.53 986.66 251H977.881L1098.39 276.52V269.83H1098.39Z" fill="black" fill-opacity="0.1"/>
<path d="M823.844 255.61C831.273 257.68 846.721 259.78 847.211 260.07L823.844 260.21L823.862 264.78C824.514 265.17 854.459 261.04 854.459 261.04C854.459 261.04 861.454 262.47 865.767 263C862.487 264.23 825.275 269.37 823.871 270.06C823.871 271.25 823.916 274.71 823.916 276.51L871.022 265.82L886.669 268.96L823.889 281.08V285.69L895.367 270.93C902.534 271.58 904.174 272.4 908.496 273.12L823.889 290.28V295.3L917.321 275.43C919.631 275.7 928.048 277.48 933.748 278.28L823.907 299.89L823.889 304.49L944.049 280.72C950.518 282.29 953.318 282.71 956.979 283.3L823.862 309.07C823.862 309.91 823.88 311.33 823.889 313.6L962.678 287.08L1098.46 313.68V308.26L823.844 251.01V255.61Z" fill="black" fill-opacity="0.1"/>
<path d="M1098.43 290.28L911.423 251H889.053L1098.43 295.3V290.28Z" fill="black" fill-opacity="0.1"/>
<path d="M1098.43 299.89H1098.45L867.317 251H845.562L1098.43 304.49V299.89Z" fill="black" fill-opacity="0.1"/>
<path d="M1098.43 281.08L956.263 251H934.545L1098.43 285.69V281.08Z" fill="black" fill-opacity="0.1"/>
<path d="M1373 269.83C1366.09 271.36 1361.09 269.86 1355.18 268.37L1373 264.82V260.22L1342.16 265.97L1329.51 263.76L1373 255.61V251.01L1318.38 261.28H1316.14L1305.02 259.36L1348.92 251H1323.39L1292.85 256.66L1280.52 254.76L1300.32 251H1274.02L1268.34 252.06C1267.29 252.13 1263.94 251.53 1261.27 251H1252.49L1373.01 276.52V269.83H1373Z" fill="black" fill-opacity="0.1"/>
<path d="M1098.46 255.61C1105.89 257.68 1121.33 259.78 1121.82 260.07L1098.46 260.21L1098.48 264.78C1099.13 265.17 1129.07 261.04 1129.07 261.04C1129.07 261.04 1136.07 262.47 1140.38 263C1137.1 264.23 1099.89 269.37 1098.48 270.06C1098.48 271.25 1098.53 274.71 1098.53 276.51L1145.64 265.82L1161.28 268.96L1098.5 281.08V285.69L1169.98 270.93C1177.15 271.58 1178.79 272.4 1183.11 273.12L1098.5 290.28V295.3L1191.93 275.43C1194.24 275.7 1202.66 277.48 1208.36 278.28L1098.52 299.89L1098.5 304.49L1218.66 280.72C1225.13 282.29 1227.93 282.71 1231.59 283.3L1098.48 309.07C1098.48 309.91 1098.49 311.33 1098.5 313.6L1237.29 287.08L1373.07 313.68V308.26L1098.46 251.01V255.61Z" fill="black" fill-opacity="0.1"/>
<path d="M1373.04 290.28L1186.04 251H1163.67L1373.04 295.3V290.28Z" fill="black" fill-opacity="0.1"/>
<path d="M1373.05 299.89H1373.06L1141.93 251H1120.18L1373.05 304.49V299.89Z" fill="black" fill-opacity="0.1"/>
<path d="M1373.04 281.08L1230.88 251H1209.16L1373.04 285.69V281.08Z" fill="black" fill-opacity="0.1"/>
<path d="M1647.61 269.83C1640.7 271.36 1635.71 269.86 1629.79 268.37L1647.61 264.82V260.22L1616.77 265.97L1604.12 263.76L1647.61 255.61V251.01L1593 261.28H1590.76L1579.63 259.36L1623.53 251H1598.01L1567.46 256.66L1555.13 254.76L1574.94 251H1548.64L1542.96 252.06C1541.91 252.13 1538.55 251.53 1535.89 251H1527.11L1647.62 276.52V269.83H1647.61Z" fill="black" fill-opacity="0.1"/>
<path d="M1373.07 255.61C1380.5 257.68 1395.95 259.78 1396.44 260.07L1373.07 260.21L1373.09 264.78C1373.74 265.17 1403.69 261.04 1403.69 261.04C1403.69 261.04 1410.68 262.47 1415 263C1411.72 264.23 1374.5 269.37 1373.1 270.06C1373.1 271.25 1373.14 274.71 1373.14 276.51L1420.25 265.82L1435.9 268.96L1373.12 281.08V285.69L1444.6 270.93C1451.76 271.58 1453.4 272.4 1457.72 273.12L1373.12 290.28V295.3L1466.55 275.43C1468.86 275.7 1477.28 277.48 1482.98 278.28L1373.14 299.89L1373.12 304.49L1493.28 280.72C1499.75 282.29 1502.55 282.71 1506.21 283.3L1373.09 309.07C1373.09 309.91 1373.11 311.33 1373.12 313.6L1511.91 287.08L1647.69 313.68V308.26L1373.07 251.01V255.61Z" fill="black" fill-opacity="0.1"/>
<path d="M1647.66 290.28L1460.65 251H1438.28L1647.66 295.3V290.28Z" fill="black" fill-opacity="0.1"/>
<path d="M1647.66 299.89H1647.68L1416.55 251H1394.79L1647.66 304.49V299.89Z" fill="black" fill-opacity="0.1"/>
<path d="M1647.66 281.08L1505.49 251H1483.77L1647.66 285.69V281.08Z" fill="black" fill-opacity="0.1"/>
<path d="M1922.23 269.83C1915.32 271.36 1910.32 269.86 1904.41 268.37L1922.23 264.82V260.22L1891.39 265.97L1878.74 263.76L1922.23 255.61V251.01L1867.61 261.28H1865.37L1854.25 259.36L1898.15 251H1872.62L1842.08 256.66L1829.75 254.76L1849.55 251H1823.25L1817.57 252.06C1816.52 252.13 1813.17 251.53 1810.5 251H1801.72L1922.24 276.52V269.83H1922.23Z" fill="black" fill-opacity="0.1"/>
<path d="M1647.69 255.61C1655.12 257.68 1670.57 259.78 1671.05 260.07L1647.69 260.21L1647.71 264.78C1648.36 265.17 1678.3 261.04 1678.3 261.04C1678.3 261.04 1685.3 262.47 1689.61 263C1686.33 264.23 1649.12 269.37 1647.71 270.06C1647.71 271.25 1647.76 274.71 1647.76 276.51L1694.87 265.82L1710.51 268.96L1647.73 281.08V285.69L1719.21 270.93C1726.38 271.58 1728.02 272.4 1732.34 273.12L1647.73 290.28V295.3L1741.16 275.43C1743.48 275.7 1751.89 277.48 1757.59 278.28L1647.75 299.89L1647.73 304.49L1767.89 280.72C1774.36 282.29 1777.16 282.71 1780.82 283.3L1647.71 309.07C1647.71 309.91 1647.72 311.33 1647.73 313.6L1786.52 287.08L1922.3 313.68V308.26L1647.69 251.01V255.61Z" fill="black" fill-opacity="0.1"/>
<path d="M1922.28 290.28L1735.27 251H1712.9L1922.28 295.3V290.28Z" fill="black" fill-opacity="0.1"/>
<path d="M1922.28 299.89H1922.29L1691.16 251H1669.41L1922.28 304.49V299.89Z" fill="black" fill-opacity="0.1"/>
<path d="M1922.27 281.08L1780.11 251H1758.39L1922.27 285.69V281.08Z" fill="black" fill-opacity="0.1"/>
<g clip-path="url(#clip0_5904_36464)">

<path d="M276.541 237.61V233.01L177.537 251.39H203.84L276.541 237.61Z" fill="black" fill-opacity="0.1"/>
<path d="M161.719 250.76C160.513 250.5 158.991 250.8 159.499 249.93L276.542 227.99V223.39L148.372 247.45H143.897L134.99 245.33L276.569 218.79V214.21L121.961 241.46L2.02734 214.21V218.79L156.01 251.4H164.79C163.476 251.14 162.326 250.9 161.719 250.77V250.76Z" fill="black" fill-opacity="0.1"/>
<path d="M276.542 246.8V242.21L226.908 251.39H252.432L276.542 246.8Z" fill="black" fill-opacity="0.1"/>
<path d="M2 233.01C2.01812 235.43 2 235.47 2 237.61L67.1812 251.4H89.5606L2 233.01Z" fill="black" fill-opacity="0.1"/>
<path d="M276.569 181.6V177L122.097 205.84L2.02734 177V181.6L121.064 210.69L276.569 181.6Z" fill="black" fill-opacity="0.1"/>
<path d="M121.064 229.21L276.569 200.41V195.81L122.006 224.55L2.02734 195.81C2.02734 197.5 2.02734 198.44 2.02734 200.41L121.064 229.21Z" fill="black" fill-opacity="0.1"/>
<path d="M2.02734 242.21C2.02734 244.08 2.02734 244.13 2.02734 246.81L23.7 251.39H45.4543L2.02734 242.21Z" fill="black" fill-opacity="0.1"/>
<path d="M2.02734 223.39C2.02734 224.19 2.02734 226.75 2.02734 227.97L112.683 251.39H134.401L2.02734 223.39Z" fill="black" fill-opacity="0.1"/>
<path d="M2.02734 186.2V190.8L121.064 219.88L276.569 190.79V186.2L121.064 215.29L2.02734 186.2Z" fill="black" fill-opacity="0.1"/>
<path d="M2.04496 205C2.01778 207.15 2.02684 207.72 2.02684 209.6L121.064 238.4L276.569 209.6V205L121.091 233.8L2.04496 205Z" fill="black" fill-opacity="0.1"/>
<path d="M551.129 237.61V233.01L452.125 251.39H478.428L551.129 237.61Z" fill="black" fill-opacity="0.1"/>
<path d="M436.306 250.76C435.101 250.5 433.579 250.8 434.087 249.93L551.13 227.99V223.39L422.96 247.45H418.484L409.578 245.33L551.157 218.79V214.21L396.549 241.46L276.615 214.21V218.79L430.598 251.4H439.378C438.064 251.14 436.913 250.9 436.306 250.77V250.76Z" fill="black" fill-opacity="0.1"/>
<path d="M551.129 246.8V242.21L501.496 251.39H527.02L551.129 246.8Z" fill="black" fill-opacity="0.1"/>
<path d="M276.588 233.01C276.606 235.43 276.588 235.47 276.588 237.61L341.769 251.4H364.148L276.588 233.01Z" fill="black" fill-opacity="0.1"/>
<path d="M551.157 181.6V177L396.685 205.84L276.615 177V181.6L395.652 210.69L551.157 181.6Z" fill="black" fill-opacity="0.1"/>
<path d="M395.652 229.21L551.157 200.41V195.81L396.594 224.55L276.615 195.81C276.615 197.5 276.615 198.44 276.615 200.41L395.652 229.21Z" fill="black" fill-opacity="0.1"/>
<path d="M276.615 242.21C276.615 244.08 276.615 244.13 276.615 246.81L298.288 251.39H320.042L276.615 242.21Z" fill="black" fill-opacity="0.1"/>
<path d="M276.615 223.39C276.615 224.19 276.615 226.75 276.615 227.97L387.271 251.39H408.989L276.615 223.39Z" fill="black" fill-opacity="0.1"/>
<path d="M276.615 186.2V190.8L395.652 219.88L551.157 190.79V186.2L395.652 215.29L276.615 186.2Z" fill="black" fill-opacity="0.1"/>
<path d="M276.633 205C276.606 207.15 276.615 207.72 276.615 209.6L395.651 238.4L551.157 209.6V205L395.679 233.8L276.633 205Z" fill="black" fill-opacity="0.1"/>
<path d="M825.715 237.61V233.01L726.711 251.39H753.014L825.715 237.61Z" fill="black" fill-opacity="0.1"/>
<path d="M710.892 250.76C709.687 250.5 708.165 250.8 708.673 249.93L825.716 227.99V223.39L697.546 247.45H693.07L684.164 245.33L825.743 218.79V214.21L671.135 241.46L551.201 214.21V218.79L705.184 251.4H713.964C712.65 251.14 711.499 250.9 710.892 250.77V250.76Z" fill="black" fill-opacity="0.1"/>
<path d="M825.715 246.8V242.21L776.082 251.39H801.605L825.715 246.8Z" fill="black" fill-opacity="0.1"/>
<path d="M551.174 233.01C551.192 235.43 551.174 235.47 551.174 237.61L616.355 251.4H638.734L551.174 233.01Z" fill="black" fill-opacity="0.1"/>
<path d="M825.743 181.6V177L671.271 205.84L551.201 177V181.6L670.238 210.69L825.743 181.6Z" fill="black" fill-opacity="0.1"/>
<path d="M670.238 229.21L825.743 200.41V195.81L671.18 224.55L551.201 195.81C551.201 197.5 551.201 198.44 551.201 200.41L670.238 229.21Z" fill="black" fill-opacity="0.1"/>
<path d="M551.201 242.21C551.201 244.08 551.201 244.13 551.201 246.81L572.874 251.39H594.628L551.201 242.21Z" fill="black" fill-opacity="0.1"/>
<path d="M551.201 223.39C551.201 224.19 551.201 226.75 551.201 227.97L661.857 251.39H683.575L551.201 223.39Z" fill="black" fill-opacity="0.1"/>
<path d="M551.201 186.2V190.8L670.238 219.88L825.743 190.79V186.2L670.238 215.29L551.201 186.2Z" fill="black" fill-opacity="0.1"/>
<path d="M551.219 205C551.192 207.15 551.201 207.72 551.201 209.6L670.237 238.4L825.743 209.6V205L670.265 233.8L551.219 205Z" fill="black" fill-opacity="0.1"/>
<path d="M1100.3 237.61V233.01L1001.3 251.39H1027.6L1100.3 237.61Z" fill="black" fill-opacity="0.1"/>
<path d="M985.48 250.76C984.275 250.5 982.753 250.8 983.26 249.93L1100.3 227.99V223.39L972.134 247.45H967.658L958.752 245.33L1100.33 218.79V214.21L945.723 241.46L825.789 214.21V218.79L979.772 251.4H988.552C987.238 251.14 986.087 250.9 985.48 250.77V250.76Z" fill="black" fill-opacity="0.1"/>
<path d="M1100.3 246.8V242.21L1050.67 251.39H1076.19L1100.3 246.8Z" fill="black" fill-opacity="0.1"/>
<path d="M825.762 233.01C825.78 235.43 825.762 235.47 825.762 237.61L890.943 251.4H913.322L825.762 233.01Z" fill="black" fill-opacity="0.1"/>
<path d="M1100.33 181.6V177L945.859 205.84L825.789 177V181.6L944.826 210.69L1100.33 181.6Z" fill="black" fill-opacity="0.1"/>
<path d="M944.826 229.21L1100.33 200.41V195.81L945.768 224.55L825.789 195.81C825.789 197.5 825.789 198.44 825.789 200.41L944.826 229.21Z" fill="black" fill-opacity="0.1"/>
<path d="M825.789 242.21C825.789 244.08 825.789 244.13 825.789 246.81L847.462 251.39H869.216L825.789 242.21Z" fill="black" fill-opacity="0.1"/>
<path d="M825.789 223.39C825.789 224.19 825.789 226.75 825.789 227.97L936.445 251.39H958.163L825.789 223.39Z" fill="black" fill-opacity="0.1"/>
<path d="M825.789 186.2V190.8L944.826 219.88L1100.33 190.79V186.2L944.826 215.29L825.789 186.2Z" fill="black" fill-opacity="0.1"/>
<path d="M825.807 205C825.779 207.15 825.789 207.72 825.789 209.6L944.825 238.4L1100.33 209.6V205L944.852 233.8L825.807 205Z" fill="black" fill-opacity="0.1"/>
<path d="M1374.89 237.61V233.01L1275.89 251.39H1302.19L1374.89 237.61Z" fill="black" fill-opacity="0.1"/>
<path d="M1260.07 250.76C1258.86 250.5 1257.34 250.8 1257.85 249.93L1374.89 227.99V223.39L1246.72 247.45H1242.25L1233.34 245.33L1374.92 218.79V214.21L1220.31 241.46L1100.38 214.21V218.79L1254.36 251.4H1263.14C1261.83 251.14 1260.68 250.9 1260.07 250.77V250.76Z" fill="black" fill-opacity="0.1"/>
<path d="M1374.89 246.8V242.21L1325.26 251.39H1350.78L1374.89 246.8Z" fill="black" fill-opacity="0.1"/>
<path d="M1100.35 233.01C1100.37 235.43 1100.35 235.47 1100.35 237.61L1165.53 251.4H1187.91L1100.35 233.01Z" fill="black" fill-opacity="0.1"/>
<path d="M1374.92 181.6V177L1220.45 205.84L1100.38 177V181.6L1219.41 210.69L1374.92 181.6Z" fill="black" fill-opacity="0.1"/>
<path d="M1219.41 229.21L1374.92 200.41V195.81L1220.36 224.55L1100.38 195.81C1100.38 197.5 1100.38 198.44 1100.38 200.41L1219.41 229.21Z" fill="black" fill-opacity="0.1"/>
<path d="M1100.38 242.21C1100.38 244.08 1100.38 244.13 1100.38 246.81L1122.05 251.39H1143.8L1100.38 242.21Z" fill="black" fill-opacity="0.1"/>
<path d="M1100.38 223.39C1100.38 224.19 1100.38 226.75 1100.38 227.97L1211.03 251.39H1232.75L1100.38 223.39Z" fill="black" fill-opacity="0.1"/>
<path d="M1100.38 186.2V190.8L1219.41 219.88L1374.92 190.79V186.2L1219.41 215.29L1100.38 186.2Z" fill="black" fill-opacity="0.1"/>
<path d="M1100.39 205C1100.37 207.15 1100.38 207.72 1100.38 209.6L1219.41 238.4L1374.92 209.6V205L1219.44 233.8L1100.39 205Z" fill="black" fill-opacity="0.1"/>
<path d="M1649.48 237.61V233.01L1550.47 251.39H1576.78L1649.48 237.61Z" fill="black" fill-opacity="0.1"/>
<path d="M1534.65 250.76C1533.45 250.5 1531.93 250.8 1532.43 249.93L1649.48 227.99V223.39L1521.31 247.45H1516.83L1507.93 245.33L1649.5 218.79V214.21L1494.9 241.46L1374.96 214.21V218.79L1528.95 251.4H1537.73C1536.41 251.14 1535.26 250.9 1534.65 250.77V250.76Z" fill="black" fill-opacity="0.1"/>
<path d="M1649.48 246.8V242.21L1599.84 251.39H1625.37L1649.48 246.8Z" fill="black" fill-opacity="0.1"/>
<path d="M1374.94 233.01C1374.95 235.43 1374.94 235.47 1374.94 237.61L1440.12 251.4H1462.5L1374.94 233.01Z" fill="black" fill-opacity="0.1"/>
<path d="M1649.5 181.6V177L1495.03 205.84L1374.96 177V181.6L1494 210.69L1649.5 181.6Z" fill="black" fill-opacity="0.1"/>
<path d="M1494 229.21L1649.5 200.41V195.81L1494.94 224.55L1374.96 195.81C1374.96 197.5 1374.96 198.44 1374.96 200.41L1494 229.21Z" fill="black" fill-opacity="0.1"/>
<path d="M1374.96 242.21C1374.96 244.08 1374.96 244.13 1374.96 246.81L1396.64 251.39H1418.39L1374.96 242.21Z" fill="black" fill-opacity="0.1"/>
<path d="M1374.96 223.39C1374.96 224.19 1374.96 226.75 1374.96 227.97L1485.62 251.39H1507.34L1374.96 223.39Z" fill="black" fill-opacity="0.1"/>
<path d="M1374.96 186.2V190.8L1494 219.88L1649.5 190.79V186.2L1494 215.29L1374.96 186.2Z" fill="black" fill-opacity="0.1"/>
<path d="M1374.98 205C1374.95 207.15 1374.96 207.72 1374.96 209.6L1494 238.4L1649.5 209.6V205L1494.03 233.8L1374.98 205Z" fill="black" fill-opacity="0.1"/>
<path d="M1924.06 237.61V233.01L1825.06 251.39H1851.36L1924.06 237.61Z" fill="black" fill-opacity="0.1"/>
<path d="M1809.24 250.76C1808.04 250.5 1806.51 250.8 1807.02 249.93L1924.07 227.99V223.39L1795.9 247.45H1791.42L1782.51 245.33L1924.09 218.79V214.21L1769.48 241.46L1649.55 214.21V218.79L1803.53 251.4H1812.31C1811 251.14 1809.85 250.9 1809.24 250.77V250.76Z" fill="black" fill-opacity="0.1"/>
<path d="M1924.07 246.8V242.21L1874.43 251.39H1899.96L1924.07 246.8Z" fill="black" fill-opacity="0.1"/>
<path d="M1649.52 233.01C1649.54 235.43 1649.52 235.47 1649.52 237.61L1714.7 251.4H1737.08L1649.52 233.01Z" fill="black" fill-opacity="0.1"/>
<path d="M1924.09 181.6V177L1769.62 205.84L1649.55 177V181.6L1768.59 210.69L1924.09 181.6Z" fill="black" fill-opacity="0.1"/>
<path d="M1768.59 229.21L1924.09 200.41V195.81L1769.53 224.55L1649.55 195.81C1649.55 197.5 1649.55 198.44 1649.55 200.41L1768.59 229.21Z" fill="black" fill-opacity="0.1"/>
<path d="M1649.55 242.21C1649.55 244.08 1649.55 244.13 1649.55 246.81L1671.22 251.39H1692.98L1649.55 242.21Z" fill="black" fill-opacity="0.1"/>
<path d="M1649.55 223.39C1649.55 224.19 1649.55 226.75 1649.55 227.97L1760.21 251.39H1781.92L1649.55 223.39Z" fill="black" fill-opacity="0.1"/>
<path d="M1649.55 186.2V190.8L1768.59 219.88L1924.09 190.79V186.2L1768.59 215.29L1649.55 186.2Z" fill="black" fill-opacity="0.1"/>
<path d="M1649.57 205C1649.54 207.15 1649.55 207.72 1649.55 209.6L1768.59 238.4L1924.09 209.6V205L1768.61 233.8L1649.57 205Z" fill="black" fill-opacity="0.1"/>
</g>
<defs>
<clipPath id="clip0_5904_36464">
<rect width="1920" height="251" fill="white" transform="translate(2)"/>
</clipPath>
</defs>
</svg>
