<svg width="1366" height="75" viewBox="0 0 1366 75" fill="none" xmlns="http://www.w3.org/2000/svg">
<path d="M272.543 61.1608V56.5608L173.539 74.9408H199.842L272.543 61.1608Z" fill="black" fill-opacity="0.05"/>
<path d="M157.719 74.3107C156.513 74.0507 154.991 74.3507 155.499 73.4807L272.542 51.5407V46.9407L144.372 71.0007H139.897L130.99 68.8807L272.569 42.3407V37.7607L117.961 65.0107L-1.97266 37.7607V42.3407L152.01 74.9507H160.79C159.476 74.6907 158.326 74.4507 157.719 74.3207V74.3107Z" fill="black" fill-opacity="0.05"/>
<path d="M272.544 70.3507V65.7607L222.91 74.9407H248.434L272.544 70.3507Z" fill="black" fill-opacity="0.05"/>
<path d="M-2 56.5608C-1.98188 58.9808 -2 59.0208 -2 61.1608L63.1812 74.9508H85.5606L-2 56.5608Z" fill="black" fill-opacity="0.05"/>
<path d="M272.569 5.15078V0.550781L118.097 29.3908L-1.97266 0.550781V5.15078L117.064 34.2408L272.569 5.15078Z" fill="black" fill-opacity="0.05"/>
<path d="M117.064 52.7608L272.569 23.9608V19.3608L118.006 48.1008L-1.97266 19.3608C-1.97266 21.0508 -1.97266 21.9908 -1.97266 23.9608L117.064 52.7608Z" fill="black" fill-opacity="0.05"/>
<path d="M-1.97266 65.7607C-1.97266 67.6307 -1.97266 67.6807 -1.97266 70.3607L19.7 74.9407H41.4543L-1.97266 65.7607Z" fill="black" fill-opacity="0.05"/>
<path d="M-1.97266 46.9407C-1.97266 47.7407 -1.97266 50.3007 -1.97266 51.5207L108.683 74.9407H130.401L-1.97266 46.9407Z" fill="black" fill-opacity="0.05"/>
<path d="M-1.97266 9.75073V14.3507L117.064 43.4307L272.569 14.3407V9.75073L117.064 38.8407L-1.97266 9.75073Z" fill="black" fill-opacity="0.05"/>
<path d="M-1.95309 28.5508C-1.98027 30.7008 -1.97121 31.2708 -1.97121 33.1508L117.066 61.9508L272.571 33.1508V28.5508L117.093 57.3508L-1.95309 28.5508Z" fill="black" fill-opacity="0.05"/>
<path d="M547.129 61.1608V56.5608L448.125 74.9408H474.428L547.129 61.1608Z" fill="black" fill-opacity="0.05"/>
<path d="M432.304 74.3107C431.099 74.0507 429.577 74.3507 430.085 73.4807L547.128 51.5407V46.9407L418.958 71.0007H414.482L405.576 68.8807L547.155 42.3407V37.7607L392.547 65.0107L272.613 37.7607V42.3407L426.596 74.9507H435.376C434.062 74.6907 432.912 74.4507 432.304 74.3207V74.3107Z" fill="black" fill-opacity="0.05"/>
<path d="M547.129 70.3507V65.7607L497.496 74.9407H523.02L547.129 70.3507Z" fill="black" fill-opacity="0.05"/>
<path d="M272.586 56.5608C272.604 58.9808 272.586 59.0208 272.586 61.1608L337.767 74.9508H360.147L272.586 56.5608Z" fill="black" fill-opacity="0.05"/>
<path d="M547.155 5.15078V0.550781L392.683 29.3908L272.613 0.550781V5.15078L391.65 34.2408L547.155 5.15078Z" fill="black" fill-opacity="0.05"/>
<path d="M391.65 52.7608L547.155 23.9608V19.3608L392.592 48.1008L272.613 19.3608C272.613 21.0508 272.613 21.9908 272.613 23.9608L391.65 52.7608Z" fill="black" fill-opacity="0.05"/>
<path d="M272.613 65.7607C272.613 67.6307 272.613 67.6807 272.613 70.3607L294.286 74.9407H316.04L272.613 65.7607Z" fill="black" fill-opacity="0.05"/>
<path d="M272.613 46.9407C272.613 47.7407 272.613 50.3007 272.613 51.5207L383.269 74.9407H404.987L272.613 46.9407Z" fill="black" fill-opacity="0.05"/>
<path d="M272.613 9.75073V14.3507L391.65 43.4307L547.155 14.3407V9.75073L391.65 38.8407L272.613 9.75073Z" fill="black" fill-opacity="0.05"/>
<path d="M272.633 28.5508C272.606 30.7008 272.615 31.2708 272.615 33.1508L391.651 61.9508L547.157 33.1508V28.5508L391.679 57.3508L272.633 28.5508Z" fill="black" fill-opacity="0.05"/>
<path d="M821.719 61.1608V56.5608L722.715 74.9408H749.017L821.719 61.1608Z" fill="black" fill-opacity="0.05"/>
<path d="M706.894 74.3107C705.689 74.0507 704.167 74.3507 704.674 73.4807L821.718 51.5407V46.9407L693.548 71.0007H689.072L680.166 68.8807L821.745 42.3407V37.7607L667.137 65.0107L547.203 37.7607V42.3407L701.186 74.9507H709.966C708.652 74.6907 707.501 74.4507 706.894 74.3207V74.3107Z" fill="black" fill-opacity="0.05"/>
<path d="M821.719 70.3507V65.7607L772.086 74.9407H797.609L821.719 70.3507Z" fill="black" fill-opacity="0.05"/>
<path d="M547.176 56.5608C547.194 58.9808 547.176 59.0208 547.176 61.1608L612.357 74.9508H634.736L547.176 56.5608Z" fill="black" fill-opacity="0.05"/>
<path d="M821.745 5.15078V0.550781L667.273 29.3908L547.203 0.550781V5.15078L666.24 34.2408L821.745 5.15078Z" fill="black" fill-opacity="0.05"/>
<path d="M666.24 52.7608L821.745 23.9608V19.3608L667.182 48.1008L547.203 19.3608C547.203 21.0508 547.203 21.9908 547.203 23.9608L666.24 52.7608Z" fill="black" fill-opacity="0.05"/>
<path d="M547.203 65.7607C547.203 67.6307 547.203 67.6807 547.203 70.3607L568.876 74.9407H590.63L547.203 65.7607Z" fill="black" fill-opacity="0.05"/>
<path d="M547.203 46.9407C547.203 47.7407 547.203 50.3007 547.203 51.5207L657.859 74.9407H679.577L547.203 46.9407Z" fill="black" fill-opacity="0.05"/>
<path d="M547.203 9.75073V14.3507L666.24 43.4307L821.745 14.3407V9.75073L666.24 38.8407L547.203 9.75073Z" fill="black" fill-opacity="0.05"/>
<path d="M547.223 28.5508C547.196 30.7008 547.205 31.2708 547.205 33.1508L666.241 61.9508L821.747 33.1508V28.5508L666.269 57.3508L547.223 28.5508Z" fill="black" fill-opacity="0.05"/>
<path d="M1096.3 61.1608V56.5608L997.301 74.9408H1023.6L1096.3 61.1608Z" fill="black" fill-opacity="0.05"/>
<path d="M981.48 74.3107C980.275 74.0507 978.753 74.3507 979.26 73.4807L1096.3 51.5407V46.9407L968.134 71.0007H963.658L954.752 68.8807L1096.33 42.3407V37.7607L941.723 65.0107L821.789 37.7607V42.3407L975.772 74.9507H984.552C983.238 74.6907 982.087 74.4507 981.48 74.3207V74.3107Z" fill="black" fill-opacity="0.05"/>
<path d="M1096.31 70.3507V65.7607L1046.67 74.9407H1072.2L1096.31 70.3507Z" fill="black" fill-opacity="0.05"/>
<path d="M821.762 56.5608C821.78 58.9808 821.762 59.0208 821.762 61.1608L886.943 74.9508H909.322L821.762 56.5608Z" fill="black" fill-opacity="0.05"/>
<path d="M1096.33 5.15078V0.550781L941.859 29.3908L821.789 0.550781V5.15078L940.826 34.2408L1096.33 5.15078Z" fill="black" fill-opacity="0.05"/>
<path d="M940.826 52.7608L1096.33 23.9608V19.3608L941.768 48.1008L821.789 19.3608C821.789 21.0508 821.789 21.9908 821.789 23.9608L940.826 52.7608Z" fill="black" fill-opacity="0.05"/>
<path d="M821.789 65.7607C821.789 67.6307 821.789 67.6807 821.789 70.3607L843.462 74.9407H865.216L821.789 65.7607Z" fill="black" fill-opacity="0.05"/>
<path d="M821.789 46.9407C821.789 47.7407 821.789 50.3007 821.789 51.5207L932.445 74.9407H954.163L821.789 46.9407Z" fill="black" fill-opacity="0.05"/>
<path d="M821.789 9.75073V14.3507L940.826 43.4307L1096.33 14.3407V9.75073L940.826 38.8407L821.789 9.75073Z" fill="black" fill-opacity="0.05"/>
<path d="M821.809 28.5508C821.781 30.7008 821.791 31.2708 821.791 33.1508L940.827 61.9508L1096.33 33.1508V28.5508L940.854 57.3508L821.809 28.5508Z" fill="black" fill-opacity="0.05"/>
<path d="M1370.89 61.1608V56.5608L1271.89 74.9408H1298.19L1370.89 61.1608Z" fill="black" fill-opacity="0.05"/>
<path d="M1256.07 74.3107C1254.86 74.0507 1253.34 74.3507 1253.85 73.4807L1370.89 51.5407V46.9407L1242.72 71.0007H1238.24L1229.34 68.8807L1370.92 42.3407V37.7607L1216.31 65.0107L1096.38 37.7607V42.3407L1250.36 74.9507H1259.14C1257.82 74.6907 1256.67 74.4507 1256.07 74.3207V74.3107Z" fill="black" fill-opacity="0.05"/>
<path d="M1370.89 70.3507V65.7607L1321.26 74.9407H1346.78L1370.89 70.3507Z" fill="black" fill-opacity="0.05"/>
<path d="M1096.35 56.5608C1096.37 58.9808 1096.35 59.0208 1096.35 61.1608L1161.53 74.9508H1183.91L1096.35 56.5608Z" fill="black" fill-opacity="0.05"/>
<path d="M1370.92 5.15078V0.550781L1216.44 29.3908L1096.38 0.550781V5.15078L1215.41 34.2408L1370.92 5.15078Z" fill="black" fill-opacity="0.05"/>
<path d="M1215.41 52.7608L1370.92 23.9608V19.3608L1216.35 48.1008L1096.38 19.3608C1096.38 21.0508 1096.38 21.9908 1096.38 23.9608L1215.41 52.7608Z" fill="black" fill-opacity="0.05"/>
<path d="M1096.38 65.7607C1096.38 67.6307 1096.38 67.6807 1096.38 70.3607L1118.05 74.9407H1139.8L1096.38 65.7607Z" fill="black" fill-opacity="0.05"/>
<path d="M1096.38 46.9407C1096.38 47.7407 1096.38 50.3007 1096.38 51.5207L1207.03 74.9407H1228.75L1096.38 46.9407Z" fill="black" fill-opacity="0.05"/>
<path d="M1096.38 9.75073V14.3507L1215.41 43.4307L1370.92 14.3407V9.75073L1215.41 38.8407L1096.38 9.75073Z" fill="black" fill-opacity="0.05"/>
<path d="M1096.39 28.5508C1096.37 30.7008 1096.38 31.2708 1096.38 33.1508L1215.41 61.9508L1370.92 33.1508V28.5508L1215.44 57.3508L1096.39 28.5508Z" fill="black" fill-opacity="0.05"/>
</svg>
