<svg width="144" height="24" viewBox="0 0 144 24" fill="none" xmlns="http://www.w3.org/2000/svg">
<g clip-path="url(#clip0_6111_39639)">
<path d="M128.164 0L127.868 0.5476L137.475 13.5956L129.891 23.8206C129.538 24.1227 128.688 23.9245 128.154 23.9811L135.844 13.5295L127.162 1.89772L126.838 1.77498C126.761 2.1904 126.084 2.51141 126.313 2.94571L134.241 13.5956L126.561 23.9245L126.332 23.9906L124.138 23.8867L116.496 13.605L126.551 0H128.154H128.164ZM125.244 3.89929L124.586 4.97561L131.026 13.5862L124.586 22.1967L125.244 23.273L132.619 13.5767L125.244 3.88041V3.89929ZM123.642 6.04249L122.983 7.1188L127.725 13.5012L122.974 19.9685L123.718 21.0354L129.328 13.4917L123.642 6.03304V6.04249ZM122.173 8.18568L121.333 9.29032L124.5 13.5956L121.362 17.8348L122.106 18.9017L126.103 13.5956L122.173 8.18568ZM122.888 13.6711L120.503 10.4327C120.398 10.4327 119.711 11.3013 119.73 11.443C119.787 11.8489 121.314 13.2368 121.266 13.5862C120.999 14.1998 119.969 15.0307 119.759 15.5972C119.692 15.7766 119.74 15.7954 119.807 15.9559C119.864 16.0881 120.379 16.8812 120.637 16.664C121.467 15.9937 122.068 14.4359 122.878 13.6711H122.888ZM118.977 12.5759C117.927 13.2746 117.984 13.8694 118.91 14.6247C119.015 14.3698 119.654 13.8033 119.654 13.605C119.654 13.3784 118.967 12.878 118.977 12.5854V12.5759Z" fill="#DDD6E9"/>
<path d="M62.9835 0.5476L72.5905 13.5956L65.006 23.8206C64.653 24.1227 63.8039 23.9245 63.2697 23.9717L70.9877 13.5956L62.2871 1.88828L61.9627 1.76554C61.8864 2.18096 61.209 2.50197 61.438 2.93627L69.3659 13.5862L61.686 23.915L61.4571 23.9811L59.2628 23.8773L51.6211 13.5956L61.6669 0H63.2697L62.974 0.5476H62.9835ZM60.3599 3.89929L59.7017 4.97561L66.1413 13.5862L59.7017 22.1967L60.3599 23.273L67.7345 13.5767L60.3599 3.88041V3.89929ZM58.7572 6.04249L58.0989 7.1188L62.8404 13.5012L58.0894 20.1668C58.3279 20.3556 58.5664 21.0448 58.9766 21.0448L64.5385 13.5862L58.7572 6.03304V6.04249ZM56.4771 9.35641L59.6158 13.5956L56.4771 17.8348L57.2212 18.9017L61.2281 13.5012L57.1449 8.18568L56.4771 9.35641ZM58.0035 13.6711L55.6184 10.4327C55.5135 10.4327 54.8266 11.3013 54.8457 11.443C54.9029 11.8489 56.4294 13.2368 56.3817 13.5862C56.1145 14.1998 55.0842 15.0307 54.8743 15.5972C54.8075 15.7766 54.8552 15.7954 54.922 15.9559C54.9792 16.0881 55.4944 16.8812 55.752 16.664C56.582 15.9937 57.183 14.4359 57.994 13.6711H58.0035ZM54.092 14.6153C54.092 14.2943 54.8266 13.775 54.7884 13.5106C54.7694 13.4068 54.1015 12.5759 54.0157 12.5759C53.0903 13.3218 53.0426 13.926 54.0825 14.6247L54.092 14.6153Z" fill="#DDD6E9"/>
<path d="M110.372 0L101.109 12.3777L100.374 11.6035V11.2164L108.77 0H107.167L99.506 10.2345C99.2008 10.2817 99.3057 10.1495 99.2198 10.0362C99.0767 9.87569 98.5902 9.29032 98.6283 9.1487L105.411 0H103.809L97.6839 8.08183L97.0256 7.00551L102.206 0H100.603L96.0906 5.94807L95.4228 4.97561V4.77734L98.9909 0H97.3881L94.5451 3.80488L93.7724 2.70024L95.7854 0H94.1826L92.9424 1.55783C92.4272 1.03855 91.9025 0.604249 92.4272 0H90.0898L108.102 23.9717L109.638 23.915L101.91 13.4917L111.975 0H110.372Z" fill="#DDD6E9"/>
<path d="M45.4878 0L36.2243 12.3777L35.4897 11.6035V11.2164L43.885 0H42.2823L34.6215 10.2345C34.3162 10.2817 34.4212 10.1495 34.3353 10.0362C34.1922 9.87569 33.7056 9.29032 33.7438 9.1487L40.5269 0H38.9241L32.7993 8.08183L32.141 7.00551L37.3214 0H35.7186L31.2061 5.94807L30.5478 4.87175L34.1159 0H32.5131L29.6701 3.80488L28.8974 2.70024L30.9008 0H29.2981L28.0578 1.55783C27.514 1.01023 26.9798 0.594807 27.6953 0H25.2148L43.0264 23.8112C43.3412 24.085 44.2857 23.9717 44.7627 23.915L37.0352 13.4917L47.0906 0H45.4878Z" fill="#DDD6E9"/>
<path d="M78.7278 0H77.125L87.1709 13.5956L79.4528 23.9717C79.9871 23.9245 80.8361 24.1227 81.1891 23.8206L87.915 14.7191C88.3443 14.9835 88.8785 15.6066 88.7259 15.9843L82.811 23.9717L84.3851 23.9528L89.7276 16.9567C89.9375 17.3344 90.5195 17.7026 90.3191 18.1275L86.0069 23.9717L87.5811 23.9528L91.3208 19.0999L92.0554 20.1762L89.2125 23.9717C89.6895 23.9245 90.5385 24.085 90.8915 23.8773C91.1014 23.7545 92.7614 21.1204 92.9999 21.2431C92.9999 21.5452 93.6773 22.0362 93.6773 22.2628C93.6773 22.4894 92.3035 23.9056 92.418 23.9622H93.9253L94.6027 23.3769C94.6885 23.4241 94.7649 24.0094 95.1083 23.9717L96.6443 23.915L78.7373 0H78.7278Z" fill="#DDD6E9"/>
<path d="M85.2906 0H83.5352L101.337 23.8112C101.595 24.0472 102.453 24 102.854 23.9717C103.054 23.9528 103.112 24.0283 103.064 23.8301L85.2906 0Z" fill="#DDD6E9"/>
<path d="M72.314 0H70.5586L80.7094 13.5956L73.039 23.8301C72.915 24.1133 74.1839 23.915 74.4319 23.9811L74.6609 23.915L82.3408 13.5201L72.314 0Z" fill="#DDD6E9"/>
<path d="M130.634 0H129.031L139.077 13.5956L131.359 23.9245C131.836 23.9811 132.781 24.085 133.095 23.8206L140.689 13.5106L130.634 0Z" fill="#DDD6E9"/>
<path d="M65.7512 0H64.1484L74.1943 13.5956L66.4763 23.9245C66.9533 23.9811 67.8977 24.085 68.2126 23.8206L75.8066 13.5106L65.7512 0Z" fill="#DDD6E9"/>
<path d="M133.841 0H132.238L142.303 13.5012L134.576 23.9245L136.341 23.9056L144.001 13.5956L133.841 0Z" fill="#DDD6E9"/>
<path d="M123.346 0L113.195 13.5956L120.856 23.9056L122.621 23.9245L114.893 13.5012L124.949 0H123.346Z" fill="#DDD6E9"/>
<path d="M118.383 0H116.78L106.734 13.5956L114.319 23.8112C114.576 24.0472 115.435 24 115.836 23.9717C116.036 23.9528 116.093 24.0283 116.046 23.8301L108.356 13.5106L118.383 0Z" fill="#DDD6E9"/>
<path d="M68.9582 0H67.3555L77.4204 13.5012L77.3059 13.8977L69.8455 23.8206C69.7214 24.1039 70.9903 23.9056 71.2383 23.9717L71.4673 23.9056L79.1281 13.5862L68.9678 0H68.9582Z" fill="#DDD6E9"/>
<path d="M75.5207 0H73.918L83.9638 13.5956L76.2458 23.9245C76.7228 23.9811 77.6673 24.085 77.9821 23.8206L85.5666 13.5956L75.5207 0Z" fill="#DDD6E9"/>
<path d="M81.9426 0H80.3398L98.1419 23.8112C98.4567 24.085 99.4012 23.9717 99.8782 23.915L81.9426 0Z" fill="#DDD6E9"/>
<path d="M58.4616 0L48.4062 13.5012L56.0003 23.8112C56.3151 24.085 57.2596 23.9717 57.7366 23.915L50.009 13.4917L60.0644 0H58.4616Z" fill="#DDD6E9"/>
<path d="M55.2563 0L45.1055 13.5956L52.7663 23.915C52.8807 24.0189 53.9111 24 54.1687 23.9717C54.369 23.9528 54.4263 24.0283 54.3786 23.8301L46.7082 13.5956L56.859 0H55.2563Z" fill="#DDD6E9"/>
<path d="M88.4934 0H86.8906L104.893 23.9717C105.141 23.9056 106.41 24.1039 106.286 23.8206L88.5029 0H88.4934Z" fill="#DDD6E9"/>
<path d="M53.5006 0H51.8979L41.8711 13.5106L49.551 23.9056C49.6654 24.0094 50.6958 23.9906 50.9534 23.9622C51.1537 23.9433 51.211 24.0189 51.1633 23.8206L43.4739 13.5012L53.5102 0H53.5006Z" fill="#DDD6E9"/>
<path d="M50.297 0H48.6943L38.6484 13.5956L46.2329 23.8112C46.5477 24.085 47.4922 23.9717 47.9692 23.915L40.2512 13.5862L50.297 0Z" fill="#DDD6E9"/>
<path d="M23.6106 0H22.0078L40.0102 23.9717C40.2582 23.9056 41.5271 24.1039 41.4031 23.8206L23.6201 0H23.6106Z" fill="#DDD6E9"/>
<path d="M17.9356 0L0 23.9245C0.477011 23.9811 1.42149 24.085 1.73632 23.8206L19.5384 0H17.9356Z" fill="#DDD6E9"/>
<path d="M120.139 0L109.988 13.5956L117.649 23.915C117.764 24.0189 118.794 24 119.051 23.9717C119.252 23.9528 119.309 24.0283 119.261 23.8301L111.591 13.5956L121.742 0H120.139Z" fill="#DDD6E9"/>
<path d="M115.18 0H113.577L103.531 13.5956L111.116 23.8112C111.431 24.085 112.375 23.9717 112.852 23.915L105.134 13.5862L115.18 0Z" fill="#DDD6E9"/>
<path d="M20.847 9.26201L31.7801 23.9717H30.2727L29.6622 23.3863L29.0516 23.9528H27.5442C27.4297 23.9056 28.794 22.4799 28.8226 22.2439C28.8417 22.1117 28.1548 21.2337 28.0499 21.2337L26.0083 23.8678L24.3292 23.9622L27.2103 20.1007C27.0958 19.8741 26.6761 19.0905 26.2945 19.0905L22.6978 23.9434L21.1237 23.9622L25.5694 17.8159L24.9111 16.8529L20.7611 22.2156L16.6779 16.8529L15.9338 18.0236L20.3891 23.9622L18.71 23.8678L15.0656 19.0905L14.3215 20.1574L17.174 23.9528L15.4472 23.9339L13.5297 21.2242C13.3865 21.1582 12.6615 22.1023 12.6615 22.2439C12.6615 22.5083 13.978 23.8489 13.8159 23.9434L12.2417 23.9245L11.9269 23.358L11.2495 23.9245H9.74219L20.8184 9.22424L20.847 9.26201ZM20.847 17.9292L18.3665 14.7569L17.5652 15.6727L20.7802 19.9685L23.8903 15.8993C24.0621 15.4461 23.4229 15.1345 23.337 14.7097L20.8565 17.9198L20.847 17.9292ZM20.847 15.6916L22.3066 13.5106L20.7802 11.5091L19.1584 13.605C19.2919 13.775 20.6657 15.7954 20.8565 15.701L20.847 15.6916Z" fill="#DDD6E9"/>
<path d="M20.8444 0.585327L3.34766 23.9716L4.96949 23.9055L20.7776 2.83238L36.5762 23.9055L38.1981 23.9716L20.8444 0.585327Z" fill="#DDD6E9"/>
<path d="M20.8442 4.97563L6.5625 23.9717L8.18434 23.915L20.8442 7.10938L33.256 23.8112C33.609 24.1133 34.4581 23.915 34.9923 23.9623L20.8442 4.96619V4.97563Z" fill="#DDD6E9"/>
</g>
<defs>
<clipPath id="clip0_6111_39639">
<rect width="144" height="24" fill="white"/>
</clipPath>
</defs>
</svg>
