<svg width="1920" height="64" viewBox="0 0 1920 64" fill="none" xmlns="http://www.w3.org/2000/svg">
<path d="M274.542 19.5986C267.629 21.1286 262.636 19.6286 256.72 18.1386L274.542 14.5886V9.98856L243.7 15.7386L231.051 13.5286L274.542 5.37856V0.778557L219.925 11.0486H217.687L206.561 9.12856L250.459 0.768555H224.935L194.393 6.42856L182.061 4.52856L201.867 0.768555H175.565L169.884 1.82855C168.833 1.89855 165.481 1.29855 162.817 0.768555H154.037L274.551 26.2886V19.5986H274.542Z" fill="black" fill-opacity="0.1"/>
<path d="M0 5.37832C7.4296 7.44832 22.8777 9.54832 23.367 9.83832L0 9.97832L0.018121 14.5483C0.670476 14.9383 30.6154 10.8083 30.6154 10.8083C30.6154 10.8083 37.6101 12.2383 41.9229 12.7683C38.643 13.9983 1.43156 19.1383 0.0271815 19.8283C0.0271815 21.0183 0.0724839 24.4783 0.0724839 26.2783L47.178 15.5883L62.8255 18.7283L0.0453025 30.8483V35.4583L71.5235 20.6983C78.6904 21.3483 80.3303 22.1683 84.6522 22.8883L0.0453025 40.0483V45.0683L93.4771 25.1983C95.7875 25.4683 104.205 27.2483 109.904 28.0483L0.0634234 49.6583L0.0453025 54.2583L120.206 30.4883C126.675 32.0583 129.474 32.4783 133.135 33.0683L0.018121 58.8383C0.018121 59.6783 0.036242 61.0983 0.0453025 63.3683L138.834 36.8483L274.614 63.4483V58.0283L0 0.77832V5.37832Z" fill="black" fill-opacity="0.1"/>
<path d="M274.588 40.0486L87.5793 0.768555H65.209L274.588 45.0686V40.0486Z" fill="black" fill-opacity="0.1"/>
<path d="M274.588 49.6586H274.606L43.473 0.768555H21.7188L274.588 54.2586V49.6586Z" fill="black" fill-opacity="0.1"/>
<path d="M274.587 30.8486L132.419 0.768555H110.701L274.587 35.4586V30.8486Z" fill="black" fill-opacity="0.1"/>
<path d="M549.157 19.5986C542.244 21.1286 537.251 19.6286 531.335 18.1386L549.157 14.5886V9.98856L518.315 15.7386L505.667 13.5286L549.157 5.37856V0.778557L494.54 11.0486H492.302L481.176 9.12856L525.074 0.768555H499.551L469.008 6.42856L456.676 4.52856L476.483 0.768555H450.18L444.499 1.82855C443.448 1.89855 440.096 1.29855 437.432 0.768555H428.652L549.166 26.2886V19.5986H549.157Z" fill="black" fill-opacity="0.1"/>
<path d="M274.615 5.37832C282.045 7.44832 297.493 9.54832 297.982 9.83832L274.615 9.97832L274.633 14.5483C275.286 14.9383 305.231 10.8083 305.231 10.8083C305.231 10.8083 312.225 12.2383 316.538 12.7683C313.258 13.9983 276.047 19.1383 274.642 19.8283C274.642 21.0183 274.688 24.4783 274.688 26.2783L321.793 15.5883L337.441 18.7283L274.661 30.8483V35.4583L346.139 20.6983C353.306 21.3483 354.946 22.1683 359.267 22.8883L274.661 40.0483V45.0683L368.092 25.1983C370.403 25.4683 378.82 27.2483 384.519 28.0483L274.679 49.6583L274.661 54.2583L394.821 30.4883C401.29 32.0583 404.09 32.4783 407.75 33.0683L274.633 58.8383C274.633 59.6783 274.651 61.0983 274.661 63.3683L413.449 36.8483L549.23 63.4483V58.0283L274.615 0.77832V5.37832Z" fill="black" fill-opacity="0.1"/>
<path d="M549.203 40.0486L362.195 0.768555H339.824L549.203 45.0686V40.0486Z" fill="black" fill-opacity="0.1"/>
<path d="M549.203 49.6586H549.221L318.088 0.768555H296.334L549.203 54.2586V49.6586Z" fill="black" fill-opacity="0.1"/>
<path d="M549.203 30.8486L407.034 0.768555H385.316L549.203 35.4586V30.8486Z" fill="black" fill-opacity="0.1"/>
<path d="M823.77 19.5986C816.857 21.1286 811.865 19.6286 805.948 18.1386L823.77 14.5886V9.98856L792.928 15.7386L780.28 13.5286L823.77 5.37856V0.778557L769.154 11.0486H766.916L755.789 9.12856L799.687 0.768555H774.164L743.621 6.42856L731.29 4.52856L751.096 0.768555H724.793L719.112 1.82855C718.061 1.89855 714.709 1.29855 712.045 0.768555H703.266L823.779 26.2886V19.5986H823.77Z" fill="black" fill-opacity="0.1"/>
<path d="M549.229 5.37832C556.658 7.44832 572.106 9.54832 572.596 9.83832L549.229 9.97832L549.247 14.5483C549.899 14.9383 579.844 10.8083 579.844 10.8083C579.844 10.8083 586.839 12.2383 591.151 12.7683C587.872 13.9983 550.66 19.1383 549.256 19.8283C549.256 21.0183 549.301 24.4783 549.301 26.2783L596.407 15.5883L612.054 18.7283L549.274 30.8483V35.4583L620.752 20.6983C627.919 21.3483 629.559 22.1683 633.881 22.8883L549.274 40.0483V45.0683L642.706 25.1983C645.016 25.4683 653.433 27.2483 659.132 28.0483L549.292 49.6583L549.274 54.2583L669.434 30.4883C675.903 32.0583 678.703 32.4783 682.363 33.0683L549.247 58.8383C549.247 59.6783 549.265 61.0983 549.274 63.3683L688.062 36.8483L823.843 63.4483V58.0283L549.229 0.77832V5.37832Z" fill="black" fill-opacity="0.1"/>
<path d="M823.816 40.0486L636.808 0.768555H614.438L823.816 45.0686V40.0486Z" fill="black" fill-opacity="0.1"/>
<path d="M823.817 49.6586H823.835L592.702 0.768555H570.947L823.817 54.2586V49.6586Z" fill="black" fill-opacity="0.1"/>
<path d="M823.816 30.8486L681.648 0.768555H659.93L823.816 35.4586V30.8486Z" fill="black" fill-opacity="0.1"/>
<path d="M1098.39 19.5986C1091.47 21.1286 1086.48 19.6286 1080.56 18.1386L1098.39 14.5886V9.98856L1067.54 15.7386L1054.9 13.5286L1098.39 5.37856V0.778557L1043.77 11.0486H1041.53L1030.4 9.12856L1074.3 0.768555H1048.78L1018.24 6.42856L1005.9 4.52856L1025.71 0.768555H999.409L993.728 1.82855C992.677 1.89855 989.324 1.29855 986.66 0.768555H977.881L1098.39 26.2886V19.5986H1098.39Z" fill="black" fill-opacity="0.1"/>
<path d="M823.844 5.37832C831.273 7.44832 846.721 9.54832 847.211 9.83832L823.844 9.97832L823.862 14.5483C824.514 14.9383 854.459 10.8083 854.459 10.8083C854.459 10.8083 861.454 12.2383 865.767 12.7683C862.487 13.9983 825.275 19.1383 823.871 19.8283C823.871 21.0183 823.916 24.4783 823.916 26.2783L871.022 15.5883L886.669 18.7283L823.889 30.8483V35.4583L895.367 20.6983C902.534 21.3483 904.174 22.1683 908.496 22.8883L823.889 40.0483V45.0683L917.321 25.1983C919.631 25.4683 928.048 27.2483 933.748 28.0483L823.907 49.6583L823.889 54.2583L944.049 30.4883C950.518 32.0583 953.318 32.4783 956.979 33.0683L823.862 58.8383C823.862 59.6783 823.88 61.0983 823.889 63.3683L962.678 36.8483L1098.46 63.4483V58.0283L823.844 0.77832V5.37832Z" fill="black" fill-opacity="0.1"/>
<path d="M1098.43 40.0486L911.423 0.768555H889.053L1098.43 45.0686V40.0486Z" fill="black" fill-opacity="0.1"/>
<path d="M1098.43 49.6586H1098.45L867.317 0.768555H845.562L1098.43 54.2586V49.6586Z" fill="black" fill-opacity="0.1"/>
<path d="M1098.43 30.8486L956.263 0.768555H934.545L1098.43 35.4586V30.8486Z" fill="black" fill-opacity="0.1"/>
<path d="M1373 19.5986C1366.09 21.1286 1361.09 19.6286 1355.18 18.1386L1373 14.5886V9.98856L1342.16 15.7386L1329.51 13.5286L1373 5.37856V0.778557L1318.38 11.0486H1316.14L1305.02 9.12856L1348.92 0.768555H1323.39L1292.85 6.42856L1280.52 4.52856L1300.32 0.768555H1274.02L1268.34 1.82855C1267.29 1.89855 1263.94 1.29855 1261.27 0.768555H1252.49L1373.01 26.2886V19.5986H1373Z" fill="black" fill-opacity="0.1"/>
<path d="M1098.46 5.37832C1105.89 7.44832 1121.33 9.54832 1121.82 9.83832L1098.46 9.97832L1098.48 14.5483C1099.13 14.9383 1129.07 10.8083 1129.07 10.8083C1129.07 10.8083 1136.07 12.2383 1140.38 12.7683C1137.1 13.9983 1099.89 19.1383 1098.48 19.8283C1098.48 21.0183 1098.53 24.4783 1098.53 26.2783L1145.64 15.5883L1161.28 18.7283L1098.5 30.8483V35.4583L1169.98 20.6983C1177.15 21.3483 1178.79 22.1683 1183.11 22.8883L1098.5 40.0483V45.0683L1191.93 25.1983C1194.24 25.4683 1202.66 27.2483 1208.36 28.0483L1098.52 49.6583L1098.5 54.2583L1218.66 30.4883C1225.13 32.0583 1227.93 32.4783 1231.59 33.0683L1098.48 58.8383C1098.48 59.6783 1098.49 61.0983 1098.5 63.3683L1237.29 36.8483L1373.07 63.4483V58.0283L1098.46 0.77832V5.37832Z" fill="black" fill-opacity="0.1"/>
<path d="M1373.04 40.0486L1186.04 0.768555H1163.67L1373.04 45.0686V40.0486Z" fill="black" fill-opacity="0.1"/>
<path d="M1373.05 49.6586H1373.06L1141.93 0.768555H1120.18L1373.05 54.2586V49.6586Z" fill="black" fill-opacity="0.1"/>
<path d="M1373.04 30.8486L1230.88 0.768555H1209.16L1373.04 35.4586V30.8486Z" fill="black" fill-opacity="0.1"/>
<path d="M1647.61 19.5986C1640.7 21.1286 1635.71 19.6286 1629.79 18.1386L1647.61 14.5886V9.98856L1616.77 15.7386L1604.12 13.5286L1647.61 5.37856V0.778557L1593 11.0486H1590.76L1579.63 9.12856L1623.53 0.768555H1598.01L1567.46 6.42856L1555.13 4.52856L1574.94 0.768555H1548.64L1542.96 1.82855C1541.91 1.89855 1538.55 1.29855 1535.89 0.768555H1527.11L1647.62 26.2886V19.5986H1647.61Z" fill="black" fill-opacity="0.1"/>
<path d="M1373.07 5.37832C1380.5 7.44832 1395.95 9.54832 1396.44 9.83832L1373.07 9.97832L1373.09 14.5483C1373.74 14.9383 1403.69 10.8083 1403.69 10.8083C1403.69 10.8083 1410.68 12.2383 1415 12.7683C1411.72 13.9983 1374.5 19.1383 1373.1 19.8283C1373.1 21.0183 1373.14 24.4783 1373.14 26.2783L1420.25 15.5883L1435.9 18.7283L1373.12 30.8483V35.4583L1444.6 20.6983C1451.76 21.3483 1453.4 22.1683 1457.72 22.8883L1373.12 40.0483V45.0683L1466.55 25.1983C1468.86 25.4683 1477.28 27.2483 1482.98 28.0483L1373.14 49.6583L1373.12 54.2583L1493.28 30.4883C1499.75 32.0583 1502.55 32.4783 1506.21 33.0683L1373.09 58.8383C1373.09 59.6783 1373.11 61.0983 1373.12 63.3683L1511.91 36.8483L1647.69 63.4483V58.0283L1373.07 0.77832V5.37832Z" fill="black" fill-opacity="0.1"/>
<path d="M1647.66 40.0486L1460.65 0.768555H1438.28L1647.66 45.0686V40.0486Z" fill="black" fill-opacity="0.1"/>
<path d="M1647.66 49.6586H1647.68L1416.55 0.768555H1394.79L1647.66 54.2586V49.6586Z" fill="black" fill-opacity="0.1"/>
<path d="M1647.66 30.8486L1505.49 0.768555H1483.77L1647.66 35.4586V30.8486Z" fill="black" fill-opacity="0.1"/>
<path d="M1922.23 19.5986C1915.32 21.1286 1910.32 19.6286 1904.41 18.1386L1922.23 14.5886V9.98856L1891.39 15.7386L1878.74 13.5286L1922.23 5.37856V0.778557L1867.61 11.0486H1865.37L1854.25 9.12856L1898.15 0.768555H1872.62L1842.08 6.42856L1829.75 4.52856L1849.55 0.768555H1823.25L1817.57 1.82855C1816.52 1.89855 1813.17 1.29855 1810.5 0.768555H1801.72L1922.24 26.2886V19.5986H1922.23Z" fill="black" fill-opacity="0.1"/>
<path d="M1647.69 5.37832C1655.12 7.44832 1670.57 9.54832 1671.05 9.83832L1647.69 9.97832L1647.71 14.5483C1648.36 14.9383 1678.3 10.8083 1678.3 10.8083C1678.3 10.8083 1685.3 12.2383 1689.61 12.7683C1686.33 13.9983 1649.12 19.1383 1647.71 19.8283C1647.71 21.0183 1647.76 24.4783 1647.76 26.2783L1694.87 15.5883L1710.51 18.7283L1647.73 30.8483V35.4583L1719.21 20.6983C1726.38 21.3483 1728.02 22.1683 1732.34 22.8883L1647.73 40.0483V45.0683L1741.16 25.1983C1743.48 25.4683 1751.89 27.2483 1757.59 28.0483L1647.75 49.6583L1647.73 54.2583L1767.89 30.4883C1774.36 32.0583 1777.16 32.4783 1780.82 33.0683L1647.71 58.8383C1647.71 59.6783 1647.72 61.0983 1647.73 63.3683L1786.52 36.8483L1922.3 63.4483V58.0283L1647.69 0.77832V5.37832Z" fill="black" fill-opacity="0.1"/>
<path d="M1922.28 40.0486L1735.27 0.768555H1712.9L1922.28 45.0686V40.0486Z" fill="black" fill-opacity="0.1"/>
<path d="M1922.28 49.6586H1922.29L1691.16 0.768555H1669.41L1922.28 54.2586V49.6586Z" fill="black" fill-opacity="0.1"/>
<path d="M1922.27 30.8486L1780.11 0.768555H1758.39L1922.27 35.4586V30.8486Z" fill="black" fill-opacity="0.1"/>
</svg>
