<svg width="216" height="275" viewBox="0 0 216 275" fill="none" xmlns="http://www.w3.org/2000/svg">
<path d="M215.621 269.861C146.011 155.671 178.701 209.291 107.811 93.0007C96.5411 111.491 12.6111 249.171 0.00111409 269.861C12.6111 290.551 96.5411 428.231 107.811 446.721C178.701 330.441 146.011 384.051 215.621 269.861ZM107.811 102.831C120.431 123.531 198.211 251.131 209.641 269.871C198.211 288.611 120.421 416.211 107.811 436.901C107.151 435.821 9.47111 275.571 5.98111 269.861C9.46111 264.151 107.151 103.901 107.811 102.821L107.811 102.831Z" fill="white" fill-opacity="0.1"/>
<path d="M203.643 269.86C171.003 216.31 182.763 235.61 107.803 112.65C97.1726 130.09 21.0926 254.9 11.9626 269.86C21.0826 284.82 97.1726 409.63 107.803 427.07C182.763 304.12 171.003 323.42 203.643 269.86ZM107.813 122.48C112.163 129.62 193.393 262.88 197.663 269.87C193.403 276.86 112.173 410.11 107.813 417.26C79.8626 371.41 45.5426 315.12 17.9626 269.87C45.5426 224.63 79.8626 168.33 107.813 122.48Z" fill="white" fill-opacity="0.1"/>
<path d="M179.682 269.861C170.742 255.201 116.282 165.851 107.802 151.951C94.3517 174.021 49.3216 247.881 35.9216 269.861C49.3216 291.831 94.3416 365.701 107.802 387.771C116.282 373.871 170.742 284.521 179.682 269.861ZM173.692 269.861C172.982 271.021 168.272 278.751 167.702 279.691L161.712 269.861L167.702 260.031C168.272 260.971 172.982 268.691 173.692 269.861ZM164.712 255.131C154.342 272.141 156.202 269.091 155.732 269.871C156.202 270.641 154.342 267.601 164.712 284.611C163.732 286.221 162.722 287.871 161.722 289.521C160.452 287.441 151.002 271.931 149.742 269.871C151.002 267.811 160.452 252.301 161.722 250.221C162.732 251.871 163.732 253.521 164.712 255.131ZM158.722 245.301C155.662 250.311 146.802 264.851 143.752 269.861C146.812 274.881 155.672 289.411 158.722 294.421C157.682 296.121 156.672 297.781 155.732 299.331C153.962 296.421 139.522 272.731 137.762 269.851C139.522 266.971 153.962 243.281 155.732 240.371C156.682 241.921 157.692 243.581 158.722 245.281L158.722 245.301ZM152.732 235.471C150.632 238.921 133.872 266.421 131.772 269.861C133.872 273.301 150.632 300.801 152.732 304.251C151.332 306.551 150.272 308.291 149.742 309.161C146.992 304.641 128.362 274.091 125.782 269.861C128.362 265.621 146.992 235.071 149.742 230.561C150.272 231.431 151.342 233.181 152.732 235.471ZM146.742 225.651C140.282 236.251 121.052 267.801 119.792 269.871C121.052 271.941 140.282 303.491 146.742 314.091C144.202 318.261 143.962 318.651 143.752 319.001C140.622 313.871 116.772 274.741 113.802 269.871C116.772 265.001 140.622 225.871 143.752 220.741C143.972 221.091 144.202 221.491 146.742 225.651ZM107.812 161.781C108.832 163.451 109.812 165.061 110.802 166.691L107.812 171.601L104.822 166.691C105.812 165.071 106.802 163.441 107.812 161.781ZM101.822 171.611L107.812 181.441L113.802 171.611C114.742 173.151 115.722 174.761 116.792 176.521L107.812 191.261L98.8317 176.521C99.8217 174.901 100.822 173.261 101.822 171.611ZM95.8317 181.431L107.812 201.081L119.792 181.431C120.722 182.951 121.742 184.621 122.782 186.341L107.812 210.901L92.8417 186.341C93.8317 184.721 94.8317 183.081 95.8317 181.431ZM89.8417 191.261L107.812 220.741L125.782 191.261C126.832 192.981 127.852 194.651 128.772 196.171L107.812 230.561L86.8517 196.171C87.8417 194.541 88.8417 192.901 89.8417 191.261ZM83.8517 201.081L107.812 240.381L131.772 201.081L134.762 205.991L107.812 250.211L80.8617 205.991C81.8517 204.361 82.8517 202.721 83.8517 201.081ZM41.9216 269.861C42.6616 268.651 47.3517 260.951 47.9117 260.031L53.9016 269.861L47.9117 279.691C47.3317 278.741 42.6616 271.071 41.9216 269.861ZM50.9017 284.601C52.8516 281.401 54.4917 278.711 59.8817 269.861C54.4917 261.011 52.8517 258.331 50.9017 255.121C51.9117 253.461 52.9116 251.831 53.8917 250.211C55.1517 252.271 64.6016 267.781 65.8716 269.861C64.6016 271.941 55.1517 287.451 53.8916 289.511C52.9017 287.891 51.9017 286.251 50.9017 284.601ZM56.8916 294.431C59.9516 289.421 68.8116 274.881 71.8617 269.871C68.8017 264.851 59.9417 250.321 56.8917 245.311C57.9017 243.661 58.8917 242.021 59.8817 240.401C61.6717 243.341 76.0817 266.981 77.8517 269.881C76.0817 272.781 61.6717 296.421 59.8817 299.361C58.8917 297.731 57.8916 296.101 56.8916 294.451L56.8916 294.431ZM62.8817 304.251C64.9817 300.801 81.7416 273.301 83.8416 269.861C81.7416 266.421 64.9817 238.921 62.8817 235.471C63.8817 233.821 64.8817 232.191 65.8716 230.561C68.6216 235.081 87.2517 265.631 89.8317 269.861C87.2517 274.101 68.6216 304.651 65.8716 309.161C64.8816 307.531 63.8817 305.891 62.8817 304.251ZM68.8716 314.081C75.3416 303.471 94.5616 271.931 95.8217 269.861C94.5616 267.791 75.3316 236.251 68.8716 225.641C69.8716 224.001 70.8717 222.361 71.8617 220.731C74.9917 225.861 98.8416 265.001 101.812 269.861C98.8516 274.721 74.9916 313.861 71.8616 318.991C70.8616 317.361 69.8716 315.721 68.8716 314.081ZM74.8616 323.911C81.3816 313.211 100.762 281.431 107.802 269.871C100.752 258.311 81.3817 226.531 74.8617 215.831C75.8617 214.191 76.8617 212.561 77.8517 210.921L107.802 260.051L137.752 210.921C139.002 212.981 139.982 214.571 140.742 215.831C132.462 229.411 113.922 259.831 107.802 269.871C113.922 279.911 132.472 310.331 140.742 323.911C139.972 325.171 139.002 326.771 137.752 328.821L107.802 279.691L77.8517 328.821C76.8517 327.181 75.8516 325.541 74.8616 323.911ZM80.8517 333.731L107.802 289.511L134.752 333.731L131.762 338.641L107.802 299.341L83.8416 338.641C82.8416 337.001 81.8416 335.361 80.8517 333.731ZM86.8416 343.561L107.802 309.171L128.762 343.561C127.832 345.081 126.822 346.751 125.772 348.471L107.802 318.991L89.8316 348.471C88.8316 346.821 87.8316 345.181 86.8416 343.561ZM92.8316 353.381L107.802 328.821L122.772 353.381C121.722 355.101 120.702 356.781 119.782 358.291L107.802 338.641L95.8216 358.291C94.8116 356.641 93.8116 355.001 92.8316 353.381ZM98.8216 363.211L107.802 348.471L116.782 363.211C115.712 364.971 114.722 366.581 113.792 368.121L107.802 358.291L101.812 368.121C100.802 366.471 99.8016 364.831 98.8216 363.211ZM107.812 368.121L110.802 373.031C109.812 374.661 108.822 376.271 107.812 377.941C106.802 376.281 105.802 374.651 104.822 373.031L107.812 368.121Z" fill="white" fill-opacity="0.1"/>
<path d="M191.662 269.861C183.142 255.881 127.292 164.261 107.802 132.301C104.582 137.591 29.5021 260.741 23.9421 269.861C29.5021 278.981 104.572 402.131 107.802 407.421C127.282 375.461 183.142 283.841 191.662 269.861ZM107.812 142.131C111.382 147.981 182.062 263.921 185.682 269.871C182.062 275.811 111.382 391.751 107.812 397.611C99.2321 383.541 38.4221 283.781 29.9421 269.871C38.4221 255.961 99.2321 156.211 107.812 142.131Z" fill="white" fill-opacity="0.1"/>
<path d="M208.316 73.8565C179.247 26.1709 192.899 48.5625 163.295 1.13229e-05C158.589 7.7214 123.54 65.2163 118.274 73.8564C123.54 82.4966 158.589 139.991 163.295 147.713C192.899 99.1546 179.247 121.542 208.316 73.8565ZM163.295 4.10501C168.565 12.7493 201.046 66.0348 205.819 73.8606C201.046 81.6864 168.561 134.972 163.295 143.612C163.02 143.161 122.229 76.2409 120.771 73.8564C122.224 71.472 163.02 4.55183 163.295 4.10083L163.295 4.10501Z" fill="white" fill-opacity="0.1"/>
<path d="M203.314 73.8562C189.684 51.4938 194.595 59.5535 163.292 8.20556C158.853 15.4885 127.082 67.6089 123.269 73.8562C127.078 80.1035 158.853 132.224 163.292 139.507C194.595 88.1631 189.684 96.2228 203.314 73.8562ZM163.296 12.3106C165.113 15.2922 199.034 70.9414 200.817 73.8604C199.038 76.7794 165.117 132.424 163.296 135.41C151.624 116.263 137.292 92.7567 125.775 73.8604C137.292 54.9682 151.624 31.4574 163.296 12.3106Z" fill="white" fill-opacity="0.1"/>
<path d="M193.309 73.8567C189.575 67.7347 166.833 30.4223 163.292 24.6177C157.675 33.8341 138.87 64.6779 133.275 73.8567C138.87 83.0313 157.671 113.879 163.292 123.096C166.833 117.291 189.575 79.9787 193.309 73.8567ZM190.807 73.8567C190.511 74.3411 188.544 77.5691 188.306 77.9617L185.804 73.8567L188.306 69.7517C188.544 70.1442 190.511 73.3681 190.807 73.8567ZM187.057 67.7055C182.727 74.8088 183.503 73.5351 183.307 73.8609C183.503 74.1824 182.727 72.9129 187.057 80.0163C186.648 80.6886 186.226 81.3776 185.809 82.0667C185.278 81.1981 181.332 74.7211 180.806 73.8609C181.332 73.0006 185.278 66.5237 185.809 65.6551C186.23 66.3441 186.648 67.0331 187.057 67.7055ZM184.556 63.6005C183.278 65.6926 179.578 71.7645 178.304 73.8567C179.582 75.953 183.282 82.0207 184.556 84.1129C184.121 84.8228 183.7 85.516 183.307 86.1633C182.568 84.9481 176.538 75.0552 175.803 73.8525C176.538 72.6498 182.568 62.7569 183.307 61.5417C183.704 62.189 184.126 62.8822 184.556 63.5921L184.556 63.6005ZM182.054 59.4955C181.177 60.9362 174.178 72.4201 173.301 73.8567C174.178 75.2932 181.177 86.7772 182.054 88.2179C181.47 89.1784 181.027 89.905 180.806 90.2683C179.657 88.3808 171.877 75.6231 170.8 73.8567C171.877 72.0861 179.657 59.3284 180.806 57.4451C181.027 57.8084 181.474 58.5392 182.054 59.4955ZM179.553 55.3947C176.855 59.8212 168.825 72.9964 168.299 73.8609C168.825 74.7253 176.855 87.9005 179.553 92.3271C178.492 94.0684 178.392 94.2313 178.304 94.3775C176.997 92.2352 167.037 75.8946 165.797 73.8609C167.037 71.8272 176.997 55.4865 178.304 53.3443C178.396 53.4904 178.492 53.6575 179.553 55.3947ZM163.296 28.7227C163.722 29.42 164.131 30.0924 164.544 30.7731L163.296 32.8235L162.047 30.7731C162.461 30.0966 162.874 29.4159 163.296 28.7227ZM160.794 32.8277L163.296 36.9326L165.797 32.8277C166.19 33.4708 166.599 34.1431 167.046 34.8781L163.296 41.0335L159.546 34.8781C159.959 34.2016 160.377 33.5167 160.794 32.8277ZM158.293 36.9285L163.296 45.1343L168.299 36.9285C168.687 37.5632 169.113 38.2606 169.547 38.9789L163.296 49.2351L157.044 38.9789C157.458 38.3024 157.875 37.6175 158.293 36.9285ZM155.792 41.0335L163.296 53.3443L170.8 41.0335C171.239 41.7517 171.664 42.4491 172.049 43.0839L163.296 57.4451L154.543 43.0839C154.956 42.4032 155.374 41.7183 155.792 41.0335ZM153.29 45.1343L163.296 61.5459L173.301 45.1343L174.55 47.1847L163.296 65.6509L152.042 47.1847C152.455 46.504 152.873 45.8191 153.29 45.1343ZM135.78 73.8567C136.089 73.3514 138.048 70.1359 138.282 69.7517L140.783 73.8567L138.282 77.9617C138.039 77.565 136.089 74.362 135.78 73.8567ZM139.53 80.0121C140.345 78.6758 141.029 77.5524 143.28 73.8567C141.029 70.1609 140.345 69.0418 139.53 67.7013C139.952 67.0081 140.37 66.3274 140.779 65.6509C141.305 66.5111 145.251 72.9881 145.782 73.8567C145.251 74.7253 141.305 81.2022 140.779 82.0625C140.365 81.386 139.948 80.7011 139.53 80.0121ZM142.032 84.1171C143.31 82.0249 147.009 75.953 148.283 73.8609C147.005 71.7645 143.305 65.6968 142.032 63.6046C142.453 62.9156 142.867 62.2307 143.28 61.5542C144.028 62.782 150.045 72.654 150.785 73.865C150.045 75.0761 144.028 84.9481 143.28 86.1758C142.867 85.4951 142.449 84.8145 142.032 84.1254L142.032 84.1171ZM144.533 88.2179C145.41 86.7772 152.409 75.2932 153.286 73.8567C152.409 72.4201 145.41 60.9362 144.533 59.4955C144.951 58.8064 145.368 58.1258 145.782 57.4451C146.93 59.3326 154.71 72.0902 155.787 73.8567C154.71 75.6273 146.93 88.3849 145.782 90.2683C145.368 89.5876 144.951 88.9027 144.533 88.2179ZM147.035 92.3229C149.736 87.8922 157.763 74.7211 158.289 73.8567C157.763 72.9923 149.732 59.8212 147.035 55.3905C147.452 54.7056 147.87 54.0208 148.283 53.3401C149.59 55.4824 159.55 71.8272 160.79 73.8567C159.554 75.8862 149.59 92.231 148.283 94.3733C147.866 93.6926 147.452 93.0077 147.035 92.3229ZM149.536 96.4279C152.259 91.9596 160.352 78.6883 163.292 73.8609C160.348 69.0334 152.259 55.7622 149.536 51.2938C149.954 50.609 150.371 49.9283 150.785 49.2434L163.292 69.76L175.799 49.2434C176.321 50.1037 176.73 50.7677 177.047 51.2938C173.59 56.9648 165.847 69.6682 163.292 73.8609C165.847 78.0535 173.594 90.7569 177.047 96.4279C176.726 96.954 176.321 97.6222 175.799 98.4783L163.292 77.9617L150.785 98.4783C150.367 97.7934 149.949 97.1086 149.536 96.4279ZM152.037 100.529L163.292 82.0625L174.546 100.529L173.297 102.579L163.292 86.1675L153.286 102.579C152.868 101.894 152.451 101.209 152.037 100.529ZM154.539 104.634L163.292 90.2725L172.044 104.634C171.656 105.268 171.234 105.966 170.796 106.684L163.292 94.3733L155.787 106.684C155.37 105.995 154.952 105.31 154.539 104.634ZM157.04 108.734L163.292 98.4783L169.543 108.734C169.105 109.453 168.679 110.154 168.294 110.785L163.292 102.579L158.289 110.785C157.867 110.096 157.449 109.411 157.04 108.734ZM159.542 112.839L163.292 106.684L167.042 112.839C166.595 113.574 166.181 114.247 165.793 114.89L163.292 110.785L160.79 114.89C160.368 114.201 159.951 113.516 159.542 112.839ZM163.296 114.89L164.544 116.94C164.131 117.621 163.718 118.293 163.296 118.991C162.874 118.297 162.456 117.617 162.047 116.94L163.296 114.89Z" fill="white" fill-opacity="0.1"/>
<path d="M198.311 73.8569C194.753 68.0189 171.43 29.7586 163.291 16.4121C161.946 18.6212 130.593 70.0484 128.271 73.8569C130.593 77.6654 161.942 129.093 163.291 131.302C171.426 117.955 194.753 79.695 198.311 73.8569ZM163.295 20.5171C164.786 22.96 194.302 71.3764 195.813 73.8611C194.302 76.3416 164.786 124.758 163.295 127.205C159.712 121.33 134.318 79.6699 130.777 73.8611C134.318 68.0523 159.712 26.3969 163.295 20.5171Z" fill="white" fill-opacity="0.1"/>
<path d="M97.6113 73.8565C68.5423 26.1709 82.1936 48.5625 52.5901 1.13229e-05C47.8837 7.7214 12.8347 65.2163 7.56879 73.8564C12.8347 82.4966 47.8837 139.991 52.59 147.713C82.1936 99.1546 68.5423 121.542 97.6113 73.8565ZM52.5901 4.10501C57.8602 12.7493 90.3409 66.0348 95.1141 73.8606C90.3409 81.6864 57.856 134.972 52.5901 143.612C52.3144 143.161 11.5234 76.2409 10.066 73.8564C11.5193 71.472 52.3144 4.55183 52.5901 4.10083L52.5901 4.10501Z" fill="white" fill-opacity="0.1"/>
<path d="M92.6094 73.8562C78.979 51.4938 83.8899 59.5535 52.5868 8.20556C48.1477 15.4885 16.3768 67.6089 12.5641 73.8562C16.3726 80.1035 48.1477 132.224 52.5868 139.507C83.8899 88.1631 78.979 96.2228 92.6094 73.8562ZM52.5909 12.3106C54.4075 15.2922 88.329 70.9414 90.1121 73.8604C88.3332 76.7794 54.4117 132.424 52.5909 135.41C40.9191 116.263 26.5871 92.7567 15.0697 73.8604C26.5871 54.9682 40.9191 31.4574 52.5909 12.3106Z" fill="white" fill-opacity="0.1"/>
<path d="M82.6035 73.8567C78.8702 67.7347 56.1278 30.4223 52.5866 24.6177C46.9699 33.8341 28.1654 64.6779 22.5696 73.8567C28.1654 83.0313 46.9657 113.879 52.5865 123.096C56.1278 117.291 78.8702 79.9787 82.6035 73.8567ZM80.1021 73.8567C79.8056 74.3411 77.8387 77.5691 77.6007 77.9617L75.0993 73.8567L77.6007 69.7517C77.8387 70.1442 79.8056 73.3681 80.1021 73.8567ZM76.3521 67.7055C72.0216 74.8088 72.7983 73.5351 72.602 73.8609C72.7983 74.1824 72.0216 72.9129 76.3521 80.0163C75.9428 80.6886 75.5211 81.3776 75.1035 82.0667C74.5731 81.1981 70.6268 74.7211 70.1006 73.8609C70.6268 73.0006 74.5731 66.5237 75.1035 65.6551C75.5252 66.3441 75.9428 67.0331 76.3521 67.7055ZM73.8507 63.6005C72.5728 65.6926 68.8729 71.7645 67.5992 73.8567C68.8771 75.953 72.577 82.0207 73.8507 84.1129C73.4164 84.8228 72.9946 85.516 72.602 86.1633C71.8629 84.9481 65.8328 75.0552 65.0978 73.8525C65.8328 72.6498 71.8629 62.7569 72.602 61.5417C72.9988 62.189 73.4205 62.8822 73.8507 63.5921L73.8507 63.6005ZM71.3492 59.4955C70.4723 60.9362 63.4733 72.4201 62.5964 73.8567C63.4733 75.2932 70.4723 86.7772 71.3492 88.2179C70.7646 89.1784 70.322 89.905 70.1006 90.2683C68.9522 88.3808 61.1724 75.6231 60.095 73.8567C61.1724 72.0861 68.9522 59.3284 70.1006 57.4451C70.322 57.8084 70.7688 58.5392 71.3492 59.4955ZM68.8478 55.3947C66.1501 59.8212 58.1197 72.9964 57.5936 73.8609C58.1197 74.7253 66.1501 87.9005 68.8478 92.3271C67.7871 94.0684 67.6869 94.2313 67.5992 94.3775C66.2921 92.2352 56.3324 75.8946 55.0921 73.8609C56.3324 71.8272 66.2921 55.4865 67.5992 53.3443C67.6911 53.4904 67.7871 53.6575 68.8478 55.3947ZM52.5907 28.7227C53.0167 29.42 53.4259 30.0924 53.8394 30.7731L52.5907 32.8235L51.3421 30.7731C51.7555 30.0966 52.169 29.4159 52.5907 28.7227ZM50.0893 32.8277L52.5907 36.9326L55.0921 32.8277C55.4847 33.4708 55.8939 34.1431 56.3408 34.8781L52.5907 41.0335L48.8407 34.8781C49.2541 34.2016 49.6717 33.5167 50.0893 32.8277ZM47.5879 36.9285L52.5907 45.1343L57.5936 36.9285C57.9819 37.5632 58.4079 38.2606 58.8422 38.9789L52.5907 49.2351L46.3393 38.9789C46.7527 38.3024 47.1703 37.6175 47.5879 36.9285ZM45.0865 41.0335L52.5907 53.3443L60.095 41.0335C60.5335 41.7517 60.9594 42.4491 61.3436 43.0839L52.5907 57.4451L43.8379 43.0839C44.2513 42.4032 44.6689 41.7183 45.0865 41.0335ZM42.5851 45.1343L52.5907 61.5459L62.5964 45.1343L63.845 47.1847L52.5907 65.6509L41.3365 47.1847C41.7499 46.504 42.1675 45.8191 42.5851 45.1343ZM25.0752 73.8567C25.3842 73.3514 27.3427 70.1359 27.5766 69.7517L30.078 73.8567L27.5766 77.9617C27.3344 77.565 25.3842 74.362 25.0752 73.8567ZM28.8252 80.0121C29.6395 78.6758 30.3244 77.5524 32.5752 73.8567C30.3244 70.1609 29.6395 69.0418 28.8252 67.7013C29.247 67.0081 29.6646 66.3274 30.0738 65.6509C30.6 66.5111 34.5463 72.9881 35.0767 73.8567C34.5463 74.7253 30.6 81.2022 30.0738 82.0625C29.6604 81.386 29.2428 80.7011 28.8252 80.0121ZM31.3266 84.1171C32.6045 82.0249 36.3044 75.953 37.5781 73.8609C36.3002 71.7645 32.6003 65.6968 31.3266 63.6046C31.7484 62.9156 32.1618 62.2307 32.5752 61.5542C33.3227 62.782 39.3403 72.654 40.0795 73.865C39.3403 75.0761 33.3227 84.9481 32.5752 86.1758C32.1618 85.4951 31.7442 84.8145 31.3266 84.1254L31.3266 84.1171ZM33.828 88.2179C34.705 86.7772 41.7039 75.2932 42.5809 73.8567C41.7039 72.4201 34.705 60.9362 33.828 59.4955C34.2456 58.8064 34.6632 58.1258 35.0767 57.4451C36.225 59.3326 44.0049 72.0902 45.0823 73.8567C44.0049 75.6273 36.225 88.3849 35.0767 90.2683C34.6632 89.5876 34.2456 88.9027 33.828 88.2179ZM36.3294 92.3229C39.0313 87.8922 47.0576 74.7211 47.5837 73.8567C47.0576 72.9923 39.0271 59.8212 36.3295 55.3905C36.747 54.7056 37.1646 54.0208 37.5781 53.3401C38.8852 55.4824 48.8449 71.8272 50.0851 73.8567C48.849 75.8862 38.8852 92.231 37.5781 94.3733C37.1605 93.6926 36.747 93.0077 36.3294 92.3229ZM38.8309 96.4279C41.5536 91.9596 49.6467 78.6883 52.5866 73.8609C49.6425 69.0334 41.5536 55.7622 38.8309 51.2938C39.2485 50.609 39.6661 49.9283 40.0795 49.2434L52.5866 69.76L65.0936 49.2434C65.6156 50.1037 66.0249 50.7677 66.3422 51.2938C62.8845 56.9648 55.1423 69.6682 52.5866 73.8609C55.1423 78.0535 62.8887 90.7569 66.3422 96.4279C66.0207 96.954 65.6156 97.6222 65.0936 98.4783L52.5866 77.9617L40.0795 98.4783C39.6619 97.7934 39.2443 97.1086 38.8309 96.4279ZM41.3323 100.529L52.5866 82.0625L63.8408 100.529L62.5922 102.579L52.5866 86.1675L42.5809 102.579C42.1633 101.894 41.7457 101.209 41.3323 100.529ZM43.8337 104.634L52.5866 90.2725L61.3394 104.634C60.951 105.268 60.5293 105.966 60.0908 106.684L52.5866 94.3733L45.0823 106.684C44.6647 105.995 44.2471 105.31 43.8337 104.634ZM46.3351 108.734L52.5866 98.4783L58.838 108.734C58.3995 109.453 57.9736 110.154 57.5894 110.785L52.5866 102.579L47.5837 110.785C47.1619 110.096 46.7444 109.411 46.3351 108.734ZM48.8365 112.839L52.5866 106.684L56.3366 112.839C55.8898 113.574 55.4763 114.247 55.088 114.89L52.5866 110.785L50.0851 114.89C49.6634 114.201 49.2458 113.516 48.8365 112.839ZM52.5907 114.89L53.8393 116.94C53.4259 117.621 53.0125 118.293 52.5907 118.991C52.1689 118.297 51.7514 117.617 51.3421 116.94L52.5907 114.89Z" fill="white" fill-opacity="0.1"/>
<path d="M87.6055 73.8569C84.0475 68.0189 60.7247 29.7586 52.5857 16.4121C51.241 18.6212 19.8877 70.0484 17.5659 73.8569C19.8877 77.6654 51.2368 129.093 52.5857 131.302C60.7205 117.955 84.0475 79.695 87.6055 73.8569ZM52.5899 20.5171C54.0807 22.96 83.5965 71.3764 85.1082 73.8611C83.5965 76.3416 54.0807 124.758 52.5898 127.205C49.0069 121.33 23.6127 79.6699 20.0715 73.8611C23.6127 68.0523 49.0069 26.3969 52.5899 20.5171Z" fill="white" fill-opacity="0.1"/>
</svg>
