<svg width="584" height="63" viewBox="0 0 584 63" fill="none" xmlns="http://www.w3.org/2000/svg">
<path d="M274.542 19.1498C267.629 20.6798 262.636 19.1798 256.72 17.6898L274.542 14.1398V9.53983L243.7 15.2898L231.051 13.0798L274.542 4.92982V0.329826L219.925 10.5998H217.687L206.561 8.67982L250.459 0.319824H224.935L194.393 5.97983L182.061 4.07983L201.867 0.319824H175.565L169.884 1.37982C168.833 1.44982 165.481 0.849824 162.817 0.319824H154.037L274.551 25.8398V19.1498H274.542Z" fill="black" fill-opacity="0.1"/>
<path d="M0 4.92959C7.4296 6.99959 22.8777 9.09959 23.367 9.38959L0 9.52959L0.018121 14.0996C0.670476 14.4896 30.6154 10.3596 30.6154 10.3596C30.6154 10.3596 37.6101 11.7896 41.9229 12.3196C38.643 13.5496 1.43156 18.6896 0.0271815 19.3796C0.0271815 20.5696 0.0724839 24.0296 0.0724839 25.8296L47.178 15.1396L62.8255 18.2796L0.0453025 30.3996V35.0096L71.5235 20.2496C78.6904 20.8996 80.3303 21.7196 84.6522 22.4396L0.0453025 39.5996V44.6196L93.4771 24.7496C95.7875 25.0196 104.205 26.7996 109.904 27.5996L0.0634234 49.2096L0.0453025 53.8096L120.206 30.0396C126.675 31.6096 129.474 32.0296 133.135 32.6196L0.018121 58.3896C0.018121 59.2296 0.036242 60.6496 0.0453025 62.9196L138.834 36.3996L274.614 62.9996V57.5796L0 0.32959V4.92959Z" fill="black" fill-opacity="0.1"/>
<path d="M274.588 39.5998L87.5793 0.319824H65.209L274.588 44.6198V39.5998Z" fill="black" fill-opacity="0.1"/>
<path d="M274.588 49.2098H274.606L43.473 0.319824H21.7188L274.588 53.8098V49.2098Z" fill="black" fill-opacity="0.1"/>
<path d="M274.587 30.3998L132.419 0.319824H110.701L274.587 35.0098V30.3998Z" fill="black" fill-opacity="0.1"/>
<path d="M549.157 19.1498C542.244 20.6798 537.251 19.1798 531.335 17.6898L549.157 14.1398V9.53983L518.315 15.2898L505.667 13.0798L549.157 4.92982V0.329826L494.54 10.5998H492.302L481.176 8.67982L525.074 0.319824H499.551L469.008 5.97983L456.676 4.07983L476.483 0.319824H450.18L444.499 1.37982C443.448 1.44982 440.096 0.849824 437.432 0.319824H428.652L549.166 25.8398V19.1498H549.157Z" fill="black" fill-opacity="0.1"/>
<path d="M274.615 4.92959C282.045 6.99959 297.493 9.09959 297.982 9.38959L274.615 9.52959L274.633 14.0996C275.286 14.4896 305.231 10.3596 305.231 10.3596C305.231 10.3596 312.225 11.7896 316.538 12.3196C313.258 13.5496 276.047 18.6896 274.642 19.3796C274.642 20.5696 274.688 24.0296 274.688 25.8296L321.793 15.1396L337.441 18.2796L274.661 30.3996V35.0096L346.139 20.2496C353.306 20.8996 354.946 21.7196 359.267 22.4396L274.661 39.5996V44.6196L368.092 24.7496C370.403 25.0196 378.82 26.7996 384.519 27.5996L274.679 49.2096L274.661 53.8096L394.821 30.0396C401.29 31.6096 404.09 32.0296 407.75 32.6196L274.633 58.3896C274.633 59.2296 274.651 60.6496 274.661 62.9196L413.449 36.3996L549.23 62.9996V57.5796L274.615 0.32959V4.92959Z" fill="black" fill-opacity="0.1"/>
<path d="M549.203 39.5998L362.195 0.319824H339.824L549.203 44.6198V39.5998Z" fill="black" fill-opacity="0.1"/>
<path d="M549.203 49.2098H549.221L318.088 0.319824H296.334L549.203 53.8098V49.2098Z" fill="black" fill-opacity="0.1"/>
<path d="M549.203 30.3998L407.034 0.319824H385.316L549.203 35.0098V30.3998Z" fill="black" fill-opacity="0.1"/>
<path d="M549.229 4.92959C556.658 6.99959 572.106 9.09959 572.596 9.38959L549.229 9.52959L549.247 14.0996C549.899 14.4896 579.844 10.3596 579.844 10.3596C579.844 10.3596 586.839 11.7896 591.151 12.3196C587.872 13.5496 550.66 18.6896 549.256 19.3796C549.256 20.5696 549.301 24.0296 549.301 25.8296L596.407 15.1396L612.054 18.2796L549.274 30.3996V35.0096L620.752 20.2496C627.919 20.8996 629.559 21.7196 633.881 22.4396L549.274 39.5996V44.6196L642.706 24.7496C645.016 25.0196 653.433 26.7996 659.132 27.5996L549.292 49.2096L549.274 53.8096L669.434 30.0396C675.903 31.6096 678.703 32.0296 682.363 32.6196L549.247 58.3896C549.247 59.2296 549.265 60.6496 549.274 62.9196L688.062 36.3996L823.843 62.9996V57.5796L549.229 0.32959V4.92959Z" fill="black" fill-opacity="0.1"/>
<path d="M823.817 49.2098H823.835L592.702 0.319824H570.947L823.817 53.8098V49.2098Z" fill="black" fill-opacity="0.1"/>
</svg>
