<svg width="584" height="64" viewBox="0 0 584 64" fill="none" xmlns="http://www.w3.org/2000/svg">
<path d="M274.542 44.7213C267.629 43.1913 262.636 44.6913 256.72 46.1813L274.542 49.7313V54.3313L243.7 48.5813L231.051 50.7913L274.542 58.9413V63.5413L219.925 53.2713H217.687L206.561 55.1913L250.459 63.5513H224.935L194.393 57.8913L182.061 59.7913L201.867 63.5513H175.565L169.884 62.4913C168.833 62.4213 165.481 63.0213 162.817 63.5513H154.037L274.551 38.0313V44.7213H274.542Z" fill="black" fill-opacity="0.1"/>
<path d="M0 58.9415C7.4296 56.8715 22.8777 54.7715 23.367 54.4815L0 54.3415L0.018121 49.7715C0.670476 49.3815 30.6154 53.5115 30.6154 53.5115C30.6154 53.5115 37.6101 52.0815 41.9229 51.5515C38.643 50.3215 1.43156 45.1815 0.0271815 44.4915C0.0271815 43.3015 0.0724839 39.8415 0.0724839 38.0415L47.178 48.7315L62.8255 45.5915L0.0453025 33.4715V28.8615L71.5235 43.6215C78.6904 42.9715 80.3303 42.1515 84.6522 41.4315L0.0453025 24.2715V19.2515L93.4771 39.1215C95.7875 38.8515 104.205 37.0715 109.904 36.2715L0.0634234 14.6615L0.0453025 10.0615L120.206 33.8315C126.675 32.2615 129.474 31.8415 133.135 31.2515L0.018121 5.4815C0.018121 4.6415 0.036242 3.2215 0.0453025 0.9515L138.834 27.4715L274.614 0.871498V6.29151L0 63.5415V58.9415Z" fill="black" fill-opacity="0.1"/>
<path d="M274.588 24.2713L87.5793 63.5513H65.209L274.588 19.2513V24.2713Z" fill="black" fill-opacity="0.1"/>
<path d="M274.588 14.6613H274.606L43.473 63.5513H21.7188L274.588 10.0613V14.6613Z" fill="black" fill-opacity="0.1"/>
<path d="M274.587 33.4713L132.419 63.5513H110.701L274.587 28.8613V33.4713Z" fill="black" fill-opacity="0.1"/>
<path d="M549.157 44.7213C542.244 43.1913 537.251 44.6913 531.335 46.1813L549.157 49.7313V54.3313L518.315 48.5813L505.667 50.7913L549.157 58.9413V63.5413L494.54 53.2713H492.302L481.176 55.1913L525.074 63.5513H499.551L469.008 57.8913L456.676 59.7913L476.483 63.5513H450.18L444.499 62.4913C443.448 62.4213 440.096 63.0213 437.432 63.5513H428.652L549.166 38.0313V44.7213H549.157Z" fill="black" fill-opacity="0.1"/>
<path d="M274.615 58.9415C282.045 56.8715 297.493 54.7715 297.982 54.4815L274.615 54.3415L274.633 49.7715C275.286 49.3815 305.231 53.5115 305.231 53.5115C305.231 53.5115 312.225 52.0815 316.538 51.5515C313.258 50.3215 276.047 45.1815 274.642 44.4915C274.642 43.3015 274.688 39.8415 274.688 38.0415L321.793 48.7315L337.441 45.5915L274.661 33.4715V28.8615L346.139 43.6215C353.306 42.9715 354.946 42.1515 359.267 41.4315L274.661 24.2715V19.2515L368.092 39.1215C370.403 38.8515 378.82 37.0715 384.519 36.2715L274.679 14.6615L274.661 10.0615L394.821 33.8315C401.29 32.2615 404.09 31.8415 407.75 31.2515L274.633 5.4815C274.633 4.6415 274.651 3.2215 274.661 0.9515L413.449 27.4715L549.23 0.871498V6.29151L274.615 63.5415V58.9415Z" fill="black" fill-opacity="0.1"/>
<path d="M549.203 24.2713L362.195 63.5513H339.824L549.203 19.2513V24.2713Z" fill="black" fill-opacity="0.1"/>
<path d="M549.203 14.6613H549.221L318.088 63.5513H296.334L549.203 10.0613V14.6613Z" fill="black" fill-opacity="0.1"/>
<path d="M549.203 33.4713L407.034 63.5513H385.316L549.203 28.8613V33.4713Z" fill="black" fill-opacity="0.1"/>
<path d="M549.229 58.9415C556.658 56.8715 572.106 54.7715 572.596 54.4815L549.229 54.3415L549.247 49.7715C549.899 49.3815 579.844 53.5115 579.844 53.5115C579.844 53.5115 586.839 52.0815 591.151 51.5515C587.872 50.3215 550.66 45.1815 549.256 44.4915C549.256 43.3015 549.301 39.8415 549.301 38.0415L596.407 48.7315L612.054 45.5915L549.274 33.4715V28.8615L620.752 43.6215C627.919 42.9715 629.559 42.1515 633.881 41.4315L549.274 24.2715V19.2515L642.706 39.1215C645.016 38.8515 653.433 37.0715 659.132 36.2715L549.292 14.6615L549.274 10.0615L669.434 33.8315C675.903 32.2615 678.703 31.8415 682.363 31.2515L549.247 5.4815C549.247 4.6415 549.265 3.2215 549.274 0.9515L688.062 27.4715L823.843 0.871498V6.29151L549.229 63.5415V58.9415Z" fill="black" fill-opacity="0.1"/>
<path d="M823.817 14.6613H823.835L592.702 63.5513H570.947L823.817 10.0613V14.6613Z" fill="black" fill-opacity="0.1"/>
</svg>
