<svg width="2120" height="138" viewBox="0 0 2120 138" fill="none" xmlns="http://www.w3.org/2000/svg">
<path d="M606.03 60.61V56.01L496.76 74.39H525.79L606.03 60.61Z" fill="#F7E3C3"/>
<path d="M479.3 73.76C477.97 73.5 476.29 73.8 476.85 72.93L606.03 50.99V46.39L464.57 70.45H459.63L449.8 68.33L606.06 41.79V37.21L435.42 64.46L303.05 37.21V41.79L473 74.4H482.69C481.24 74.14 479.97 73.9 479.3 73.77V73.76Z" fill="#F7E3C3"/>
<path d="M606.03 69.8V65.21L551.25 74.39H579.42L606.03 69.8Z" fill="#F7E3C3"/>
<path d="M303.02 56.01C303.04 58.43 303.02 58.47 303.02 60.61L374.96 74.4H399.66L303.02 56.01Z" fill="#F7E3C3"/>
<path d="M606.06 4.6V0L435.57 28.84L303.05 0V4.6L434.43 33.69L606.06 4.6Z" fill="#F7E3C3"/>
<path d="M434.43 52.2101L606.06 23.4101V18.8101L435.47 47.5501L303.05 18.8101C303.05 20.5001 303.05 21.4401 303.05 23.4101L434.43 52.2101Z" fill="#F7E3C3"/>
<path d="M303.05 65.21C303.05 67.08 303.05 67.13 303.05 69.81L326.97 74.39H350.98L303.05 65.21Z" fill="#F7E3C3"/>
<path d="M303.05 46.39C303.05 47.19 303.05 49.75 303.05 50.97L425.18 74.39H449.15L303.05 46.39Z" fill="#F7E3C3"/>
<path d="M303.05 9.19995V13.8L434.43 42.88L606.06 13.79V9.19995L434.43 38.29L303.05 9.19995Z" fill="#F7E3C3"/>
<path d="M303.07 28C303.04 30.15 303.05 30.72 303.05 32.6L434.43 61.4L606.06 32.6V28L434.46 56.8L303.07 28Z" fill="#F7E3C3"/>
<path d="M606.01 93.22C598.38 94.75 592.87 93.25 586.34 91.76L606.01 88.21V83.61L571.97 89.36L558.01 87.15L606.01 79V74.4L545.73 84.67H543.26L530.98 82.75L579.43 74.39H551.26L517.55 80.05L503.94 78.15L525.8 74.39H496.77L490.5 75.45C489.34 75.52 485.64 74.92 482.7 74.39H473.01L606.02 99.91V93.22H606.01Z" fill="#EFCE9D"/>
<path d="M303 79C311.2 81.07 328.25 83.17 328.79 83.46L303 83.6L303.02 88.17C303.74 88.56 336.79 84.43 336.79 84.43C336.79 84.43 344.51 85.86 349.27 86.39C345.65 87.62 304.58 92.76 303.03 93.45C303.03 94.64 303.08 98.1 303.08 99.9L355.07 89.21L372.34 92.35L303.05 104.47V109.08L381.94 94.32C389.85 94.97 391.66 95.79 396.43 96.51L303.05 113.67V118.69L406.17 98.82C408.72 99.09 418.01 100.87 424.3 101.67L303.07 123.28L303.05 127.88L435.67 104.11C442.81 105.68 445.9 106.1 449.94 106.69L303.02 132.46C303.02 133.3 303.04 134.72 303.05 136.99L456.23 110.47L606.09 137.07V131.65L303 74.4V79Z" fill="#EFCE9D"/>
<path d="M606.06 113.67L399.66 74.39H374.97L606.06 118.69V113.67Z" fill="#EFCE9D"/>
<path d="M606.06 123.28H606.08L350.98 74.39H326.97L606.06 127.88V123.28Z" fill="#EFCE9D"/>
<path d="M606.06 104.47L449.15 74.39H425.18L606.06 109.08V104.47Z" fill="#EFCE9D"/>
<path d="M303.03 60.61V56.01L193.76 74.39H222.79L303.03 60.61Z" fill="#F7E3C3"/>
<path d="M176.3 73.76C174.97 73.5 173.29 73.8 173.85 72.93L303.03 50.99V46.39L161.57 70.45H156.63L146.8 68.33L303.06 41.79V37.21L132.42 64.46L0.0500488 37.21V41.79L170 74.4H179.69C178.24 74.14 176.97 73.9 176.3 73.77V73.76Z" fill="#F7E3C3"/>
<path d="M303.03 69.8V65.21L248.25 74.39H276.42L303.03 69.8Z" fill="#F7E3C3"/>
<path d="M0.0200195 56.01C0.0400195 58.43 0.0200195 58.47 0.0200195 60.61L71.96 74.4H96.66L0.0200195 56.01Z" fill="#F7E3C3"/>
<path d="M303.06 4.6V0L132.57 28.84L0.0500488 0V4.6L131.43 33.69L303.06 4.6Z" fill="#F7E3C3"/>
<path d="M131.43 52.2101L303.06 23.4101V18.8101L132.47 47.5501L0.0500488 18.8101C0.0500488 20.5001 0.0500488 21.4401 0.0500488 23.4101L131.43 52.2101Z" fill="#F7E3C3"/>
<path d="M0.0500488 65.21C0.0500488 67.08 0.0500488 67.13 0.0500488 69.81L23.97 74.39H47.98L0.0500488 65.21Z" fill="#F7E3C3"/>
<path d="M0.0500488 46.39C0.0500488 47.19 0.0500488 49.75 0.0500488 50.97L122.18 74.39H146.15L0.0500488 46.39Z" fill="#F7E3C3"/>
<path d="M0.0500488 9.19995V13.8L131.43 42.88L303.06 13.79V9.19995L131.43 38.29L0.0500488 9.19995Z" fill="#F7E3C3"/>
<path d="M0.0699398 28C0.0399398 30.15 0.0499398 30.72 0.0499398 32.6L131.43 61.4L303.06 32.6V28L131.46 56.8L0.0699398 28Z" fill="#F7E3C3"/>
<path d="M303.01 93.22C295.38 94.75 289.87 93.25 283.34 91.76L303.01 88.21V83.61L268.97 89.36L255.01 87.15L303.01 79V74.4L242.73 84.67H240.26L227.98 82.75L276.43 74.39H248.26L214.55 80.05L200.94 78.15L222.8 74.39H193.77L187.5 75.45C186.34 75.52 182.64 74.92 179.7 74.39H170.01L303.02 99.91V93.22H303.01Z" fill="#EFCE9D"/>
<path d="M0 79C8.2 81.07 25.25 83.17 25.79 83.46L0 83.6L0.02 88.17C0.74 88.56 33.79 84.43 33.79 84.43C33.79 84.43 41.51 85.86 46.27 86.39C42.65 87.62 1.58 92.76 0.03 93.45C0.03 94.64 0.08 98.1 0.08 99.9L52.07 89.21L69.34 92.35L0.05 104.47V109.08L78.94 94.32C86.85 94.97 88.66 95.79 93.43 96.51L0.05 113.67V118.69L103.17 98.82C105.72 99.09 115.01 100.87 121.3 101.67L0.07 123.28L0.05 127.88L132.67 104.11C139.81 105.68 142.9 106.1 146.94 106.69L0.02 132.46C0.02 133.3 0.04 134.72 0.05 136.99L153.23 110.47L303.09 137.07V131.65L0 74.4V79Z" fill="#EFCE9D"/>
<path d="M303.06 113.67L96.66 74.39H71.97L303.06 118.69V113.67Z" fill="#EFCE9D"/>
<path d="M303.06 123.28H303.08L47.98 74.39H23.97L303.06 127.88V123.28Z" fill="#EFCE9D"/>
<path d="M303.06 104.47L146.15 74.39H122.18L303.06 109.08V104.47Z" fill="#EFCE9D"/>
<path d="M1211.03 60.61V56.01L1101.76 74.39H1130.79L1211.03 60.61Z" fill="#F7E3C3"/>
<path d="M1084.3 73.76C1082.97 73.5 1081.29 73.8 1081.85 72.93L1211.03 50.99V46.39L1069.57 70.45H1064.63L1054.8 68.33L1211.06 41.79V37.21L1040.42 64.46L908.05 37.21V41.79L1078 74.4H1087.69C1086.24 74.14 1084.97 73.9 1084.3 73.77V73.76Z" fill="#F7E3C3"/>
<path d="M1211.03 69.8V65.21L1156.25 74.39H1184.42L1211.03 69.8Z" fill="#F7E3C3"/>
<path d="M908.02 56.01C908.04 58.43 908.02 58.47 908.02 60.61L979.96 74.4H1004.66L908.02 56.01Z" fill="#F7E3C3"/>
<path d="M1211.06 4.6V0L1040.57 28.84L908.05 0V4.6L1039.43 33.69L1211.06 4.6Z" fill="#F7E3C3"/>
<path d="M1039.43 52.2101L1211.06 23.4101V18.8101L1040.47 47.5501L908.05 18.8101C908.05 20.5001 908.05 21.4401 908.05 23.4101L1039.43 52.2101Z" fill="#F7E3C3"/>
<path d="M908.05 65.21C908.05 67.08 908.05 67.13 908.05 69.81L931.97 74.39H955.98L908.05 65.21Z" fill="#F7E3C3"/>
<path d="M908.05 46.39C908.05 47.19 908.05 49.75 908.05 50.97L1030.18 74.39H1054.15L908.05 46.39Z" fill="#F7E3C3"/>
<path d="M908.05 9.19995V13.8L1039.43 42.88L1211.06 13.79V9.19995L1039.43 38.29L908.05 9.19995Z" fill="#F7E3C3"/>
<path d="M908.07 28C908.04 30.15 908.05 30.72 908.05 32.6L1039.43 61.4L1211.06 32.6V28L1039.46 56.8L908.07 28Z" fill="#F7E3C3"/>
<path d="M1211.01 93.22C1203.38 94.75 1197.87 93.25 1191.34 91.76L1211.01 88.21V83.61L1176.97 89.36L1163.01 87.15L1211.01 79V74.4L1150.73 84.67H1148.26L1135.98 82.75L1184.43 74.39H1156.26L1122.55 80.05L1108.94 78.15L1130.8 74.39H1101.77L1095.5 75.45C1094.34 75.52 1090.64 74.92 1087.7 74.39H1078.01L1211.02 99.91V93.22H1211.01Z" fill="#EFCE9D"/>
<path d="M908 79C916.2 81.07 933.25 83.17 933.79 83.46L908 83.6L908.02 88.17C908.74 88.56 941.79 84.43 941.79 84.43C941.79 84.43 949.51 85.86 954.27 86.39C950.65 87.62 909.58 92.76 908.03 93.45C908.03 94.64 908.08 98.1 908.08 99.9L960.07 89.21L977.34 92.35L908.05 104.47V109.08L986.94 94.32C994.85 94.97 996.66 95.79 1001.43 96.51L908.05 113.67V118.69L1011.17 98.82C1013.72 99.09 1023.01 100.87 1029.3 101.67L908.07 123.28L908.05 127.88L1040.67 104.11C1047.81 105.68 1050.9 106.1 1054.94 106.69L908.02 132.46C908.02 133.3 908.04 134.72 908.05 136.99L1061.23 110.47L1211.09 137.07V131.65L908 74.4V79Z" fill="#EFCE9D"/>
<path d="M1211.06 113.67L1004.66 74.39H979.97L1211.06 118.69V113.67Z" fill="#EFCE9D"/>
<path d="M1211.06 123.28H1211.08L955.98 74.39H931.97L1211.06 127.88V123.28Z" fill="#EFCE9D"/>
<path d="M1211.06 104.47L1054.15 74.39H1030.18L1211.06 109.08V104.47Z" fill="#EFCE9D"/>
<path d="M908.03 60.61V56.01L798.76 74.39H827.79L908.03 60.61Z" fill="#F7E3C3"/>
<path d="M781.3 73.76C779.97 73.5 778.29 73.8 778.85 72.93L908.03 50.99V46.39L766.57 70.45H761.63L751.8 68.33L908.06 41.79V37.21L737.42 64.46L605.05 37.21V41.79L775 74.4H784.69C783.24 74.14 781.97 73.9 781.3 73.77V73.76Z" fill="#F7E3C3"/>
<path d="M908.03 69.8V65.21L853.25 74.39H881.42L908.03 69.8Z" fill="#F7E3C3"/>
<path d="M605.02 56.01C605.04 58.43 605.02 58.47 605.02 60.61L676.96 74.4H701.66L605.02 56.01Z" fill="#F7E3C3"/>
<path d="M908.06 4.6V0L737.57 28.84L605.05 0V4.6L736.43 33.69L908.06 4.6Z" fill="#F7E3C3"/>
<path d="M736.43 52.2101L908.06 23.4101V18.8101L737.47 47.5501L605.05 18.8101C605.05 20.5001 605.05 21.4401 605.05 23.4101L736.43 52.2101Z" fill="#F7E3C3"/>
<path d="M605.05 65.21C605.05 67.08 605.05 67.13 605.05 69.81L628.97 74.39H652.98L605.05 65.21Z" fill="#F7E3C3"/>
<path d="M605.05 46.39C605.05 47.19 605.05 49.75 605.05 50.97L727.18 74.39H751.15L605.05 46.39Z" fill="#F7E3C3"/>
<path d="M605.05 9.19995V13.8L736.43 42.88L908.06 13.79V9.19995L736.43 38.29L605.05 9.19995Z" fill="#F7E3C3"/>
<path d="M605.07 28C605.04 30.15 605.05 30.72 605.05 32.6L736.43 61.4L908.06 32.6V28L736.46 56.8L605.07 28Z" fill="#F7E3C3"/>
<path d="M908.01 93.22C900.38 94.75 894.87 93.25 888.34 91.76L908.01 88.21V83.61L873.97 89.36L860.01 87.15L908.01 79V74.4L847.73 84.67H845.26L832.98 82.75L881.43 74.39H853.26L819.55 80.05L805.94 78.15L827.8 74.39H798.77L792.5 75.45C791.34 75.52 787.64 74.92 784.7 74.39H775.01L908.02 99.91V93.22H908.01Z" fill="#EFCE9D"/>
<path d="M605 79C613.2 81.07 630.25 83.17 630.79 83.46L605 83.6L605.02 88.17C605.74 88.56 638.79 84.43 638.79 84.43C638.79 84.43 646.51 85.86 651.27 86.39C647.65 87.62 606.58 92.76 605.03 93.45C605.03 94.64 605.08 98.1 605.08 99.9L657.07 89.21L674.34 92.35L605.05 104.47V109.08L683.94 94.32C691.85 94.97 693.66 95.79 698.43 96.51L605.05 113.67V118.69L708.17 98.82C710.72 99.09 720.01 100.87 726.3 101.67L605.07 123.28L605.05 127.88L737.67 104.11C744.81 105.68 747.9 106.1 751.94 106.69L605.02 132.46C605.02 133.3 605.04 134.72 605.05 136.99L758.23 110.47L908.09 137.07V131.65L605 74.4V79Z" fill="#EFCE9D"/>
<path d="M908.06 113.67L701.66 74.39H676.97L908.06 118.69V113.67Z" fill="#EFCE9D"/>
<path d="M908.06 123.28H908.08L652.98 74.39H628.97L908.06 127.88V123.28Z" fill="#EFCE9D"/>
<path d="M908.06 104.47L751.15 74.39H727.18L908.06 109.08V104.47Z" fill="#EFCE9D"/>
<path d="M1816.03 60.61V56.01L1706.76 74.39H1735.79L1816.03 60.61Z" fill="#F7E3C3"/>
<path d="M1689.3 73.76C1687.97 73.5 1686.29 73.8 1686.85 72.93L1816.03 50.99V46.39L1674.57 70.45H1669.63L1659.8 68.33L1816.06 41.79V37.21L1645.42 64.46L1513.05 37.21V41.79L1683 74.4H1692.69C1691.24 74.14 1689.97 73.9 1689.3 73.77V73.76Z" fill="#F7E3C3"/>
<path d="M1816.03 69.8V65.21L1761.25 74.39H1789.42L1816.03 69.8Z" fill="#F7E3C3"/>
<path d="M1513.02 56.01C1513.04 58.43 1513.02 58.47 1513.02 60.61L1584.96 74.4H1609.66L1513.02 56.01Z" fill="#F7E3C3"/>
<path d="M1816.06 4.6V0L1645.57 28.84L1513.05 0V4.6L1644.43 33.69L1816.06 4.6Z" fill="#F7E3C3"/>
<path d="M1644.43 52.2101L1816.06 23.4101V18.8101L1645.47 47.5501L1513.05 18.8101C1513.05 20.5001 1513.05 21.4401 1513.05 23.4101L1644.43 52.2101Z" fill="#F7E3C3"/>
<path d="M1513.05 65.21C1513.05 67.08 1513.05 67.13 1513.05 69.81L1536.97 74.39H1560.98L1513.05 65.21Z" fill="#F7E3C3"/>
<path d="M1513.05 46.39C1513.05 47.19 1513.05 49.75 1513.05 50.97L1635.18 74.39H1659.15L1513.05 46.39Z" fill="#F7E3C3"/>
<path d="M1513.05 9.19995V13.8L1644.43 42.88L1816.06 13.79V9.19995L1644.43 38.29L1513.05 9.19995Z" fill="#F7E3C3"/>
<path d="M1513.07 28C1513.04 30.15 1513.05 30.72 1513.05 32.6L1644.43 61.4L1816.06 32.6V28L1644.46 56.8L1513.07 28Z" fill="#F7E3C3"/>
<path d="M1816.01 93.22C1808.38 94.75 1802.87 93.25 1796.34 91.76L1816.01 88.21V83.61L1781.97 89.36L1768.01 87.15L1816.01 79V74.4L1755.73 84.67H1753.26L1740.98 82.75L1789.43 74.39H1761.26L1727.55 80.05L1713.94 78.15L1735.8 74.39H1706.77L1700.5 75.45C1699.34 75.52 1695.64 74.92 1692.7 74.39H1683.01L1816.02 99.91V93.22H1816.01Z" fill="#EFCE9D"/>
<path d="M1513 79C1521.2 81.07 1538.25 83.17 1538.79 83.46L1513 83.6L1513.02 88.17C1513.74 88.56 1546.79 84.43 1546.79 84.43C1546.79 84.43 1554.51 85.86 1559.27 86.39C1555.65 87.62 1514.58 92.76 1513.03 93.45C1513.03 94.64 1513.08 98.1 1513.08 99.9L1565.07 89.21L1582.34 92.35L1513.05 104.47V109.08L1591.94 94.32C1599.85 94.97 1601.66 95.79 1606.43 96.51L1513.05 113.67V118.69L1616.17 98.82C1618.72 99.09 1628.01 100.87 1634.3 101.67L1513.07 123.28L1513.05 127.88L1645.67 104.11C1652.81 105.68 1655.9 106.1 1659.94 106.69L1513.02 132.46C1513.02 133.3 1513.04 134.72 1513.05 136.99L1666.23 110.47L1816.09 137.07V131.65L1513 74.4V79Z" fill="#EFCE9D"/>
<path d="M1816.06 113.67L1609.66 74.39H1584.97L1816.06 118.69V113.67Z" fill="#EFCE9D"/>
<path d="M1816.06 123.28H1816.08L1560.98 74.39H1536.97L1816.06 127.88V123.28Z" fill="#EFCE9D"/>
<path d="M1816.06 104.47L1659.15 74.39H1635.18L1816.06 109.08V104.47Z" fill="#EFCE9D"/>
<path d="M2119.03 60.61V56.01L2009.76 74.39H2038.79L2119.03 60.61Z" fill="#F7E3C3"/>
<path d="M1992.3 73.76C1990.97 73.5 1989.29 73.8 1989.85 72.93L2119.03 50.99V46.39L1977.57 70.45H1972.63L1962.8 68.33L2119.06 41.79V37.21L1948.42 64.46L1816.05 37.21V41.79L1986 74.4H1995.69C1994.24 74.14 1992.97 73.9 1992.3 73.77V73.76Z" fill="#F7E3C3"/>
<path d="M2119.03 69.8V65.21L2064.25 74.39H2092.42L2119.03 69.8Z" fill="#F7E3C3"/>
<path d="M1816.02 56.01C1816.04 58.43 1816.02 58.47 1816.02 60.61L1887.96 74.4H1912.66L1816.02 56.01Z" fill="#F7E3C3"/>
<path d="M2119.06 4.6V0L1948.57 28.84L1816.05 0V4.6L1947.43 33.69L2119.06 4.6Z" fill="#F7E3C3"/>
<path d="M1947.43 52.2101L2119.06 23.4101V18.8101L1948.47 47.5501L1816.05 18.8101C1816.05 20.5001 1816.05 21.4401 1816.05 23.4101L1947.43 52.2101Z" fill="#F7E3C3"/>
<path d="M1816.05 65.21C1816.05 67.08 1816.05 67.13 1816.05 69.81L1839.97 74.39H1863.98L1816.05 65.21Z" fill="#F7E3C3"/>
<path d="M1816.05 46.39C1816.05 47.19 1816.05 49.75 1816.05 50.97L1938.18 74.39H1962.15L1816.05 46.39Z" fill="#F7E3C3"/>
<path d="M1816.05 9.19995V13.8L1947.43 42.88L2119.06 13.79V9.19995L1947.43 38.29L1816.05 9.19995Z" fill="#F7E3C3"/>
<path d="M1816.07 28C1816.04 30.15 1816.05 30.72 1816.05 32.6L1947.43 61.4L2119.06 32.6V28L1947.46 56.8L1816.07 28Z" fill="#F7E3C3"/>
<path d="M2119.01 93.22C2111.38 94.75 2105.87 93.25 2099.34 91.76L2119.01 88.21V83.61L2084.97 89.36L2071.01 87.15L2119.01 79V74.4L2058.73 84.67H2056.26L2043.98 82.75L2092.43 74.39H2064.26L2030.55 80.05L2016.94 78.15L2038.8 74.39H2009.77L2003.5 75.45C2002.34 75.52 1998.64 74.92 1995.7 74.39H1986.01L2119.02 99.91V93.22H2119.01Z" fill="#EFCE9D"/>
<path d="M1816 79C1824.2 81.07 1841.25 83.17 1841.79 83.46L1816 83.6L1816.02 88.17C1816.74 88.56 1849.79 84.43 1849.79 84.43C1849.79 84.43 1857.51 85.86 1862.27 86.39C1858.65 87.62 1817.58 92.76 1816.03 93.45C1816.03 94.64 1816.08 98.1 1816.08 99.9L1868.07 89.21L1885.34 92.35L1816.05 104.47V109.08L1894.94 94.32C1902.85 94.97 1904.66 95.79 1909.43 96.51L1816.05 113.67V118.69L1919.17 98.82C1921.72 99.09 1931.01 100.87 1937.3 101.67L1816.07 123.28L1816.05 127.88L1948.67 104.11C1955.81 105.68 1958.9 106.1 1962.94 106.69L1816.02 132.46C1816.02 133.3 1816.04 134.72 1816.05 136.99L1969.23 110.47L2119.09 137.07V131.65L1816 74.4V79Z" fill="#EFCE9D"/>
<path d="M2119.06 113.67L1912.66 74.39H1887.97L2119.06 118.69V113.67Z" fill="#EFCE9D"/>
<path d="M2119.06 123.28H2119.08L1863.98 74.39H1839.97L2119.06 127.88V123.28Z" fill="#EFCE9D"/>
<path d="M2119.06 104.47L1962.15 74.39H1938.18L2119.06 109.08V104.47Z" fill="#EFCE9D"/>
<path d="M1513.03 60.61V56.01L1403.76 74.39H1432.79L1513.03 60.61Z" fill="#F7E3C3"/>
<path d="M1386.3 73.76C1384.97 73.5 1383.29 73.8 1383.85 72.93L1513.03 50.99V46.39L1371.57 70.45H1366.63L1356.8 68.33L1513.06 41.79V37.21L1342.42 64.46L1210.05 37.21V41.79L1380 74.4H1389.69C1388.24 74.14 1386.97 73.9 1386.3 73.77V73.76Z" fill="#F7E3C3"/>
<path d="M1513.03 69.8V65.21L1458.25 74.39H1486.42L1513.03 69.8Z" fill="#F7E3C3"/>
<path d="M1210.02 56.01C1210.04 58.43 1210.02 58.47 1210.02 60.61L1281.96 74.4H1306.66L1210.02 56.01Z" fill="#F7E3C3"/>
<path d="M1513.06 4.6V0L1342.57 28.84L1210.05 0V4.6L1341.43 33.69L1513.06 4.6Z" fill="#F7E3C3"/>
<path d="M1341.43 52.2101L1513.06 23.4101V18.8101L1342.47 47.5501L1210.05 18.8101C1210.05 20.5001 1210.05 21.4401 1210.05 23.4101L1341.43 52.2101Z" fill="#F7E3C3"/>
<path d="M1210.05 65.21C1210.05 67.08 1210.05 67.13 1210.05 69.81L1233.97 74.39H1257.98L1210.05 65.21Z" fill="#F7E3C3"/>
<path d="M1210.05 46.39C1210.05 47.19 1210.05 49.75 1210.05 50.97L1332.18 74.39H1356.15L1210.05 46.39Z" fill="#F7E3C3"/>
<path d="M1210.05 9.19995V13.8L1341.43 42.88L1513.06 13.79V9.19995L1341.43 38.29L1210.05 9.19995Z" fill="#F7E3C3"/>
<path d="M1210.07 28C1210.04 30.15 1210.05 30.72 1210.05 32.6L1341.43 61.4L1513.06 32.6V28L1341.46 56.8L1210.07 28Z" fill="#F7E3C3"/>
<path d="M1513.01 93.22C1505.38 94.75 1499.87 93.25 1493.34 91.76L1513.01 88.21V83.61L1478.97 89.36L1465.01 87.15L1513.01 79V74.4L1452.73 84.67H1450.26L1437.98 82.75L1486.43 74.39H1458.26L1424.55 80.05L1410.94 78.15L1432.8 74.39H1403.77L1397.5 75.45C1396.34 75.52 1392.64 74.92 1389.7 74.39H1380.01L1513.02 99.91V93.22H1513.01Z" fill="#EFCE9D"/>
<path d="M1210 79C1218.2 81.07 1235.25 83.17 1235.79 83.46L1210 83.6L1210.02 88.17C1210.74 88.56 1243.79 84.43 1243.79 84.43C1243.79 84.43 1251.51 85.86 1256.27 86.39C1252.65 87.62 1211.58 92.76 1210.03 93.45C1210.03 94.64 1210.08 98.1 1210.08 99.9L1262.07 89.21L1279.34 92.35L1210.05 104.47V109.08L1288.94 94.32C1296.85 94.97 1298.66 95.79 1303.43 96.51L1210.05 113.67V118.69L1313.17 98.82C1315.72 99.09 1325.01 100.87 1331.3 101.67L1210.07 123.28L1210.05 127.88L1342.67 104.11C1349.81 105.68 1352.9 106.1 1356.94 106.69L1210.02 132.46C1210.02 133.3 1210.04 134.72 1210.05 136.99L1363.23 110.47L1513.09 137.07V131.65L1210 74.4V79Z" fill="#EFCE9D"/>
<path d="M1513.06 113.67L1306.66 74.39H1281.97L1513.06 118.69V113.67Z" fill="#EFCE9D"/>
<path d="M1513.06 123.28H1513.08L1257.98 74.39H1233.97L1513.06 127.88V123.28Z" fill="#EFCE9D"/>
<path d="M1513.06 104.47L1356.15 74.39H1332.18L1513.06 109.08V104.47Z" fill="#EFCE9D"/>
</svg>
