<svg width="1210" height="138" viewBox="0 0 1210 138" fill="none" xmlns="http://www.w3.org/2000/svg">
<path d="M302.85 41.79L146.7 68.33L156.53 70.45H161.47L302.83 46.39V50.99L173.74 72.93C173.17 73.8 174.85 73.5 176.18 73.76C178.23 74.16 185.64 75.56 187.36 75.45L302.83 56.01V60.61L200.79 78.16L214.39 80.06L302.82 65.22V69.82L227.82 82.77L240.09 84.69H242.56L302.8 74.42V79.02L254.83 87.17L268.78 89.38L302.8 83.63V88.23L283.15 91.78C289.67 93.27 295.17 94.77 302.8 93.24V99.93L0.0500488 41.79V37.21L132.32 64.46L302.85 37.21V41.81V41.79Z" fill="#E8D5DF"/>
<path d="M0 74.3999V78.9999C8.19 81.0699 25.23 83.1699 25.77 83.4599L0 83.5999L0.02 88.1699C0.74 88.5599 33.76 84.4299 33.76 84.4299C33.76 84.4299 41.48 85.8599 46.23 86.3899C42.61 87.6199 1.58 92.7599 0.02 93.4499C0.02 94.6399 0.07 98.0999 0.07 99.8999L52.02 89.2099L69.28 92.3499L0.05 104.47V109.08L78.89 94.3199C86.8 94.9699 88.61 95.7899 93.37 96.5099L0.05 113.67V118.69L103.1 98.8199C105.65 99.0899 114.93 100.87 121.22 101.67L0.07 123.28L0.05 127.88L132.58 104.11C139.71 105.68 142.8 106.1 146.84 106.69L0.02 132.46C0.02 133.3 0.04 134.72 0.05 136.99L153.12 110.47L302.87 137.07V131.65L0 74.3999Z" fill="#E8D5DF"/>
<path d="M302.85 113.67V118.69L0.0200195 60.6098C0.0200195 58.4698 0.0400195 58.4298 0.0200195 56.0098L302.84 113.67H302.85Z" fill="#E8D5DF"/>
<path d="M302.85 4.6L131.34 33.69L0.0500488 4.6V0L132.48 28.84L302.85 0V4.6Z" fill="#E8D5DF"/>
<path d="M302.85 18.8101V23.4101L131.34 52.2101L0.0500488 23.4101C0.0500488 21.4401 0.0500488 20.5001 0.0500488 18.8101L132.38 47.5501L302.85 18.8101Z" fill="#E8D5DF"/>
<path d="M302.85 123.28V127.88L0.0500488 69.81C0.0500488 67.14 0.0500488 67.08 0.0500488 65.21L302.87 123.28H302.85Z" fill="#E8D5DF"/>
<path d="M302.85 109.08L0.0500488 50.9799C0.0500488 49.7599 0.0500488 47.1999 0.0500488 46.3999L302.85 104.48V109.09V109.08Z" fill="#E8D5DF"/>
<path d="M0.0500488 9.2002L131.34 38.2902L302.85 9.2002V13.8002L131.34 42.8902L0.0500488 13.8002" fill="#E8D5DF"/>
<path d="M302.85 28V32.6L131.34 61.4L0.0500488 32.6C0.0500488 30.72 0.0500488 30.15 0.0700488 28L131.36 56.8L302.87 28H302.85Z" fill="#E8D5DF"/>
<path d="M605.22 41.79L449.07 68.33L458.9 70.45H463.84L605.2 46.39V50.99L476.11 72.93C475.54 73.8 477.22 73.5 478.55 73.76C480.6 74.16 488.01 75.56 489.73 75.45L605.2 56.01V60.61L503.16 78.16L516.76 80.06L605.19 65.22V69.82L530.19 82.77L542.46 84.69H544.93L605.17 74.42V79.02L557.2 87.17L571.15 89.38L605.17 83.63V88.23L585.52 91.78C592.04 93.27 597.54 94.77 605.17 93.24V99.93L302.42 41.81V37.23L434.69 64.48L605.22 37.23V41.83V41.81V41.79Z" fill="#E8D5DF"/>
<path d="M302.38 74.3999V78.9999C310.57 81.0699 327.61 83.1699 328.15 83.4599L302.38 83.5999L302.4 88.1699C303.12 88.5599 336.14 84.4299 336.14 84.4299C336.14 84.4299 343.86 85.8599 348.61 86.3899C344.99 87.6199 303.96 92.7599 302.4 93.4499C302.4 94.6399 302.45 98.0999 302.45 99.8999L354.4 89.2099L371.66 92.3499L302.42 104.46V109.07L381.26 94.3099C389.17 94.9599 390.98 95.7799 395.74 96.4999L302.42 113.67V118.69L405.47 98.8199C408.02 99.0899 417.3 100.87 423.59 101.67L302.45 123.28L302.43 127.88L434.96 104.11C442.09 105.68 445.18 106.1 449.22 106.69L302.4 132.47C302.4 133.31 302.42 134.73 302.43 137L455.5 110.48L605.25 137.08V131.66L302.38 74.4099V74.3999Z" fill="#E8D5DF"/>
<path d="M605.22 113.67V118.69L302.4 60.6098C302.4 58.4698 302.42 58.4298 302.4 56.0098L605.22 113.67Z" fill="#E8D5DF"/>
<path d="M605.22 4.6L433.71 33.69L302.43 4.6V0L434.86 28.84L605.22 0V4.6Z" fill="#E8D5DF"/>
<path d="M605.22 18.8101V23.4101L433.71 52.2101L302.42 23.4101C302.42 21.4401 302.42 20.5001 302.42 18.8101L434.75 47.5501L605.22 18.8101Z" fill="#E8D5DF"/>
<path d="M605.22 123.28V127.88L302.42 69.81C302.42 67.14 302.42 67.08 302.42 65.21L605.24 123.28H605.22Z" fill="#E8D5DF"/>
<path d="M605.22 109.08L302.42 50.9799C302.42 49.7599 302.42 47.1999 302.42 46.3999L605.22 104.48V109.09V109.08Z" fill="#E8D5DF"/>
<path d="M302.43 9.2002L433.72 38.2902L605.23 9.2002V13.8002L433.72 42.8902L302.43 13.8002" fill="#E8D5DF"/>
<path d="M605.22 28V32.6L433.71 61.4L302.42 32.6C302.42 30.72 302.42 30.15 302.44 28L433.73 56.8L605.24 28H605.22Z" fill="#E8D5DF"/>
<path d="M907.6 41.79L751.45 68.33L761.28 70.45H766.22L907.58 46.39V50.99L778.49 72.93C777.92 73.8 779.6 73.5 780.93 73.76C782.98 74.16 790.39 75.56 792.11 75.45L907.58 56.01V60.61L805.54 78.16L819.14 80.06L907.57 65.22V69.82L832.57 82.77L844.84 84.69H847.31L907.55 74.42V79.02L859.58 87.17L873.53 89.38L907.55 83.63V88.23L887.9 91.78C894.42 93.27 899.92 94.77 907.55 93.24V99.93L604.8 41.81V37.23L737.07 64.48L907.6 37.23V41.83V41.81V41.79Z" fill="#E8D5DF"/>
<path d="M604.75 74.3999V78.9999C612.94 81.0699 629.98 83.1699 630.52 83.4599L604.75 83.5999L604.77 88.1699C605.49 88.5599 638.51 84.4299 638.51 84.4299C638.51 84.4299 646.23 85.8599 650.98 86.3899C647.36 87.6199 606.33 92.7599 604.77 93.4499C604.77 94.6399 604.82 98.0999 604.82 99.8999L656.77 89.2099L674.03 92.3499L604.79 104.46V109.07L683.63 94.3099C691.54 94.9599 693.35 95.7799 698.11 96.4999L604.79 113.67V118.69L707.84 98.8199C710.39 99.0899 719.67 100.87 725.96 101.67L604.82 123.28L604.8 127.88L737.33 104.11C744.46 105.68 747.55 106.1 751.59 106.69L604.77 132.47C604.77 133.31 604.79 134.73 604.8 137L757.87 110.48L907.62 137.08V131.66L604.75 74.4099V74.3999Z" fill="#E8D5DF"/>
<path d="M907.6 113.67V118.69L604.78 60.6098C604.78 58.4698 604.8 58.4298 604.78 56.0098L907.6 113.67Z" fill="#E8D5DF"/>
<path d="M907.6 4.6L736.09 33.69L604.8 4.6V0L737.23 28.84L907.6 0V4.6Z" fill="#E8D5DF"/>
<path d="M907.6 18.8101V23.4101L736.09 52.2101L604.8 23.4101C604.8 21.4401 604.8 20.5001 604.8 18.8101L737.13 47.5501L907.6 18.8101Z" fill="#E8D5DF"/>
<path d="M907.6 123.28V127.88L604.8 69.81C604.8 67.14 604.8 67.08 604.8 65.21L907.62 123.28H907.6Z" fill="#E8D5DF"/>
<path d="M907.6 109.08L604.8 50.9799C604.8 49.7599 604.8 47.1999 604.8 46.3999L907.6 104.48V109.09V109.08Z" fill="#E8D5DF"/>
<path d="M604.8 9.2002L736.09 38.2902L907.6 9.2002V13.8002L736.09 42.8902L604.8 13.8002" fill="#E8D5DF"/>
<path d="M907.6 28V32.6L736.09 61.4L604.8 32.6C604.8 30.72 604.8 30.15 604.82 28L736.11 56.8L907.62 28H907.6Z" fill="#E8D5DF"/>
<path d="M1209.98 41.79L1053.83 68.33L1063.66 70.45H1068.6L1209.96 46.39V50.99L1080.87 72.93C1080.3 73.8 1081.98 73.5 1083.31 73.76C1085.36 74.16 1092.77 75.56 1094.49 75.45L1209.96 56.01V60.61L1107.92 78.16L1121.52 80.06L1209.95 65.22V69.82L1134.95 82.77L1147.22 84.69H1149.69L1209.93 74.42V79.02L1161.96 87.17L1175.91 89.38L1209.93 83.63V88.23L1190.28 91.78C1196.8 93.27 1202.3 94.77 1209.93 93.24V99.93L907.18 41.81V37.23L1039.45 64.48L1209.98 37.23V41.83V41.81V41.79Z" fill="#E8D5DF"/>
<path d="M907.13 74.3999V78.9999C915.32 81.0699 932.36 83.1699 932.9 83.4599L907.13 83.5999L907.15 88.1699C907.87 88.5599 940.89 84.4299 940.89 84.4299C940.89 84.4299 948.61 85.8599 953.36 86.3899C949.74 87.6199 908.71 92.7599 907.15 93.4499C907.15 94.6399 907.2 98.0999 907.2 99.8999L959.15 89.2099L976.41 92.3499L907.17 104.46V109.07L986.01 94.3099C993.92 94.9599 995.73 95.7799 1000.49 96.4999L907.17 113.67V118.69L1010.22 98.8199C1012.77 99.0899 1022.05 100.87 1028.34 101.67L907.2 123.28L907.18 127.88L1039.71 104.11C1046.84 105.68 1049.93 106.1 1053.97 106.69L907.15 132.47C907.15 133.31 907.17 134.73 907.18 137L1060.25 110.48L1210 137.08V131.66L907.13 74.4099V74.3999Z" fill="#E8D5DF"/>
<path d="M1209.98 113.67V118.69L907.16 60.6098C907.16 58.4698 907.18 58.4298 907.16 56.0098L1209.98 113.67Z" fill="#E8D5DF"/>
<path d="M1209.98 4.6L1038.47 33.69L907.18 4.6V0L1039.61 28.84L1209.98 0V4.6Z" fill="#E8D5DF"/>
<path d="M1209.98 18.8101V23.4101L1038.47 52.2101L907.18 23.4101C907.18 21.4401 907.18 20.5001 907.18 18.8101L1039.51 47.5501L1209.98 18.8101Z" fill="#E8D5DF"/>
<path d="M1209.98 123.28V127.88L907.18 69.81C907.18 67.14 907.18 67.08 907.18 65.21L1210 123.28H1209.98Z" fill="#E8D5DF"/>
<path d="M1209.98 109.08L907.18 50.9799C907.18 49.7599 907.18 47.1999 907.18 46.3999L1209.98 104.48V109.09V109.08Z" fill="#E8D5DF"/>
<path d="M907.18 9.2002L1038.47 38.2902L1209.98 9.2002V13.8002L1038.47 42.8902L907.18 13.8002" fill="#E8D5DF"/>
<path d="M1209.98 28V32.6L1038.47 61.4L907.18 32.6C907.18 30.72 907.18 30.15 907.2 28L1038.49 56.8L1210 28H1209.98Z" fill="#E8D5DF"/>
</svg>
