<svg width="178" height="30" viewBox="0 0 178 30" fill="none" xmlns="http://www.w3.org/2000/svg">
<g clip-path="url(#clip0_4175_33166)">
<path d="M158.424 0L158.059 0.6845L169.934 16.9945L160.559 29.7758C160.123 30.1534 159.073 29.9056 158.413 29.9764L167.918 16.9119L157.186 2.37215L156.785 2.21873C156.691 2.738 155.854 3.13926 156.137 3.68214L165.937 16.9945L156.443 29.9056L156.16 29.9882L153.448 29.8584L144.002 17.0063L156.432 0H158.413H158.424ZM154.816 4.87411L154.002 6.21951L161.962 16.9827L154.002 27.7459L154.816 29.0913L163.932 16.9709L154.816 4.85051V4.87411ZM152.835 7.55311L152.021 8.8985L157.882 16.8765L152.009 24.9607L152.929 26.2943L159.863 16.8647L152.835 7.54131V7.55311ZM151.019 10.2321L149.981 11.6129L153.896 16.9945L150.016 22.2935L150.936 23.6271L155.877 16.9945L151.019 10.2321ZM151.903 17.0889L148.955 13.0409C148.825 13.0409 147.976 14.1267 148 14.3037C148.07 14.8112 149.957 16.546 149.898 16.9827C149.568 17.7498 148.295 18.7884 148.035 19.4965C147.953 19.7207 148.011 19.7443 148.094 19.9449C148.165 20.1101 148.802 21.1015 149.12 20.8301C150.146 19.9921 150.889 18.0448 151.891 17.0889H151.903ZM147.068 15.7199C145.771 16.5932 145.842 17.3367 146.986 18.2809C147.115 17.9622 147.905 17.2541 147.905 17.0063C147.905 16.7231 147.056 16.0976 147.068 15.7317V15.7199Z" fill="#7EB7DC"/>
<path d="M77.8557 0.6845L89.731 16.9945L80.3558 29.7758C79.9195 30.1534 78.8699 29.9056 78.2095 29.9646L87.7499 16.9945L76.9949 2.36035L76.5939 2.20692C76.4996 2.7262 75.6623 3.12746 75.9453 3.67034L85.7451 16.9827L76.2519 29.8938L75.9689 29.9764L73.2565 29.8466L63.8105 16.9945L76.2283 0H78.2095L77.8439 0.6845H77.8557ZM74.6127 4.87411L73.799 6.21951L81.7591 16.9827L73.799 27.7459L74.6127 29.0913L83.7285 16.9709L74.6127 4.85051V4.87411ZM72.6315 7.55311L71.8178 8.8985L77.6788 16.8765L71.806 25.2085C72.1009 25.4445 72.3957 26.3061 72.9028 26.3061L79.778 16.9827L72.6315 7.54131V7.55311ZM69.8131 11.6955L73.6929 16.9945L69.8131 22.2935L70.7329 23.6271L75.6859 16.8765L70.6386 10.2321L69.8131 11.6955ZM71.6999 17.0889L68.7517 13.0409C68.622 13.0409 67.7729 14.1267 67.7965 14.3037C67.8673 14.8112 69.7541 16.546 69.6951 16.9827C69.3649 17.7498 68.0913 18.7884 67.8319 19.4965C67.7493 19.7207 67.8083 19.7443 67.8908 19.9449C67.9616 20.1101 68.5984 21.1015 68.9168 20.8301C69.9428 19.9921 70.6857 18.0448 71.6881 17.0889H71.6999ZM66.8649 18.2691C66.8649 17.8678 67.7729 17.2187 67.7257 16.8883C67.7022 16.7585 66.8767 15.7199 66.7705 15.7199C65.6266 16.6522 65.5677 17.4076 66.8531 18.2809L66.8649 18.2691Z" fill="#7EB7DC"/>
<path d="M136.431 0L124.98 15.4721L124.072 14.5043V14.0205L134.45 0H132.468L122.999 12.7931C122.621 12.8521 122.751 12.6869 122.645 12.5452C122.468 12.3446 121.867 11.6129 121.914 11.4359L130.299 0H128.317L120.746 10.1023L119.933 8.75688L126.336 0H124.355L118.777 7.43509L117.952 6.21951V5.97168L122.362 0H120.381L116.867 4.7561L115.911 3.37529L118.4 0H116.418L114.885 1.94729C114.249 1.29819 113.6 0.755311 114.249 0H111.359L133.624 29.9646L135.523 29.8938L125.971 16.8647L138.412 0H136.431Z" fill="#7EB7DC"/>
<path d="M56.2276 0L44.7768 15.4721L43.8688 14.5043V14.0205L54.2464 0H52.2652L42.7956 12.7931C42.4183 12.8521 42.548 12.6869 42.4419 12.5452C42.265 12.3446 41.6635 11.6129 41.7107 11.4359L50.0954 0H48.1142L40.5432 10.1023L39.7295 8.75688L46.133 0H44.1518L38.5738 7.43509L37.7601 6.08969L42.1706 0H40.1894L36.6752 4.7561L35.72 3.37529L38.1965 0H36.2153L34.6822 1.94729C34.01 1.26279 33.3496 0.743509 34.2341 0H31.168L53.1851 29.764C53.5742 30.1062 54.7417 29.9646 55.3313 29.8938L45.7792 16.8647L58.2088 0H56.2276Z" fill="#7EB7DC"/>
<path d="M97.3132 0H95.332L107.75 16.9945L98.2095 29.9646C98.8699 29.9056 99.9194 30.1534 100.356 29.7758L108.67 18.3989C109.2 18.7293 109.861 19.5083 109.672 19.9803L102.361 29.9646L104.306 29.941L110.91 21.1959C111.17 21.668 111.889 22.1282 111.641 22.6593L106.311 29.9646L108.257 29.941L112.88 23.8749L113.788 25.2203L110.273 29.9646C110.863 29.9056 111.913 30.1062 112.349 29.8466C112.608 29.6932 114.66 26.4005 114.955 26.5539C114.955 26.9315 115.792 27.5452 115.792 27.8285C115.792 28.1117 114.094 29.882 114.236 29.9528H116.099L116.936 29.2211C117.043 29.2801 117.137 30.0118 117.561 29.9646L119.46 29.8938L97.325 0H97.3132Z" fill="#7EB7DC"/>
<path d="M105.428 0H103.258L125.263 29.764C125.582 30.059 126.643 30 127.138 29.9646C127.386 29.941 127.457 30.0354 127.398 29.7876L105.428 0Z" fill="#7EB7DC"/>
<path d="M89.3886 0H87.2188L99.7663 16.9945L90.2849 29.7876C90.1316 30.1416 91.7 29.8938 92.0066 29.9764L92.2896 29.8938L101.783 16.9001L89.3886 0Z" fill="#7EB7DC"/>
<path d="M161.479 0H159.498L171.916 16.9945L162.375 29.9056C162.965 29.9764 164.133 30.1062 164.522 29.7758L173.909 16.8883L161.479 0Z" fill="#7EB7DC"/>
<path d="M81.2761 0H79.2949L91.7127 16.9945L82.1724 29.9056C82.762 29.9764 83.9295 30.1062 84.3186 29.7758L93.7057 16.8883L81.2761 0Z" fill="#7EB7DC"/>
<path d="M165.44 0H163.459L175.9 16.8765L166.348 29.9056L168.53 29.882L177.999 16.9945L165.44 0Z" fill="#7EB7DC"/>
<path d="M152.469 0L139.922 16.9945L149.391 29.882L151.573 29.9056L142.021 16.8765L154.451 0H152.469Z" fill="#7EB7DC"/>
<path d="M146.336 0H144.355L131.938 16.9945L141.313 29.764C141.631 30.059 142.693 30 143.188 29.9646C143.435 29.941 143.506 30.0354 143.447 29.7876L133.942 16.8883L146.336 0Z" fill="#7EB7DC"/>
<path d="M85.239 0H83.2578L95.6992 16.8765L95.5577 17.3721L86.3357 29.7758C86.1824 30.1298 87.7509 29.882 88.0575 29.9646L88.3405 29.882L97.8101 16.9827L85.2508 0H85.239Z" fill="#7EB7DC"/>
<path d="M93.3523 0H91.3711L103.789 16.9945L94.2485 29.9056C94.8382 29.9764 96.0056 30.1062 96.3948 29.7758L105.77 16.9945L93.3523 0Z" fill="#7EB7DC"/>
<path d="M101.288 0H99.3066L121.312 29.764C121.701 30.1062 122.869 29.9646 123.458 29.8938L101.288 0Z" fill="#7EB7DC"/>
<path d="M72.2655 0L59.8359 16.8765L69.223 29.764C69.6121 30.1062 70.7796 29.9646 71.3693 29.8938L61.8171 16.8647L74.2467 0H72.2655Z" fill="#7EB7DC"/>
<path d="M68.3034 0L55.7559 16.9945L65.2255 29.8938C65.367 30.0236 66.6406 30 66.959 29.9646C67.2066 29.941 67.2774 30.0354 67.2184 29.7876L57.737 16.9945L70.2845 0H68.3034Z" fill="#7EB7DC"/>
<path d="M109.389 0H107.408L129.661 29.9646C129.968 29.882 131.536 30.1298 131.383 29.7758L109.401 0H109.389Z" fill="#7EB7DC"/>
<path d="M66.1332 0H64.152L51.7578 16.8883L61.251 29.882C61.3925 30.0118 62.6661 29.9882 62.9845 29.9528C63.2322 29.9292 63.3029 30.0236 63.244 29.7758L53.739 16.8765L66.145 0H66.1332Z" fill="#7EB7DC"/>
<path d="M62.1724 0H60.1912L47.7734 16.9945L57.1487 29.764C57.5378 30.1062 58.7053 29.9646 59.295 29.8938L49.7546 16.9827L62.1724 0Z" fill="#7EB7DC"/>
<path d="M29.1863 0H27.2051L49.458 29.9646C49.7646 29.882 51.3331 30.1298 51.1798 29.7758L29.1981 0H29.1863Z" fill="#7EB7DC"/>
<path d="M22.1704 0L0 29.9056C0.589638 29.9764 1.75712 30.1062 2.14628 29.7758L24.1516 0H22.1704Z" fill="#7EB7DC"/>
<path d="M148.506 0L135.959 16.9945L145.429 29.8938C145.57 30.0236 146.844 30 147.162 29.9646C147.41 29.941 147.481 30.0354 147.422 29.7876L137.94 16.9945L150.488 0H148.506Z" fill="#7EB7DC"/>
<path d="M142.374 0H140.392L127.975 16.9945L137.35 29.764C137.739 30.1062 138.907 29.9646 139.496 29.8938L129.956 16.9827L142.374 0Z" fill="#7EB7DC"/>
<path d="M25.7678 11.5775L39.2823 29.9646H37.419L36.6643 29.2329L35.9096 29.941H34.0463C33.9048 29.882 35.5912 28.0999 35.6265 27.8049C35.6501 27.6396 34.8011 26.5421 34.6713 26.5421L32.1477 29.8348L30.0722 29.9528L33.6336 25.1259C33.4921 24.8426 32.9732 23.8631 32.5015 23.8631L28.0556 29.9292L26.1098 29.9528L31.6052 22.2698L30.7915 21.0661L25.6617 27.7695L20.6144 21.0661L19.6945 22.5295L25.2017 29.9528L23.1262 29.8348L18.6214 23.8631L17.7015 25.1967L21.2276 29.941L19.0931 29.9174L16.7227 26.5303C16.5459 26.4477 15.6496 27.6278 15.6496 27.8049C15.6496 28.1353 17.277 29.8112 17.0765 29.9292L15.1307 29.9056L14.7416 29.1975L13.9043 29.9056H12.041L25.7324 11.5303L25.7678 11.5775ZM25.7678 22.4115L22.7017 18.4461L21.7111 19.5909L25.6852 24.9606L29.5297 19.8741C29.742 19.3076 28.9518 18.9182 28.8457 18.3871L25.7796 22.3997L25.7678 22.4115ZM25.7678 19.6145L27.5721 16.8883L25.6852 14.3863L23.6805 17.0063C23.8456 17.2187 25.5437 19.7443 25.7796 19.6263L25.7678 19.6145Z" fill="#7EB7DC"/>
<path d="M25.7666 0.731689L4.13867 29.9646L6.14344 29.882L25.6841 3.5405L45.2129 29.882L47.2176 29.9646L25.7666 0.731689Z" fill="#7EB7DC"/>
<path d="M25.7671 6.21957L8.11328 29.9646L10.1181 29.8938L25.7671 8.88676L41.1094 29.764C41.5458 30.1417 42.5953 29.8938 43.2557 29.9528L25.7671 6.20776V6.21957Z" fill="#7EB7DC"/>
</g>
<defs>
<clipPath id="clip0_4175_33166">
<rect width="178" height="30" fill="white"/>
</clipPath>
</defs>
</svg>
