<svg width="640" height="32" viewBox="0 0 640 32" fill="none" xmlns="http://www.w3.org/2000/svg">
<path d="M-0.89769 0.00603138L1.44286 0.00603174L16.0989 18.1293L4.95367 31.8359L1.75351 31.9741L1.42158 31.8854L-9.77901 18.1084L1.77904 3.90617C2.11949 3.33224 1.1322 2.90179 1.0173 2.34612L0.544937 2.51308L-12.1153 18.0223L-0.90195 31.9637C-1.67646 31.8959 -2.91908 32.1593 -3.42974 31.755L-14.4941 18.1267L-0.47639 0.728663L-0.901944 0.00342005L-0.89769 0.00342005L-0.89769 0.00603138ZM3.35359 5.20274L-7.40867 18.1293L3.35359 31.0532L4.3196 29.6158L-5.06812 18.1293L4.3196 6.64279L3.35359 5.20535L3.35359 5.20274ZM5.68989 8.05936L-2.59991 18.0067L5.58349 28.0636L6.6644 26.6365L-0.263616 18.0093L6.65164 9.49941L5.68563 8.06197L5.68989 8.05936ZM7.82191 10.9186L2.09395 18.1267L7.92829 25.2043L9.0092 23.7773L4.4345 18.1267L9.05176 12.3899L7.82617 10.9186L7.82191 10.9186ZM6.79207 18.2284C7.96234 19.2537 8.85175 21.3277 10.0561 22.2199C10.4433 22.5068 11.1838 21.4529 11.2732 21.2729C11.3795 21.0616 11.4434 21.0381 11.3455 20.7929C11.0348 20.0389 9.53689 18.9224 9.14113 18.1084C9.07304 17.6388 11.3072 15.7918 11.3838 15.2492C11.4093 15.0692 10.4135 13.9083 10.2603 13.9083L6.78781 18.2258L6.79207 18.2258L6.79207 18.2284ZM12.4987 16.7649C12.5073 17.164 11.5115 17.8241 11.5115 18.1293C11.5115 18.3928 12.4519 19.1598 12.6009 19.4937C13.9499 18.4971 14.0265 17.6936 12.4987 16.7675L12.4987 16.7649Z" fill="#6BB9E0"/>
<path d="M309.993 0.00537322L312.334 0.00537356L311.947 0.621048L325.943 18.1182L314.862 31.7543C314.351 32.1561 313.104 31.8952 312.334 31.9604L323.59 18.126L310.896 2.50981L310.423 2.34285C310.308 2.89852 309.321 3.32897 309.661 3.9029L321.249 18.126L310.1 31.8352L306.623 31.9422L295.333 18.1286L309.989 0.00537322L309.993 0.00537322ZM298.725 19.4904C300.248 18.5669 300.18 17.7582 298.827 16.7642C298.699 16.7642 297.725 17.8782 297.703 18.0164C297.652 18.3686 298.712 19.0626 298.72 19.4878L298.725 19.4878L298.725 19.4904ZM301.061 22.3496L304.657 18.1286L301.163 13.9102C301.01 13.9102 300.014 15.0711 300.04 15.2511C300.12 15.8225 302.316 17.5703 302.316 18.1312L300.095 20.9148L301.061 22.3522L301.061 22.3496ZM303.823 11.0484C303.376 10.8449 302.457 12.1154 302.44 12.358L307.014 18.1182L302.44 23.7688L303.512 25.2089C303.955 25.2689 303.802 25.0915 303.933 24.9506C305.963 22.7827 307.614 20.3696 309.372 18.126L303.827 11.0458L303.823 11.0458L303.823 11.0484ZM305.742 8.0587C305.593 8.65089 304.572 9.11265 304.985 9.74919L311.827 18.126L304.98 26.5054L304.98 27.0272L306.057 28.0655L314.168 18.126L305.742 8.0587ZM308.083 5.20208C307.968 5.75775 306.98 6.1882 307.321 6.76214L316.538 18.0191L307.321 29.3647C307.095 29.8682 307.874 30.6978 308.504 31.0552L318.909 18.1286L308.555 5.36904L308.083 5.20208Z" fill="#6BB9E0"/>
<path d="M215.372 0.00537322L217.925 0.00537359L217.376 0.915838L231.458 18.1286L220.283 31.8822L217.713 31.8978L228.981 18.006L216.325 2.47328C216.083 2.25415 215.993 2.39763 215.827 2.55416C215.495 2.8646 214.895 3.55594 215.036 3.9003L226.628 18.126L215.564 31.7543C215.04 32.1691 212.891 31.9004 212.006 31.9422L200.75 18.1078L215.376 0.00537322L215.372 0.00537322ZM204.103 16.7642C204.112 17.1634 203.116 17.8234 203.116 18.1286C203.116 18.3921 204.057 19.1591 204.206 19.493C205.555 18.4965 205.631 17.693 204.103 16.7668L204.103 16.7642ZM206.444 13.905L205.478 15.3424L207.699 18.126L205.478 20.9096L206.444 22.347L210.053 18.1156C210.078 17.886 207.338 14.4685 206.916 14.072C206.784 13.9467 206.938 13.8398 206.444 13.905ZM208.78 11.0484L207.963 12.5093L212.406 18.1286L207.963 23.748L208.091 24.2619L209.095 25.2089L214.866 18.1286L209.253 11.2153L208.78 11.0484ZM211.542 8.0587C210.985 8.34305 210.189 9.23787 210.304 9.65006L217.206 18.1286L210.359 26.508C210.01 26.7246 211.091 28.0472 211.227 28.0681C211.657 28.1359 211.521 27.9429 211.648 27.8098C214.542 24.7289 216.764 21.2331 219.577 18.1078L211.542 8.06131L211.542 8.0587ZM213.878 5.20208C213.317 5.48905 212.529 6.35516 212.695 6.75952L221.947 18.1286L212.695 29.4977C212.529 29.9021 213.321 30.7682 213.878 31.0552L224.283 18.1286L213.878 5.20208Z" fill="#6BB9E0"/>
<path d="M93.7348 0.00586135L96.0753 0.00586169L110.731 18.1291L99.5819 31.8357L96.3817 31.974L96.0498 31.8853L84.8492 18.1082L96.4073 3.906C96.7477 3.33207 95.7604 2.90162 95.6455 2.34594L95.1731 2.51291L82.4789 18.1291L93.7348 31.9635C92.9603 31.8957 91.7176 32.1592 91.207 31.7574L80.1426 18.1291L94.1603 0.731104L93.7348 0.00586135ZM97.9818 5.20257L87.2195 18.1291L97.9818 31.0557L98.9478 29.6182L89.5601 18.1317L98.9478 6.64523L97.9818 5.20778L97.9818 5.20257ZM100.322 8.05919L91.8964 18.1265L100.007 28.066C100.607 28.066 100.952 27.1529 101.297 26.8973L94.3688 18.0065L101.284 9.49663L100.318 8.05919L100.322 8.05919ZM102.663 10.9184L96.7137 18.0091L102.561 25.2068L103.642 23.7797L99.067 18.1291L103.642 12.4785L102.663 10.9184ZM101.425 18.2282C102.595 19.2535 103.484 21.3275 104.689 22.2197C105.076 22.5067 105.816 21.4527 105.906 21.2727C106.012 21.0614 106.076 21.0379 105.978 20.7927C105.667 20.0388 104.169 18.9222 103.774 18.1082C103.706 17.6387 105.94 15.7916 106.016 15.249C106.042 15.069 105.046 13.9081 104.893 13.9081L101.42 18.2256L101.425 18.2256L101.425 18.2282ZM107.131 19.4909C108.655 18.5674 108.587 17.7587 107.233 16.7647C107.106 16.7647 106.131 17.8787 106.11 18.0169C106.059 18.3691 107.118 19.0631 107.127 19.4883L107.131 19.4883L107.131 19.4909Z" fill="#6BB9E0"/>
<path d="M165.824 0.00521933C164.782 0.795682 165.556 1.35396 166.356 2.08181L168.165 0.00521974L170.505 0.00522016L167.629 3.63144C167.731 3.93667 168.382 4.94105 168.91 4.94105L172.846 0.00260923L175.186 0.00260965L170.122 6.33675C169.876 6.93938 170.799 7.362 170.935 7.92811L177.523 0.00261006L180.076 0.00261051L172.514 9.22467L172.514 9.74643L173.591 10.7847L182.417 3.56488e-06L184.757 3.97774e-06L174.854 12.0813L174.854 12.6031L175.931 13.6414L187.098 4.3906e-06L189.438 4.80346e-06L177.191 15.071C177.025 15.4753 177.816 16.3415 178.374 16.6284L191.775 5.21558e-06L194.115 5.62844e-06L179.459 18.1233L190.702 31.8977C190.013 31.9707 188.634 32.1168 188.174 31.7542L162.207 0.00521869L165.824 0.00521933Z" fill="#6BB9E0"/>
<path d="M25.0459 0.00488315L38.553 16.5055L39.6296 15.4672L39.6296 14.9454L27.3864 0.00749085L29.727 0.00749119L40.8935 13.6488C41.3361 13.7088 41.1829 13.5314 41.3148 13.3906C41.5191 13.174 42.2298 12.3914 42.1745 12.2088L32.2803 0.00749156L34.6209 0.0074919L43.549 10.7896L44.515 9.35217L36.9614 0.00749224L39.302 0.00749258L45.8895 7.93299L46.8683 6.63643L46.8683 6.37555L41.6425 0.0101003L43.9831 0.0101006L48.128 5.07898L49.2514 3.60501L46.3236 0.010101L48.6642 0.0101013L50.4728 2.0867C51.2302 1.39798 51.9962 0.816217 51.2175 0.0101017L54.6219 0.0101022L28.3525 31.973L26.114 31.8999L37.3827 18.0081L22.7139 0.00488281L25.0544 0.00488315L25.0459 0.00488315Z" fill="#6BB9E0"/>
<path d="M119.674 0.00554138L133.181 16.5061L134.258 15.4678L134.258 14.9461L122.015 0.00814909L124.355 0.00814945L135.522 13.6495C135.964 13.7095 135.811 13.5321 135.943 13.3912C136.147 13.1747 136.858 12.3921 136.803 12.2094L126.909 0.00814984L129.249 0.0081502L138.177 10.7903L139.143 9.35283L131.59 0.00815056L133.93 0.00815091L140.518 7.93365L141.484 6.49621L136.267 0.0107586L138.607 0.010759L142.752 5.07964L143.875 3.60567L140.948 0.0107593L143.288 0.0107597L145.097 2.08736C145.897 1.36211 146.671 0.803832 145.629 0.0107601L149.242 0.0107606L123.266 31.7545C122.802 32.1197 121.423 31.971 120.738 31.898L132.007 18.0062L117.338 0.00292969L119.678 0.00293005L119.674 0.00293004L119.674 0.00554138Z" fill="#6BB9E0"/>
<path d="M260.45 0.00602986C259.407 0.796493 260.182 1.35477 260.982 2.08262L262.79 0.00603021L265.131 0.00603057C264.778 0.843452 262.297 2.91743 262.203 3.60094C262.173 3.80703 263.084 4.94447 263.535 4.94447L267.472 0.00603093L269.812 0.00603129L264.595 6.49148L265.561 7.92892L272.148 0.00342031L274.489 0.00342067L267.144 9.09504L267.144 9.74985L268.216 10.7882L277.042 0.00342106L279.383 0.00342141L269.48 12.0847L269.48 12.6065L270.557 13.6448L281.723 0.00342177L284.064 0.00342213L271.821 14.9413C271.54 15.5101 272.378 15.9979 272.689 16.504L286.404 0.00342249L288.745 0.00342284L274.089 18.1267L285.332 31.8985C284.643 31.9715 283.264 32.1176 282.804 31.755L256.837 0.0060293L260.45 0.00602986Z" fill="#6BB9E0"/>
<path d="M71.1901 0.00537489L73.5306 0.00537523L58.8745 18.1286L70.1262 31.963C69.3517 31.8952 68.109 32.1587 67.5984 31.7569L57.7936 19.6235C57.1638 19.9783 56.385 20.8105 56.6106 21.314L65.2323 31.963L62.93 31.9422L55.1382 22.6079C54.8275 23.1114 53.9892 23.6019 54.27 24.168L60.5555 31.963L58.2532 31.9422L52.7976 25.4671L51.7252 26.9072L55.8786 31.963C55.1892 31.9056 53.9381 32.1117 53.4317 31.8352C53.1295 31.6708 50.6996 28.1646 50.3549 28.3264C50.3634 28.7255 49.3676 29.3855 49.3676 29.6908C49.3676 29.996 51.3677 31.8874 51.1975 31.963L48.9974 31.9448L48.0101 31.1856C47.8867 31.243 47.7803 32.0309 47.2697 31.9735L45.0312 31.9004L71.1858 0.00537489L71.1901 0.00537489Z" fill="#6BB9E0"/>
<path d="M240.245 0.00537143L266.4 31.8978L264.204 31.9422L263.217 31.183C263.093 31.2404 262.987 32.0282 262.476 31.9709L260.45 31.9604C260.216 31.8326 262.136 30.0403 262.136 29.6882C262.136 29.5134 261.14 28.3264 260.982 28.3264L258.008 31.8326L255.561 31.9604L259.727 26.8968L258.646 25.4698L253.331 31.8352L250.884 31.963L257.386 24.0401L256.408 22.4801L248.505 31.9422L246.203 31.963L255.033 21.0609L254.067 19.6235L243.828 31.9422L241.526 31.963L252.718 18.1286L237.913 0.00537109L240.254 0.00537143L240.245 0.00537143Z" fill="#6BB9E0"/>
<path d="M61.6204 0.00586314L64.1737 0.00586351L38.2064 31.7548C37.8276 32.0653 36.5722 32.0105 35.9935 31.9635C35.6999 31.94 35.6233 32.034 35.6828 31.7731L61.6204 0.00586314Z" fill="#6BB9E0"/>
<path d="M196.438 0.00488494L198.991 0.00488531L184.186 18.1281L195.37 31.7721C195.553 32.153 193.706 31.8817 193.344 31.973L193.012 31.8843L181.812 18.0212L196.438 0.00749229L196.438 0.00488494Z" fill="#6BB9E0"/>
<path d="M80.5452 0.00537322L83.0986 0.00537359L68.2935 18.1286L79.4771 31.7726C79.6601 32.1535 77.8132 31.8822 77.4514 31.9735L77.1195 31.8848L65.9189 18.0217L80.5452 0.00798057L80.5452 0.00537322Z" fill="#6BB9E0"/>
<path d="M206.012 0.00603155L208.352 0.0060319L193.696 18.1293L204.948 31.8985C204.258 31.9715 202.88 32.1176 202.42 31.755L191.343 18.0067L206.012 0.00342021L206.012 0.00603155Z" fill="#6BB9E0"/>
<path d="M90.1142 0.00603155L92.4547 0.0060319L77.7986 18.1293L89.0503 31.8985C88.3609 31.9715 86.9821 32.1176 86.5225 31.755L75.4453 18.0067L90.1142 0.00342021L90.1142 0.00603155Z" fill="#6BB9E0"/>
<path d="M320.842 0.00488318L335.09 17.4133L335.09 18.7125L324.213 31.9417L321.906 31.9625L333.098 18.1281L318.289 0.00488281L320.842 0.00488318Z" fill="#6BB9E0"/>
<path d="M6.11984 0.00537143L20.9249 18.1286L9.75407 31.8821L7.18372 31.8978L18.4524 18.0086L3.7793 0.00537109L6.11984 0.00537143Z" fill="#6BB9E0"/>
<path d="M13.3516 0.00488281L15.6921 0.00488315L30.3482 18.1281L19.2838 31.7538C18.905 32.0643 17.6497 32.0095 17.0709 31.9625C16.7773 31.9391 16.7007 32.033 16.7602 31.7721L27.9778 18.0186L13.3516 0.00488281Z" fill="#6BB9E0"/>
<path d="M201.334 0.00586153L203.674 0.00586186L189.001 18.0117L189.167 18.5465L200.053 31.7731C200.236 32.154 198.389 31.8826 198.027 31.974L197.695 31.8853L186.524 18.1291L201.329 0.00586152L201.334 0.00586153Z" fill="#6BB9E0"/>
<path d="M315.953 0.00537143L330.758 18.1286L319.587 31.8821C319.421 32.0152 317.924 31.9917 317.541 31.963C317.247 31.9395 317.17 32.0335 317.23 31.7726L328.116 18.546L328.281 18.0112L313.608 0.00537109L315.953 0.00537143Z" fill="#6BB9E0"/>
<path d="M85.4401 0.00586153L87.7807 0.00586186L73.1076 18.0117L73.2735 18.5465L84.1592 31.7731C84.3422 32.154 82.4953 31.8826 82.1336 31.974L81.8016 31.8853L70.6309 18.1291L85.4359 0.00586152L85.4401 0.00586153Z" fill="#6BB9E0"/>
<path d="M300.637 0.00603155L302.977 0.0060319L288.308 18.0093L299.573 31.8985C298.883 31.9715 297.505 32.1176 297.045 31.755L285.968 18.0067L300.637 0.00342021L300.637 0.00603155Z" fill="#6BB9E0"/>
<path d="M75.868 0.00603154L78.2085 0.0060319L63.5525 18.1293L74.8041 31.8985C74.1147 31.9715 72.7359 32.1176 72.2763 31.755L61.2119 18.1267L75.868 0.00342021L75.868 0.00603154Z" fill="#6BB9E0"/>
<path d="M228.551 0.0060293L230.891 0.00602966L245.547 18.1293L234.483 31.755C234.019 32.1202 232.64 31.9715 231.955 31.8985L243.207 18.1267L228.551 0.00341797L228.551 0.0060293Z" fill="#6BB9E0"/>
<path d="M66.512 0.00554502L68.8525 0.00554538L42.8852 31.7545C42.4214 32.1197 41.0426 31.971 40.3574 31.898L66.512 0.00293368L66.512 0.00554502Z" fill="#6BB9E0"/>
<path d="M295.966 0.00488496L298.306 0.0048853L283.501 18.1281L294.685 31.7721C294.868 32.153 293.021 31.8817 292.659 31.973L292.327 31.8843L281.156 18.1281L295.961 0.00488496L295.966 0.00488496Z" fill="#6BB9E0"/>
<path d="M223.877 0.00488281L226.218 0.00488315L240.844 18.0186L229.639 31.8817C229.473 32.0147 227.975 31.9912 227.592 31.9625C227.299 31.9391 227.222 32.033 227.282 31.7721L238.499 18.0186L223.873 0.00488281L223.877 0.00488281Z" fill="#6BB9E0"/>
<path d="M221.322 0.00488315L236.127 18.1281L224.96 31.8817C224.794 32.0147 223.296 31.9912 222.913 31.9625C222.62 31.9391 222.543 32.033 222.603 31.7721L233.79 18.1281L218.985 0.00488281L221.326 0.00488315L221.322 0.00488315Z" fill="#6BB9E0"/>
<path d="M242.8 0.00537109L245.14 0.00537143L271.078 31.7726C271.261 32.1535 269.414 31.8822 269.052 31.9735L242.8 0.00537109Z" fill="#6BB9E0"/>
<path d="M100.751 0.00602966L115.42 18.0093L104.343 31.755C103.879 32.1202 102.5 31.9715 101.815 31.8985L113.084 18.0067L98.415 0.00341797L100.756 0.00341833L100.751 0.00341833L100.751 0.00602966Z" fill="#6BB9E0"/>
<path d="M291.071 0.00537322L293.411 0.00537356L278.785 18.0191L290.003 31.7726C290.185 32.1535 288.339 31.8822 287.977 31.9735L287.645 31.8848L276.444 18.0217L291.071 0.00798057L291.071 0.00537322Z" fill="#6BB9E0"/>
<path d="M105.424 0.00488315L120.229 18.1281L109.063 31.8817C108.897 32.0147 107.399 31.9912 107.016 31.9625C106.722 31.9391 106.646 32.033 106.705 31.7721L117.893 18.1281L103.088 0.00488281L105.428 0.00488315L105.424 0.00488315Z" fill="#6BB9E0"/>
<path d="M247.479 0.00488281L249.819 0.00488315L275.757 31.7721C275.94 32.153 274.093 31.8817 273.731 31.973L247.479 0.00488281Z" fill="#6BB9E0"/>
<path d="M56.9447 0.00586314L59.2853 0.00586348L33.0286 31.9739C32.6711 31.8826 30.8199 32.154 31.0029 31.7731L56.9404 0.00586314L56.9447 0.00586314Z" fill="#6BB9E0"/>
<path d="M107.98 0.00488281L110.32 0.00488315L124.947 18.0186L113.742 31.8817C113.576 32.0147 112.078 31.9912 111.695 31.9625C111.401 31.9391 111.325 32.033 111.384 31.7721L122.602 18.0186L107.976 0.00488281L107.98 0.00488281Z" fill="#6BB9E0"/>
<path d="M112.657 0.00554102L114.998 0.00554138L129.654 18.1288L118.589 31.7545C118.126 32.1197 116.747 31.971 116.062 31.898L127.313 18.1262L112.657 0.00292969L112.657 0.00554102Z" fill="#6BB9E0"/>
<path d="M210.687 0.00554326L213.028 0.00554362L198.372 18.1288L209.623 31.898C208.934 31.971 207.555 32.1171 207.096 31.7545L196.031 18.1262L210.687 0.00293193L210.687 0.00554326Z" fill="#6BB9E0"/>
<path d="M254.494 0.00585971L280.648 31.8983C279.959 31.9713 278.58 32.1174 278.121 31.7548L252.153 0.00585938L254.494 0.00585971Z" fill="#6BB9E0"/>
<path d="M151.574 0.00488658L153.914 0.00488692L127.657 31.973C127.3 31.8817 125.449 32.153 125.632 31.7721L151.569 0.00488658L151.574 0.00488658Z" fill="#6BB9E0"/>
<path d="M159.862 0.00488315L186.017 31.8973C185.327 31.9704 183.948 32.1165 183.489 31.7538L157.521 0.00488281L159.862 0.00488315Z" fill="#6BB9E0"/>
<path d="M305.318 0.00554326L307.659 0.00554362L293.003 18.1288L304.254 31.898C303.565 31.971 302.186 32.1171 301.727 31.7545L290.662 18.1262L305.318 0.00293193L305.318 0.00554326Z" fill="#6BB9E0"/>
<path d="M235.572 0.00602966L250.24 18.0093L239.163 31.755C238.699 32.1202 237.321 31.9715 236.636 31.8985L247.904 18.0067L233.235 0.00341797L235.576 0.00341833L235.572 0.00341833L235.572 0.00602966Z" fill="#6BB9E0"/>
<path d="M10.7972 0.00585971L25.6022 18.1291L14.4357 31.8826C14.2697 32.0157 12.7718 31.9922 12.3888 31.9635C12.0952 31.94 12.0186 32.034 12.0781 31.7731L23.266 18.1291L8.46094 0.00585938L10.8015 0.00585971L10.7972 0.00585971Z" fill="#6BB9E0"/>
<path d="M18.0264 0.0060293L20.3669 0.00602966L35.023 18.1293L23.9586 31.755C23.4947 32.1202 22.1159 31.9715 21.4308 31.8985L32.6824 18.1267L18.0264 0.00341797L18.0264 0.0060293Z" fill="#6BB9E0"/>
<path d="M155.617 12.3477L171.775 31.9631L169.575 31.9449L168.588 31.1857L168.124 31.9423L165.822 31.9631C165.588 31.8353 167.507 30.0431 167.507 29.6909C167.507 29.5004 166.456 28.2326 166.247 28.3265L163.447 31.9423L160.928 31.9631L165.094 26.8995L164.013 25.4725L158.698 31.8379L156.251 31.9657L162.754 24.0429L161.673 22.4828L155.719 29.6283L149.664 22.4828L148.698 23.7715L155.187 31.9631L152.885 31.9423L147.638 25.4673C147.089 25.4673 146.472 26.5082 146.306 26.8108L150.51 31.9631L148.064 31.8353L145.089 28.3291C144.936 28.3291 143.94 29.49 143.965 29.67C144.008 29.9779 146 31.8875 145.834 31.9631L143.634 31.9449L142.748 31.1883L141.863 31.9449L139.663 31.9631L155.613 12.3477L155.617 12.3477ZM152 19.621C151.864 20.1871 150.94 20.6097 151.187 21.2123L155.719 26.6334L160.405 20.9097L159.23 19.6836L155.617 23.9072L152 19.621ZM155.617 20.9201C155.889 21.0454 157.89 18.3557 158.09 18.1261L155.723 15.3347L153.494 18.0061L155.621 20.9201L155.617 20.9201Z" fill="#6BB9E0"/>
<path d="M155.616 0.785648L181.128 31.9633L178.771 31.8824L155.718 3.77532L132.666 31.8824L130.309 31.9633L155.616 0.785648Z" fill="#6BB9E0"/>
<path d="M155.615 6.63103L176.45 31.9624L174.089 31.8815L155.611 9.48765L137.512 31.7537C137.001 32.1554 135.755 31.8945 134.984 31.9598L155.615 6.62842L155.615 6.63103Z" fill="#6BB9E0"/>
<path d="M629.993 0.00537322L632.334 0.00537356L631.947 0.621048L645.943 18.1182L634.862 31.7543C634.351 32.1561 633.104 31.8952 632.334 31.9604L643.59 18.126L630.896 2.50981L630.423 2.34285C630.308 2.89852 629.321 3.32897 629.661 3.9029L641.249 18.126L630.1 31.8352L626.623 31.9422L615.333 18.1286L629.989 0.00537322L629.993 0.00537322ZM618.725 19.4904C620.248 18.5669 620.18 17.7582 618.827 16.7642C618.699 16.7642 617.725 17.8782 617.703 18.0164C617.652 18.3686 618.712 19.0626 618.72 19.4878L618.725 19.4878L618.725 19.4904ZM621.061 22.3496L624.657 18.1286L621.163 13.9102C621.01 13.9102 620.014 15.0711 620.04 15.2511C620.12 15.8225 622.316 17.5703 622.316 18.1312L620.095 20.9148L621.061 22.3522L621.061 22.3496ZM623.823 11.0484C623.376 10.8449 622.457 12.1154 622.44 12.358L627.014 18.1182L622.44 23.7688L623.512 25.2089C623.955 25.2689 623.802 25.0915 623.933 24.9506C625.963 22.7827 627.614 20.3696 629.372 18.126L623.827 11.0458L623.823 11.0458L623.823 11.0484ZM625.742 8.0587C625.593 8.65089 624.572 9.11265 624.985 9.74919L631.827 18.126L624.98 26.5054L624.98 27.0272L626.057 28.0655L634.168 18.126L625.742 8.0587ZM628.083 5.20208C627.968 5.75775 626.98 6.1882 627.321 6.76214L636.538 18.0191L627.321 29.3647C627.095 29.8682 627.874 30.6978 628.504 31.0552L638.909 18.1286L628.555 5.36904L628.083 5.20208Z" fill="#6BB9E0"/>
<path d="M535.372 0.00537322L537.925 0.00537359L537.376 0.915838L551.458 18.1286L540.283 31.8822L537.713 31.8978L548.981 18.006L536.325 2.47328C536.083 2.25415 535.993 2.39763 535.827 2.55416C535.495 2.8646 534.895 3.55594 535.036 3.9003L546.628 18.126L535.564 31.7543C535.04 32.1691 532.891 31.9004 532.006 31.9422L520.75 18.1078L535.376 0.00537322L535.372 0.00537322ZM524.103 16.7642C524.112 17.1634 523.116 17.8234 523.116 18.1286C523.116 18.3921 524.057 19.1591 524.206 19.493C525.555 18.4965 525.631 17.693 524.103 16.7668L524.103 16.7642ZM526.444 13.905L525.478 15.3424L527.699 18.126L525.478 20.9096L526.444 22.347L530.053 18.1156C530.078 17.886 527.338 14.4685 526.916 14.072C526.784 13.9467 526.938 13.8398 526.444 13.905ZM528.78 11.0484L527.963 12.5093L532.406 18.1286L527.963 23.748L528.091 24.2619L529.095 25.2089L534.866 18.1286L529.253 11.2153L528.78 11.0484ZM531.542 8.0587C530.985 8.34305 530.189 9.23787 530.304 9.65006L537.206 18.1286L530.359 26.508C530.01 26.7246 531.091 28.0472 531.227 28.0681C531.657 28.1359 531.521 27.9429 531.648 27.8098C534.542 24.7289 536.764 21.2331 539.577 18.1078L531.542 8.06131L531.542 8.0587ZM533.878 5.20208C533.317 5.48905 532.529 6.35516 532.695 6.75952L541.947 18.1286L532.695 29.4977C532.529 29.9021 533.321 30.7682 533.878 31.0552L544.283 18.1286L533.878 5.20208Z" fill="#6BB9E0"/>
<path d="M413.735 0.00586135L416.075 0.00586169L430.731 18.1291L419.582 31.8357L416.382 31.974L416.05 31.8853L404.849 18.1082L416.407 3.906C416.748 3.33207 415.76 2.90162 415.646 2.34594L415.173 2.51291L402.479 18.1291L413.735 31.9635C412.96 31.8957 411.718 32.1592 411.207 31.7574L400.143 18.1291L414.16 0.731104L413.735 0.00586135ZM417.982 5.20257L407.22 18.1291L417.982 31.0557L418.948 29.6182L409.56 18.1317L418.948 6.64523L417.982 5.20778L417.982 5.20257ZM420.322 8.05919L411.896 18.1265L420.007 28.066C420.607 28.066 420.952 27.1529 421.297 26.8973L414.369 18.0065L421.284 9.49663L420.318 8.05919L420.322 8.05919ZM422.663 10.9184L416.714 18.0091L422.561 25.2068L423.642 23.7797L419.067 18.1291L423.642 12.4785L422.663 10.9184ZM421.425 18.2282C422.595 19.2535 423.484 21.3275 424.689 22.2197C425.076 22.5067 425.816 21.4527 425.906 21.2727C426.012 21.0614 426.076 21.0379 425.978 20.7927C425.667 20.0388 424.169 18.9222 423.774 18.1082C423.706 17.6387 425.94 15.7916 426.016 15.249C426.042 15.069 425.046 13.9081 424.893 13.9081L421.42 18.2256L421.425 18.2256L421.425 18.2282ZM427.131 19.4909C428.655 18.5674 428.587 17.7587 427.233 16.7647C427.106 16.7647 426.131 17.8787 426.11 18.0169C426.059 18.3691 427.118 19.0631 427.127 19.4883L427.131 19.4883L427.131 19.4909Z" fill="#6BB9E0"/>
<path d="M485.824 0.00521933C484.782 0.795682 485.556 1.35396 486.356 2.08181L488.165 0.00521974L490.505 0.00522016L487.629 3.63144C487.731 3.93667 488.382 4.94105 488.91 4.94105L492.846 0.00260923L495.186 0.00260965L490.122 6.33675C489.876 6.93938 490.799 7.362 490.935 7.92811L497.523 0.00261006L500.076 0.00261051L492.514 9.22467L492.514 9.74643L493.591 10.7847L502.417 3.56488e-06L504.757 3.97774e-06L494.854 12.0813L494.854 12.6031L495.931 13.6414L507.098 4.3906e-06L509.438 4.80346e-06L497.191 15.071C497.025 15.4753 497.816 16.3415 498.374 16.6284L511.775 5.21558e-06L514.115 5.62844e-06L499.459 18.1233L510.702 31.8977C510.013 31.9707 508.634 32.1168 508.174 31.7542L482.207 0.00521869L485.824 0.00521933Z" fill="#6BB9E0"/>
<path d="M345.046 0.00488315L358.553 16.5055L359.63 15.4672L359.63 14.9454L347.386 0.00749085L349.727 0.00749119L360.894 13.6488C361.336 13.7088 361.183 13.5314 361.315 13.3906C361.519 13.174 362.23 12.3914 362.174 12.2088L352.28 0.00749156L354.621 0.0074919L363.549 10.7896L364.515 9.35217L356.961 0.00749224L359.302 0.00749258L365.89 7.93299L366.868 6.63643L366.868 6.37555L361.643 0.0101003L363.983 0.0101006L368.128 5.07898L369.251 3.60501L366.324 0.010101L368.664 0.0101013L370.473 2.0867C371.23 1.39798 371.996 0.816217 371.217 0.0101017L374.622 0.0101022L348.352 31.973L346.114 31.8999L357.383 18.0081L342.714 0.00488281L345.054 0.00488315L345.046 0.00488315Z" fill="#6BB9E0"/>
<path d="M439.674 0.00554138L453.181 16.5061L454.258 15.4678L454.258 14.9461L442.015 0.00814909L444.355 0.00814945L455.522 13.6495C455.964 13.7095 455.811 13.5321 455.943 13.3912C456.147 13.1747 456.858 12.3921 456.803 12.2094L446.909 0.00814984L449.249 0.0081502L458.177 10.7903L459.143 9.35283L451.59 0.00815056L453.93 0.00815091L460.518 7.93365L461.484 6.49621L456.267 0.0107586L458.607 0.010759L462.752 5.07964L463.875 3.60567L460.948 0.0107593L463.288 0.0107597L465.097 2.08736C465.897 1.36211 466.671 0.803832 465.629 0.0107601L469.242 0.0107606L443.266 31.7545C442.802 32.1197 441.423 31.971 440.738 31.898L452.007 18.0062L437.338 0.00292969L439.678 0.00293005L439.674 0.00293004L439.674 0.00554138Z" fill="#6BB9E0"/>
<path d="M580.45 0.00602986C579.407 0.796493 580.182 1.35477 580.982 2.08262L582.79 0.00603021L585.131 0.00603057C584.778 0.843452 582.297 2.91743 582.203 3.60094C582.173 3.80703 583.084 4.94447 583.535 4.94447L587.472 0.00603093L589.812 0.00603129L584.595 6.49148L585.561 7.92892L592.148 0.00342031L594.489 0.00342067L587.144 9.09504L587.144 9.74985L588.216 10.7882L597.042 0.00342106L599.383 0.00342141L589.48 12.0847L589.48 12.6065L590.557 13.6448L601.723 0.00342177L604.064 0.00342213L591.821 14.9413C591.54 15.5101 592.378 15.9979 592.689 16.504L606.404 0.00342249L608.745 0.00342284L594.089 18.1267L605.332 31.8985C604.643 31.9715 603.264 32.1176 602.804 31.755L576.837 0.0060293L580.45 0.00602986Z" fill="#6BB9E0"/>
<path d="M391.19 0.00537489L393.531 0.00537523L378.875 18.1286L390.126 31.963C389.352 31.8952 388.109 32.1587 387.598 31.7569L377.794 19.6235C377.164 19.9783 376.385 20.8105 376.611 21.314L385.232 31.963L382.93 31.9422L375.138 22.6079C374.827 23.1114 373.989 23.6019 374.27 24.168L380.555 31.963L378.253 31.9422L372.798 25.4671L371.725 26.9072L375.879 31.963C375.189 31.9056 373.938 32.1117 373.432 31.8352C373.13 31.6708 370.7 28.1646 370.355 28.3264C370.363 28.7255 369.368 29.3855 369.368 29.6908C369.368 29.996 371.368 31.8874 371.198 31.963L368.997 31.9448L368.01 31.1856C367.887 31.243 367.78 32.0309 367.27 31.9735L365.031 31.9004L391.186 0.00537489L391.19 0.00537489Z" fill="#6BB9E0"/>
<path d="M560.245 0.00537143L586.4 31.8978L584.204 31.9422L583.217 31.183C583.093 31.2404 582.987 32.0282 582.476 31.9709L580.45 31.9604C580.216 31.8326 582.136 30.0403 582.136 29.6882C582.136 29.5134 581.14 28.3264 580.982 28.3264L578.008 31.8326L575.561 31.9604L579.727 26.8968L578.646 25.4698L573.331 31.8352L570.884 31.963L577.386 24.0401L576.408 22.4801L568.505 31.9422L566.203 31.963L575.033 21.0609L574.067 19.6235L563.828 31.9422L561.526 31.963L572.718 18.1286L557.913 0.00537109L560.254 0.00537143L560.245 0.00537143Z" fill="#6BB9E0"/>
<path d="M381.62 0.00586314L384.174 0.00586351L358.206 31.7548C357.828 32.0653 356.572 32.0105 355.993 31.9635C355.7 31.94 355.623 32.034 355.683 31.7731L381.62 0.00586314Z" fill="#6BB9E0"/>
<path d="M516.438 0.00537322L518.991 0.00537359L504.186 18.1286L515.37 31.7726C515.553 32.1535 513.706 31.8822 513.344 31.9735L513.012 31.8848L501.812 18.0217L516.438 0.00798057L516.438 0.00537322Z" fill="#6BB9E0"/>
<path d="M400.545 0.00537322L403.099 0.00537359L388.294 18.1286L399.477 31.7726C399.66 32.1535 397.813 31.8822 397.451 31.9735L397.12 31.8848L385.919 18.0217L400.545 0.00798057L400.545 0.00537322Z" fill="#6BB9E0"/>
<path d="M526.012 0.00603155L528.352 0.0060319L513.696 18.1293L524.948 31.8985C524.258 31.9715 522.88 32.1176 522.42 31.755L511.343 18.0067L526.012 0.00342021L526.012 0.00603155Z" fill="#6BB9E0"/>
<path d="M410.114 0.00603155L412.455 0.0060319L397.799 18.1293L409.05 31.8985C408.361 31.9715 406.982 32.1176 406.522 31.755L395.445 18.0067L410.114 0.00342021L410.114 0.00603155Z" fill="#6BB9E0"/>
<path d="M326.12 0.00537143L340.925 18.1286L329.754 31.8821L327.184 31.8978L338.452 18.0086L323.779 0.00537109L326.12 0.00537143Z" fill="#6BB9E0"/>
<path d="M333.352 0.00488281L335.692 0.00488315L350.348 18.1281L339.284 31.7538C338.905 32.0643 337.65 32.0095 337.071 31.9625C336.777 31.9391 336.701 32.033 336.76 31.7721L347.978 18.0186L333.352 0.00488281Z" fill="#6BB9E0"/>
<path d="M521.334 0.00586153L523.674 0.00586186L509.001 18.0117L509.167 18.5465L520.053 31.7731C520.236 32.154 518.389 31.8826 518.027 31.974L517.695 31.8853L506.524 18.1291L521.329 0.00586152L521.334 0.00586153Z" fill="#6BB9E0"/>
<path d="M635.953 0.00537143L650.758 18.1286L639.587 31.8821C639.421 32.0152 637.924 31.9917 637.541 31.963C637.247 31.9395 637.17 32.0335 637.23 31.7726L648.116 18.546L648.281 18.0112L633.608 0.00537109L635.953 0.00537143Z" fill="#6BB9E0"/>
<path d="M405.44 0.00586153L407.781 0.00586186L393.108 18.0117L393.274 18.5465L404.159 31.7731C404.342 32.154 402.495 31.8826 402.134 31.974L401.802 31.8853L390.631 18.1291L405.436 0.00586152L405.44 0.00586153Z" fill="#6BB9E0"/>
<path d="M620.637 0.00603155L622.977 0.0060319L608.308 18.0093L619.573 31.8985C618.883 31.9715 617.505 32.1176 617.045 31.755L605.968 18.0067L620.637 0.00342021L620.637 0.00603155Z" fill="#6BB9E0"/>
<path d="M395.868 0.00603154L398.209 0.0060319L383.552 18.1293L394.804 31.8985C394.115 31.9715 392.736 32.1176 392.276 31.755L381.212 18.1267L395.868 0.00342021L395.868 0.00603154Z" fill="#6BB9E0"/>
<path d="M548.551 0.0060293L550.891 0.00602966L565.547 18.1293L554.483 31.755C554.019 32.1202 552.64 31.9715 551.955 31.8985L563.207 18.1267L548.551 0.00341797L548.551 0.0060293Z" fill="#6BB9E0"/>
<path d="M386.512 0.00554502L388.853 0.00554538L362.885 31.7545C362.421 32.1197 361.043 31.971 360.357 31.898L386.512 0.00293368L386.512 0.00554502Z" fill="#6BB9E0"/>
<path d="M615.966 0.00488496L618.306 0.0048853L603.501 18.1281L614.685 31.7721C614.868 32.153 613.021 31.8817 612.659 31.973L612.327 31.8843L601.156 18.1281L615.961 0.00488496L615.966 0.00488496Z" fill="#6BB9E0"/>
<path d="M543.877 0.00488281L546.218 0.00488315L560.844 18.0186L549.639 31.8817C549.473 32.0147 547.975 31.9912 547.592 31.9625C547.299 31.9391 547.222 32.033 547.282 31.7721L558.499 18.0186L543.873 0.00488281L543.877 0.00488281Z" fill="#6BB9E0"/>
<path d="M541.322 0.00488315L556.127 18.1281L544.96 31.8817C544.794 32.0147 543.296 31.9912 542.913 31.9625C542.62 31.9391 542.543 32.033 542.603 31.7721L553.79 18.1281L538.985 0.00488281L541.326 0.00488315L541.322 0.00488315Z" fill="#6BB9E0"/>
<path d="M562.8 0.00537109L565.14 0.00537143L591.078 31.7726C591.261 32.1535 589.414 31.8822 589.052 31.9735L562.8 0.00537109Z" fill="#6BB9E0"/>
<path d="M420.751 0.00602966L435.42 18.0093L424.343 31.755C423.879 32.1202 422.5 31.9715 421.815 31.8985L433.084 18.0067L418.415 0.00341797L420.756 0.00341833L420.751 0.00341833L420.751 0.00602966Z" fill="#6BB9E0"/>
<path d="M611.071 0.00537322L613.411 0.00537356L598.785 18.0191L610.003 31.7726C610.185 32.1535 608.339 31.8822 607.977 31.9735L607.645 31.8848L596.444 18.0217L611.071 0.00798057L611.071 0.00537322Z" fill="#6BB9E0"/>
<path d="M425.424 0.00488315L440.229 18.1281L429.063 31.8817C428.897 32.0147 427.399 31.9912 427.016 31.9625C426.722 31.9391 426.646 32.033 426.705 31.7721L437.893 18.1281L423.088 0.00488281L425.428 0.00488315L425.424 0.00488315Z" fill="#6BB9E0"/>
<path d="M567.479 0.00488281L569.819 0.00488315L595.757 31.7721C595.94 32.153 594.093 31.8817 593.731 31.973L567.479 0.00488281Z" fill="#6BB9E0"/>
<path d="M376.945 0.00586314L379.285 0.00586348L353.029 31.9739C352.671 31.8826 350.82 32.154 351.003 31.7731L376.94 0.00586314L376.945 0.00586314Z" fill="#6BB9E0"/>
<path d="M427.98 0.00488281L430.32 0.00488315L444.947 18.0186L433.742 31.8817C433.576 32.0147 432.078 31.9912 431.695 31.9625C431.401 31.9391 431.325 32.033 431.384 31.7721L442.602 18.0186L427.976 0.00488281L427.98 0.00488281Z" fill="#6BB9E0"/>
<path d="M432.657 0.00554102L434.998 0.00554138L449.654 18.1288L438.589 31.7545C438.126 32.1197 436.747 31.971 436.062 31.898L447.313 18.1262L432.657 0.00292969L432.657 0.00554102Z" fill="#6BB9E0"/>
<path d="M530.687 0.00554326L533.028 0.00554362L518.372 18.1288L529.623 31.898C528.934 31.971 527.555 32.1171 527.096 31.7545L516.031 18.1262L530.687 0.00293193L530.687 0.00554326Z" fill="#6BB9E0"/>
<path d="M574.494 0.00585971L600.648 31.8983C599.959 31.9713 598.58 32.1174 598.121 31.7548L572.153 0.00585938L574.494 0.00585971Z" fill="#6BB9E0"/>
<path d="M471.574 0.00488658L473.914 0.00488692L447.657 31.973C447.3 31.8817 445.449 32.153 445.632 31.7721L471.569 0.00488658L471.574 0.00488658Z" fill="#6BB9E0"/>
<path d="M479.862 0.00488315L506.017 31.8973C505.327 31.9704 503.948 32.1165 503.489 31.7538L477.521 0.00488281L479.862 0.00488315Z" fill="#6BB9E0"/>
<path d="M625.318 0.00554326L627.659 0.00554362L613.003 18.1288L624.254 31.898C623.565 31.971 622.186 32.1171 621.727 31.7545L610.662 18.1262L625.318 0.00293193L625.318 0.00554326Z" fill="#6BB9E0"/>
<path d="M555.572 0.00602966L570.24 18.0093L559.163 31.755C558.699 32.1202 557.321 31.9715 556.636 31.8985L567.904 18.0067L553.235 0.00341797L555.576 0.00341833L555.572 0.00341833L555.572 0.00602966Z" fill="#6BB9E0"/>
<path d="M330.797 0.00585971L345.602 18.1291L334.436 31.8826C334.27 32.0157 332.772 31.9922 332.389 31.9635C332.095 31.94 332.019 32.034 332.078 31.7731L343.266 18.1291L328.461 0.00585938L330.801 0.00585971L330.797 0.00585971Z" fill="#6BB9E0"/>
<path d="M338.026 0.0060293L340.367 0.00602966L355.023 18.1293L343.959 31.755C343.495 32.1202 342.116 31.9715 341.431 31.8985L352.682 18.1267L338.026 0.00341797L338.026 0.0060293Z" fill="#6BB9E0"/>
<path d="M475.617 12.3477L491.775 31.9631L489.575 31.9449L488.588 31.1857L488.124 31.9423L485.822 31.9631C485.588 31.8353 487.507 30.0431 487.507 29.6909C487.507 29.5004 486.456 28.2326 486.247 28.3265L483.447 31.9423L480.928 31.9631L485.094 26.8995L484.013 25.4725L478.698 31.8379L476.251 31.9657L482.754 24.0429L481.673 22.4828L475.719 29.6283L469.664 22.4828L468.698 23.7715L475.187 31.9631L472.885 31.9423L467.638 25.4673C467.089 25.4673 466.472 26.5082 466.306 26.8108L470.51 31.9631L468.064 31.8353L465.089 28.3291C464.936 28.3291 463.94 29.49 463.965 29.67C464.008 29.9779 466 31.8875 465.834 31.9631L463.634 31.9449L462.748 31.1883L461.863 31.9449L459.663 31.9631L475.613 12.3477L475.617 12.3477ZM472 19.621C471.864 20.1871 470.94 20.6097 471.187 21.2123L475.719 26.6334L480.405 20.9097L479.23 19.6836L475.617 23.9072L472 19.621ZM475.617 20.9201C475.889 21.0454 477.89 18.3557 478.09 18.1261L475.723 15.3347L473.494 18.0061L475.621 20.9201L475.617 20.9201Z" fill="#6BB9E0"/>
<path d="M475.616 0.78516L501.128 31.9628L498.771 31.8819L475.718 3.77483L452.666 31.8819L450.309 31.9628L475.616 0.78516Z" fill="#6BB9E0"/>
<path d="M475.615 6.63103L496.45 31.9624L494.089 31.8815L475.611 9.48765L457.512 31.7537C457.001 32.1554 455.755 31.8945 454.984 31.9598L475.615 6.62842L475.615 6.63103Z" fill="#6BB9E0"/>
</svg>
