<svg width="178" height="31" viewBox="0 0 178 31" fill="none" xmlns="http://www.w3.org/2000/svg">
<g clip-path="url(#clip0_4175_33274)">
<path d="M158.424 0.44873L158.058 1.13323L169.933 17.4432L160.558 30.2245C160.122 30.6022 159.072 30.3543 158.412 30.4251L167.917 17.3606L157.185 2.82088L156.784 2.66746C156.69 3.18673 155.853 3.58799 156.136 4.13087L165.936 17.4432L156.442 30.3543L156.159 30.4369L153.447 30.3071L144.001 17.455L156.431 0.44873H158.412H158.424ZM154.815 5.32285L154.001 6.66824L161.961 17.4314L154.001 28.1946L154.815 29.54L163.931 17.4196L154.815 5.29924V5.32285ZM152.834 8.00184L152.02 9.34723L157.881 17.3252L152.008 25.4094L152.928 26.743L159.862 17.3134L152.834 7.99004V8.00184ZM151.018 10.6808L149.98 12.0616L153.895 17.4432L150.015 22.7422L150.935 24.0758L155.876 17.4432L151.018 10.6808ZM151.902 17.5376L148.954 13.4896C148.824 13.4896 147.975 14.5754 147.999 14.7524C148.069 15.2599 149.956 16.9948 149.897 17.4314C149.567 18.1985 148.294 19.2371 148.034 19.9452C147.952 20.1694 148.011 20.193 148.093 20.3937C148.164 20.5589 148.801 21.5502 149.119 21.2788C150.145 20.4409 150.888 18.4936 151.89 17.5376H151.902ZM147.067 16.1686C145.77 17.042 145.841 17.7855 146.985 18.7296C147.114 18.411 147.904 17.7029 147.904 17.455C147.904 17.1718 147.055 16.5463 147.067 16.1804V16.1686Z" fill="#E8C58C"/>
<path d="M77.8557 1.13323L89.731 17.4432L80.3558 30.2245C79.9195 30.6022 78.8699 30.3543 78.2095 30.4133L87.7499 17.4432L76.9949 2.80908L76.5939 2.65565C76.4996 3.17493 75.6623 3.57619 75.9453 4.11907L85.7451 17.4314L76.2519 30.3425L75.9689 30.4251L73.2565 30.2953L63.8105 17.4432L76.2283 0.44873H78.2095L77.8439 1.13323H77.8557ZM74.6127 5.32285L73.799 6.66824L81.7591 17.4314L73.799 28.1946L74.6127 29.54L83.7285 17.4196L74.6127 5.29924V5.32285ZM72.6315 8.00184L71.8178 9.34723L77.6788 17.3252L71.806 25.6572C72.1009 25.8933 72.3957 26.7548 72.9028 26.7548L79.778 17.4314L72.6315 7.99004V8.00184ZM69.8131 12.1442L73.6929 17.4432L69.8131 22.7422L70.7329 24.0758L75.6859 17.3252L70.6386 10.6808L69.8131 12.1442ZM71.6999 17.5376L68.7517 13.4896C68.622 13.4896 67.7729 14.5754 67.7965 14.7524C67.8673 15.2599 69.7541 16.9948 69.6951 17.4314C69.3649 18.1985 68.0913 19.2371 67.8319 19.9452C67.7493 20.1694 67.8083 20.193 67.8908 20.3937C67.9616 20.5589 68.5984 21.5502 68.9168 21.2788C69.9428 20.4409 70.6857 18.4936 71.6881 17.5376H71.6999ZM66.8649 18.7178C66.8649 18.3165 67.7729 17.6675 67.7257 17.337C67.7022 17.2072 66.8767 16.1686 66.7705 16.1686C65.6266 17.101 65.5677 17.8563 66.8531 18.7296L66.8649 18.7178Z" fill="#E8C58C"/>
<path d="M136.431 0.44873L124.98 15.9208L124.072 14.9531V14.4692L134.45 0.44873H132.468L122.999 13.2418C122.621 13.3008 122.751 13.1356 122.645 12.994C122.468 12.7933 121.867 12.0616 121.914 11.8846L130.299 0.44873H128.317L120.746 10.551L119.933 9.20561L126.336 0.44873H124.355L118.777 7.88382L117.952 6.66824V6.42041L122.362 0.44873H120.381L116.867 5.20483L115.911 3.82403L118.4 0.44873H116.418L114.885 2.39602C114.249 1.74692 113.6 1.20404 114.249 0.44873H111.359L133.624 30.4133L135.523 30.3425L125.971 17.3134L138.412 0.44873H136.431Z" fill="#E8C58C"/>
<path d="M56.2276 0.44873L44.7768 15.9208L43.8688 14.9531V14.4692L54.2464 0.44873H52.2652L42.7956 13.2418C42.4183 13.3008 42.548 13.1356 42.4419 12.994C42.265 12.7933 41.6635 12.0616 41.7107 11.8846L50.0954 0.44873H48.1142L40.5432 10.551L39.7295 9.20561L46.133 0.44873H44.1518L38.5738 7.88382L37.7601 6.53842L42.1706 0.44873H40.1894L36.6752 5.20483L35.72 3.82403L38.1965 0.44873H36.2153L34.6822 2.39602C34.01 1.71152 33.3496 1.19224 34.2341 0.44873H31.168L53.1851 30.2127C53.5742 30.5549 54.7417 30.4133 55.3313 30.3425L45.7792 17.3134L58.2088 0.44873H56.2276Z" fill="#E8C58C"/>
<path d="M97.3142 0.44873H95.333L107.751 17.4432L98.2104 30.4133C98.8708 30.3543 99.9204 30.6022 100.357 30.2245L108.671 18.8476C109.201 19.1781 109.862 19.957 109.673 20.4291L102.362 30.4133L104.307 30.3897L110.911 21.6446C111.171 22.1167 111.89 22.577 111.642 23.1081L106.312 30.4133L108.258 30.3897L112.881 24.3236L113.789 25.669L110.274 30.4133C110.864 30.3543 111.914 30.5549 112.35 30.2953C112.609 30.1419 114.661 26.8492 114.956 27.0026C114.956 27.3803 115.793 27.994 115.793 28.2772C115.793 28.5605 114.095 30.3307 114.237 30.4015H116.1L116.937 29.6698C117.043 29.7288 117.138 30.4605 117.562 30.4133L119.461 30.3425L97.326 0.44873H97.3142Z" fill="#E8C58C"/>
<path d="M105.428 0.44873H103.258L125.263 30.2127C125.582 30.5077 126.643 30.4487 127.138 30.4133C127.386 30.3897 127.457 30.4841 127.398 30.2363L105.428 0.44873Z" fill="#E8C58C"/>
<path d="M89.3896 0.44873H87.2197L99.7672 17.4432L90.2858 30.2363C90.1325 30.5904 91.701 30.3425 92.0076 30.4251L92.2906 30.3425L101.784 17.3488L89.3896 0.44873Z" fill="#E8C58C"/>
<path d="M161.478 0.44873H159.497L171.915 17.4432L162.375 30.3543C162.964 30.4251 164.132 30.5549 164.521 30.2245L173.908 17.337L161.478 0.44873Z" fill="#E8C58C"/>
<path d="M81.2761 0.44873H79.2949L91.7127 17.4432L82.1724 30.3543C82.762 30.4251 83.9295 30.5549 84.3186 30.2245L93.7057 17.337L81.2761 0.44873Z" fill="#E8C58C"/>
<path d="M165.441 0.44873H163.46L175.901 17.3252L166.349 30.3543L168.531 30.3307L178 17.4432L165.441 0.44873Z" fill="#E8C58C"/>
<path d="M152.468 0.44873L139.921 17.4432L149.39 30.3307L151.572 30.3543L142.02 17.3252L154.45 0.44873H152.468Z" fill="#E8C58C"/>
<path d="M146.336 0.44873H144.355L131.938 17.4432L141.313 30.2127C141.631 30.5077 142.693 30.4487 143.188 30.4133C143.435 30.3897 143.506 30.4841 143.447 30.2363L133.942 17.337L146.336 0.44873Z" fill="#E8C58C"/>
<path d="M85.238 0.44873H83.2568L95.6982 17.3252L95.5567 17.8209L86.3347 30.2245C86.1814 30.5785 87.7499 30.3307 88.0565 30.4133L88.3395 30.3307L97.8091 17.4314L85.2498 0.44873H85.238Z" fill="#E8C58C"/>
<path d="M93.3513 0.44873H91.3701L103.788 17.4432L94.2475 30.3543C94.8372 30.4251 96.0047 30.5549 96.3938 30.2245L105.769 17.4432L93.3513 0.44873Z" fill="#E8C58C"/>
<path d="M101.288 0.44873H99.3066L121.312 30.2127C121.701 30.5549 122.869 30.4133 123.458 30.3425L101.288 0.44873Z" fill="#E8C58C"/>
<path d="M72.2665 0.44873L59.8369 17.3252L69.224 30.2127C69.6131 30.5549 70.7806 30.4133 71.3702 30.3425L61.8181 17.3134L74.2477 0.44873H72.2665Z" fill="#E8C58C"/>
<path d="M68.3034 0.44873L55.7559 17.4432L65.2255 30.3425C65.367 30.4723 66.6406 30.4487 66.959 30.4133C67.2066 30.3897 67.2774 30.4841 67.2184 30.2363L57.737 17.4432L70.2845 0.44873H68.3034Z" fill="#E8C58C"/>
<path d="M109.389 0.44873H107.408L129.661 30.4133C129.968 30.3307 131.536 30.5785 131.383 30.2245L109.401 0.44873H109.389Z" fill="#E8C58C"/>
<path d="M66.1342 0.44873H64.153L51.7588 17.337L61.252 30.3307C61.3935 30.4605 62.6671 30.4369 62.9855 30.4015C63.2331 30.3779 63.3039 30.4723 63.2449 30.2245L53.74 17.3252L66.146 0.44873H66.1342Z" fill="#E8C58C"/>
<path d="M62.1714 0.44873H60.1902L47.7725 17.4432L57.1477 30.2127C57.5369 30.5549 58.7044 30.4133 59.294 30.3425L49.7536 17.4314L62.1714 0.44873Z" fill="#E8C58C"/>
<path d="M29.1872 0.44873H27.2061L49.459 30.4133C49.7656 30.3307 51.3341 30.5785 51.1807 30.2245L29.199 0.44873H29.1872Z" fill="#E8C58C"/>
<path d="M22.1704 0.44873L0 30.3543C0.589638 30.4251 1.75712 30.5549 2.14628 30.2245L24.1516 0.44873H22.1704Z" fill="#E8C58C"/>
<path d="M148.506 0.44873L135.959 17.4432L145.429 30.3425C145.57 30.4723 146.844 30.4487 147.162 30.4133C147.41 30.3897 147.481 30.4841 147.422 30.2363L137.94 17.4432L150.488 0.44873H148.506Z" fill="#E8C58C"/>
<path d="M142.374 0.44873H140.392L127.975 17.4432L137.35 30.2127C137.739 30.5549 138.907 30.4133 139.496 30.3425L129.956 17.4314L142.374 0.44873Z" fill="#E8C58C"/>
<path d="M25.7668 12.0262L39.2813 30.4133H37.4181L36.6633 29.6816L35.9086 30.3897H34.0453C33.9038 30.3307 35.5902 28.5486 35.6256 28.2536C35.6492 28.0884 34.8001 26.9908 34.6704 26.9908L32.1467 30.2835L30.0712 30.4015L33.6326 25.5746C33.4911 25.2914 32.9722 24.3118 32.5005 24.3118L28.0546 30.3779L26.1088 30.4015L31.6042 22.7186L30.7905 21.5148L25.6607 28.2182L20.6134 21.5148L19.6935 22.9782L25.2008 30.4015L23.1252 30.2835L18.6204 24.3118L17.7006 25.6454L21.2266 30.3897L19.0921 30.3661L16.7218 26.979C16.5449 26.8964 15.6486 28.0766 15.6486 28.2536C15.6486 28.584 17.276 30.2599 17.0755 30.3779L15.1297 30.3543L14.7406 29.6462L13.9033 30.3543H12.04L25.7314 11.979L25.7668 12.0262ZM25.7668 22.8602L22.7007 18.8948L21.7101 20.0396L25.6843 25.4094L29.5287 20.3228C29.741 19.7563 28.9509 19.3669 28.8447 18.8358L25.7786 22.8484L25.7668 22.8602ZM25.7668 20.0632L27.5711 17.337L25.6843 14.835L23.6795 17.455C23.8446 17.6674 25.5428 20.193 25.7786 20.075L25.7668 20.0632Z" fill="#E8C58C"/>
<path d="M25.7676 1.18042L4.13965 30.4133L6.14442 30.3307L25.685 3.98923L45.2138 30.3307L47.2186 30.4133L25.7676 1.18042Z" fill="#E8C58C"/>
<path d="M25.7671 6.6683L8.11328 30.4134L10.1181 30.3426L25.7671 9.33549L41.1094 30.2127C41.5458 30.5904 42.5953 30.3426 43.2557 30.4016L25.7671 6.65649V6.6683Z" fill="#E8C58C"/>
</g>
<defs>
<clipPath id="clip0_4175_33274">
<rect width="178" height="30" fill="white" transform="translate(0 0.44873)"/>
</clipPath>
</defs>
</svg>
