<svg width="1920" height="75" viewBox="0 0 1920 75" fill="none" xmlns="http://www.w3.org/2000/svg">
<path d="M274.541 61.1615V56.5615L175.537 74.9415H201.84L274.541 61.1615Z" fill="#E6D6DF" fill-opacity="0.4"/>
<path d="M159.719 74.3112C158.513 74.0512 156.991 74.3512 157.499 73.4812L274.542 51.5412V46.9412L146.372 71.0012H141.897L132.99 68.8812L274.569 42.3412V37.7612L119.961 65.0112L0.0273438 37.7612V42.3412L154.01 74.9512H162.79C161.476 74.6912 160.326 74.4512 159.719 74.3212V74.3112Z" fill="#E6D6DF" fill-opacity="0.4"/>
<path d="M274.542 70.3512V65.7612L224.908 74.9412H250.432L274.542 70.3512Z" fill="#E6D6DF" fill-opacity="0.4"/>
<path d="M0 56.561C0.018121 58.981 0 59.021 0 61.161L65.1812 74.951H87.5606L0 56.561Z" fill="#E6D6DF" fill-opacity="0.4"/>
<path d="M274.569 5.15127V0.55127L120.097 29.3913L0.0273438 0.55127V5.15127L119.064 34.2413L274.569 5.15127Z" fill="#E6D6DF" fill-opacity="0.4"/>
<path d="M119.064 52.7613L274.569 23.9613V19.3613L120.006 48.1013L0.0273438 19.3613C0.0273438 21.0513 0.0273438 21.9913 0.0273438 23.9613L119.064 52.7613Z" fill="#E6D6DF" fill-opacity="0.4"/>
<path d="M0.0273438 65.7612C0.0273438 67.6312 0.0273438 67.6812 0.0273438 70.3612L21.7 74.9412H43.4543L0.0273438 65.7612Z" fill="#E6D6DF" fill-opacity="0.4"/>
<path d="M0.0273438 46.9414C0.0273438 47.7414 0.0273438 50.3014 0.0273438 51.5214L110.683 74.9414H132.401L0.0273438 46.9414Z" fill="#E6D6DF" fill-opacity="0.4"/>
<path d="M0.0273438 9.75146V14.3515L119.064 43.4315L274.569 14.3415V9.75146L119.064 38.8415L0.0273438 9.75146Z" fill="#E6D6DF" fill-opacity="0.4"/>
<path d="M0.0449613 28.5513C0.0177798 30.7013 0.0268403 31.2713 0.0268403 33.1513L119.064 61.9513L274.569 33.1513V28.5513L119.091 57.3513L0.0449613 28.5513Z" fill="#E6D6DF" fill-opacity="0.4"/>
<path d="M549.129 61.1615V56.5615L450.125 74.9415H476.428L549.129 61.1615Z" fill="#E6D6DF" fill-opacity="0.4"/>
<path d="M434.306 74.3112C433.101 74.0512 431.579 74.3512 432.087 73.4812L549.13 51.5412V46.9412L420.96 71.0012H416.484L407.578 68.8812L549.157 42.3412V37.7612L394.549 65.0112L274.615 37.7612V42.3412L428.598 74.9512H437.378C436.064 74.6912 434.913 74.4512 434.306 74.3212V74.3112Z" fill="#E6D6DF" fill-opacity="0.4"/>
<path d="M549.129 70.3512V65.7612L499.496 74.9412H525.02L549.129 70.3512Z" fill="#E6D6DF" fill-opacity="0.4"/>
<path d="M274.588 56.561C274.606 58.981 274.588 59.021 274.588 61.161L339.769 74.951H362.148L274.588 56.561Z" fill="#E6D6DF" fill-opacity="0.4"/>
<path d="M549.157 5.15127V0.55127L394.685 29.3913L274.615 0.55127V5.15127L393.652 34.2413L549.157 5.15127Z" fill="#E6D6DF" fill-opacity="0.4"/>
<path d="M393.652 52.7613L549.157 23.9613V19.3613L394.594 48.1013L274.615 19.3613C274.615 21.0513 274.615 21.9913 274.615 23.9613L393.652 52.7613Z" fill="#E6D6DF" fill-opacity="0.4"/>
<path d="M274.615 65.7612C274.615 67.6312 274.615 67.6812 274.615 70.3612L296.288 74.9412H318.042L274.615 65.7612Z" fill="#E6D6DF" fill-opacity="0.4"/>
<path d="M274.615 46.9414C274.615 47.7414 274.615 50.3014 274.615 51.5214L385.271 74.9414H406.989L274.615 46.9414Z" fill="#E6D6DF" fill-opacity="0.4"/>
<path d="M274.615 9.75146V14.3515L393.652 43.4315L549.157 14.3415V9.75146L393.652 38.8415L274.615 9.75146Z" fill="#E6D6DF" fill-opacity="0.4"/>
<path d="M274.633 28.5513C274.606 30.7013 274.615 31.2713 274.615 33.1513L393.651 61.9513L549.157 33.1513V28.5513L393.679 57.3513L274.633 28.5513Z" fill="#E6D6DF" fill-opacity="0.4"/>
<path d="M823.715 61.1615V56.5615L724.711 74.9415H751.014L823.715 61.1615Z" fill="#E6D6DF" fill-opacity="0.4"/>
<path d="M708.892 74.3112C707.687 74.0512 706.165 74.3512 706.673 73.4812L823.716 51.5412V46.9412L695.546 71.0012H691.07L682.164 68.8812L823.743 42.3412V37.7612L669.135 65.0112L549.201 37.7612V42.3412L703.184 74.9512H711.964C710.65 74.6912 709.499 74.4512 708.892 74.3212V74.3112Z" fill="#E6D6DF" fill-opacity="0.4"/>
<path d="M823.715 70.3512V65.7612L774.082 74.9412H799.605L823.715 70.3512Z" fill="#E6D6DF" fill-opacity="0.4"/>
<path d="M549.174 56.561C549.192 58.981 549.174 59.021 549.174 61.161L614.355 74.951H636.734L549.174 56.561Z" fill="#E6D6DF" fill-opacity="0.4"/>
<path d="M823.743 5.15127V0.55127L669.271 29.3913L549.201 0.55127V5.15127L668.238 34.2413L823.743 5.15127Z" fill="#E6D6DF" fill-opacity="0.4"/>
<path d="M668.238 52.7613L823.743 23.9613V19.3613L669.18 48.1013L549.201 19.3613C549.201 21.0513 549.201 21.9913 549.201 23.9613L668.238 52.7613Z" fill="#E6D6DF" fill-opacity="0.4"/>
<path d="M549.201 65.7612C549.201 67.6312 549.201 67.6812 549.201 70.3612L570.874 74.9412H592.628L549.201 65.7612Z" fill="#E6D6DF" fill-opacity="0.4"/>
<path d="M549.201 46.9414C549.201 47.7414 549.201 50.3014 549.201 51.5214L659.857 74.9414H681.575L549.201 46.9414Z" fill="#E6D6DF" fill-opacity="0.4"/>
<path d="M549.201 9.75146V14.3515L668.238 43.4315L823.743 14.3415V9.75146L668.238 38.8415L549.201 9.75146Z" fill="#E6D6DF" fill-opacity="0.4"/>
<path d="M549.219 28.5513C549.192 30.7013 549.201 31.2713 549.201 33.1513L668.237 61.9513L823.743 33.1513V28.5513L668.265 57.3513L549.219 28.5513Z" fill="#E6D6DF" fill-opacity="0.4"/>
<path d="M1098.3 61.1615V56.5615L999.299 74.9415H1025.6L1098.3 61.1615Z" fill="#E6D6DF" fill-opacity="0.4"/>
<path d="M983.48 74.3112C982.275 74.0512 980.753 74.3512 981.26 73.4812L1098.3 51.5412V46.9412L970.134 71.0012H965.658L956.752 68.8812L1098.33 42.3412V37.7612L943.723 65.0112L823.789 37.7612V42.3412L977.772 74.9512H986.552C985.238 74.6912 984.087 74.4512 983.48 74.3212V74.3112Z" fill="#E6D6DF" fill-opacity="0.4"/>
<path d="M1098.3 70.3512V65.7612L1048.67 74.9412H1074.19L1098.3 70.3512Z" fill="#E6D6DF" fill-opacity="0.4"/>
<path d="M823.762 56.561C823.78 58.981 823.762 59.021 823.762 61.161L888.943 74.951H911.322L823.762 56.561Z" fill="#E6D6DF" fill-opacity="0.4"/>
<path d="M1098.33 5.15127V0.55127L943.859 29.3913L823.789 0.55127V5.15127L942.826 34.2413L1098.33 5.15127Z" fill="#E6D6DF" fill-opacity="0.4"/>
<path d="M942.826 52.7613L1098.33 23.9613V19.3613L943.768 48.1013L823.789 19.3613C823.789 21.0513 823.789 21.9913 823.789 23.9613L942.826 52.7613Z" fill="#E6D6DF" fill-opacity="0.4"/>
<path d="M823.789 65.7612C823.789 67.6312 823.789 67.6812 823.789 70.3612L845.462 74.9412H867.216L823.789 65.7612Z" fill="#E6D6DF" fill-opacity="0.4"/>
<path d="M823.789 46.9414C823.789 47.7414 823.789 50.3014 823.789 51.5214L934.445 74.9414H956.163L823.789 46.9414Z" fill="#E6D6DF" fill-opacity="0.4"/>
<path d="M823.789 9.75146V14.3515L942.826 43.4315L1098.33 14.3415V9.75146L942.826 38.8415L823.789 9.75146Z" fill="#E6D6DF" fill-opacity="0.4"/>
<path d="M823.807 28.5513C823.779 30.7013 823.789 31.2713 823.789 33.1513L942.825 61.9513L1098.33 33.1513V28.5513L942.852 57.3513L823.807 28.5513Z" fill="#E6D6DF" fill-opacity="0.4"/>
<path d="M1372.89 61.1615V56.5615L1273.89 74.9415H1300.19L1372.89 61.1615Z" fill="#E6D6DF" fill-opacity="0.4"/>
<path d="M1258.07 74.3112C1256.86 74.0512 1255.34 74.3512 1255.85 73.4812L1372.89 51.5412V46.9412L1244.72 71.0012H1240.25L1231.34 68.8812L1372.92 42.3412V37.7612L1218.31 65.0112L1098.38 37.7612V42.3412L1252.36 74.9512H1261.14C1259.83 74.6912 1258.68 74.4512 1258.07 74.3212V74.3112Z" fill="#E6D6DF" fill-opacity="0.4"/>
<path d="M1372.89 70.3512V65.7612L1323.26 74.9412H1348.78L1372.89 70.3512Z" fill="#E6D6DF" fill-opacity="0.4"/>
<path d="M1098.35 56.561C1098.37 58.981 1098.35 59.021 1098.35 61.161L1163.53 74.951H1185.91L1098.35 56.561Z" fill="#E6D6DF" fill-opacity="0.4"/>
<path d="M1372.92 5.15127V0.55127L1218.45 29.3913L1098.38 0.55127V5.15127L1217.41 34.2413L1372.92 5.15127Z" fill="#E6D6DF" fill-opacity="0.4"/>
<path d="M1217.41 52.7613L1372.92 23.9613V19.3613L1218.36 48.1013L1098.38 19.3613C1098.38 21.0513 1098.38 21.9913 1098.38 23.9613L1217.41 52.7613Z" fill="#E6D6DF" fill-opacity="0.4"/>
<path d="M1098.38 65.7612C1098.38 67.6312 1098.38 67.6812 1098.38 70.3612L1120.05 74.9412H1141.8L1098.38 65.7612Z" fill="#E6D6DF" fill-opacity="0.4"/>
<path d="M1098.38 46.9414C1098.38 47.7414 1098.38 50.3014 1098.38 51.5214L1209.03 74.9414H1230.75L1098.38 46.9414Z" fill="#E6D6DF" fill-opacity="0.4"/>
<path d="M1098.38 9.75146V14.3515L1217.41 43.4315L1372.92 14.3415V9.75146L1217.41 38.8415L1098.38 9.75146Z" fill="#E6D6DF" fill-opacity="0.4"/>
<path d="M1098.39 28.5513C1098.37 30.7013 1098.38 31.2713 1098.38 33.1513L1217.41 61.9513L1372.92 33.1513V28.5513L1217.44 57.3513L1098.39 28.5513Z" fill="#E6D6DF" fill-opacity="0.4"/>
<path d="M1647.48 61.1615V56.5615L1548.47 74.9415H1574.78L1647.48 61.1615Z" fill="#E6D6DF" fill-opacity="0.4"/>
<path d="M1532.65 74.3112C1531.45 74.0512 1529.93 74.3512 1530.43 73.4812L1647.48 51.5412V46.9412L1519.31 71.0012H1514.83L1505.93 68.8812L1647.5 42.3412V37.7612L1492.9 65.0112L1372.96 37.7612V42.3412L1526.95 74.9512H1535.73C1534.41 74.6912 1533.26 74.4512 1532.65 74.3212V74.3112Z" fill="#E6D6DF" fill-opacity="0.4"/>
<path d="M1647.48 70.3512V65.7612L1597.84 74.9412H1623.37L1647.48 70.3512Z" fill="#E6D6DF" fill-opacity="0.4"/>
<path d="M1372.94 56.561C1372.95 58.981 1372.94 59.021 1372.94 61.161L1438.12 74.951H1460.5L1372.94 56.561Z" fill="#E6D6DF" fill-opacity="0.4"/>
<path d="M1647.5 5.15127V0.55127L1493.03 29.3913L1372.96 0.55127V5.15127L1492 34.2413L1647.5 5.15127Z" fill="#E6D6DF" fill-opacity="0.4"/>
<path d="M1492 52.7613L1647.5 23.9613V19.3613L1492.94 48.1013L1372.96 19.3613C1372.96 21.0513 1372.96 21.9913 1372.96 23.9613L1492 52.7613Z" fill="#E6D6DF" fill-opacity="0.4"/>
<path d="M1372.96 65.7612C1372.96 67.6312 1372.96 67.6812 1372.96 70.3612L1394.64 74.9412H1416.39L1372.96 65.7612Z" fill="#E6D6DF" fill-opacity="0.4"/>
<path d="M1372.96 46.9414C1372.96 47.7414 1372.96 50.3014 1372.96 51.5214L1483.62 74.9414H1505.34L1372.96 46.9414Z" fill="#E6D6DF" fill-opacity="0.4"/>
<path d="M1372.96 9.75146V14.3515L1492 43.4315L1647.5 14.3415V9.75146L1492 38.8415L1372.96 9.75146Z" fill="#E6D6DF" fill-opacity="0.4"/>
<path d="M1372.98 28.5513C1372.95 30.7013 1372.96 31.2713 1372.96 33.1513L1492 61.9513L1647.5 33.1513V28.5513L1492.03 57.3513L1372.98 28.5513Z" fill="#E6D6DF" fill-opacity="0.4"/>
<path d="M1922.06 61.1615V56.5615L1823.06 74.9415H1849.36L1922.06 61.1615Z" fill="#E6D6DF" fill-opacity="0.4"/>
<path d="M1807.24 74.3112C1806.04 74.0512 1804.51 74.3512 1805.02 73.4812L1922.07 51.5412V46.9412L1793.9 71.0012H1789.42L1780.51 68.8812L1922.09 42.3412V37.7612L1767.48 65.0112L1647.55 37.7612V42.3412L1801.53 74.9512H1810.31C1809 74.6912 1807.85 74.4512 1807.24 74.3212V74.3112Z" fill="#E6D6DF" fill-opacity="0.4"/>
<path d="M1922.07 70.3512V65.7612L1872.43 74.9412H1897.96L1922.07 70.3512Z" fill="#E6D6DF" fill-opacity="0.4"/>
<path d="M1647.52 56.561C1647.54 58.981 1647.52 59.021 1647.52 61.161L1712.7 74.951H1735.08L1647.52 56.561Z" fill="#E6D6DF" fill-opacity="0.4"/>
<path d="M1922.09 5.15127V0.55127L1767.62 29.3913L1647.55 0.55127V5.15127L1766.59 34.2413L1922.09 5.15127Z" fill="#E6D6DF" fill-opacity="0.4"/>
<path d="M1766.59 52.7613L1922.09 23.9613V19.3613L1767.53 48.1013L1647.55 19.3613C1647.55 21.0513 1647.55 21.9913 1647.55 23.9613L1766.59 52.7613Z" fill="#E6D6DF" fill-opacity="0.4"/>
<path d="M1647.55 65.7612C1647.55 67.6312 1647.55 67.6812 1647.55 70.3612L1669.22 74.9412H1690.98L1647.55 65.7612Z" fill="#E6D6DF" fill-opacity="0.4"/>
<path d="M1647.55 46.9414C1647.55 47.7414 1647.55 50.3014 1647.55 51.5214L1758.21 74.9414H1779.92L1647.55 46.9414Z" fill="#E6D6DF" fill-opacity="0.4"/>
<path d="M1647.55 9.75146V14.3515L1766.59 43.4315L1922.09 14.3415V9.75146L1766.59 38.8415L1647.55 9.75146Z" fill="#E6D6DF" fill-opacity="0.4"/>
<path d="M1647.57 28.5513C1647.54 30.7013 1647.55 31.2713 1647.55 33.1513L1766.59 61.9513L1922.09 33.1513V28.5513L1766.61 57.3513L1647.57 28.5513Z" fill="#E6D6DF" fill-opacity="0.4"/>
</svg>
