<svg width="1920" height="63" viewBox="0 0 1920 63" fill="none" xmlns="http://www.w3.org/2000/svg">
<path d="M274.542 18.7011C267.629 20.2311 262.636 18.7311 256.72 17.2411L274.542 13.6911V9.09109L243.7 14.8411L231.051 12.6311L274.542 4.48109V-0.118904L219.925 10.1511H217.687L206.561 8.23109L250.459 -0.128906H224.935L194.393 5.5311L182.061 3.6311L201.867 -0.128906H175.565L169.884 0.931091C168.833 1.00109 165.481 0.401094 162.817 -0.128906H154.037L274.551 25.3911V18.7011H274.542Z" fill="#D1B8C7" fill-opacity="0.533333"/>
<path d="M0 4.48086C7.4296 6.55086 22.8777 8.65086 23.367 8.94086L0 9.08086L0.018121 13.6509C0.670476 14.0409 30.6154 9.91086 30.6154 9.91086C30.6154 9.91086 37.6101 11.3409 41.9229 11.8709C38.643 13.1009 1.43156 18.2409 0.0271815 18.9309C0.0271815 20.1209 0.0724839 23.5809 0.0724839 25.3809L47.178 14.6909L62.8255 17.8309L0.0453025 29.9509V34.5609L71.5235 19.8009C78.6904 20.4509 80.3303 21.2709 84.6522 21.9909L0.0453025 39.1509V44.1709L93.4771 24.3009C95.7875 24.5709 104.205 26.3509 109.904 27.1509L0.0634234 48.7609L0.0453025 53.3609L120.206 29.5909C126.675 31.1609 129.474 31.5809 133.135 32.1709L0.018121 57.9409C0.018121 58.7809 0.036242 60.2009 0.0453025 62.4709L138.834 35.9509L274.614 62.5509V57.1309L0 -0.119141V4.48086Z" fill="#D1B8C7" fill-opacity="0.533333"/>
<path d="M274.588 39.1511L87.5793 -0.128906H65.209L274.588 44.1711V39.1511Z" fill="#D1B8C7" fill-opacity="0.533333"/>
<path d="M274.588 48.7611H274.606L43.473 -0.128906H21.7188L274.588 53.3611V48.7611Z" fill="#D1B8C7" fill-opacity="0.533333"/>
<path d="M274.587 29.9511L132.419 -0.128906H110.701L274.587 34.5611V29.9511Z" fill="#D1B8C7" fill-opacity="0.533333"/>
<path d="M549.157 18.7011C542.244 20.2311 537.251 18.7311 531.335 17.2411L549.157 13.6911V9.09109L518.315 14.8411L505.667 12.6311L549.157 4.48109V-0.118904L494.54 10.1511H492.302L481.176 8.23109L525.074 -0.128906H499.551L469.008 5.5311L456.676 3.6311L476.483 -0.128906H450.18L444.499 0.931091C443.448 1.00109 440.096 0.401094 437.432 -0.128906H428.652L549.166 25.3911V18.7011H549.157Z" fill="#D1B8C7" fill-opacity="0.533333"/>
<path d="M274.615 4.48086C282.045 6.55086 297.493 8.65086 297.982 8.94086L274.615 9.08086L274.633 13.6509C275.286 14.0409 305.231 9.91086 305.231 9.91086C305.231 9.91086 312.225 11.3409 316.538 11.8709C313.258 13.1009 276.047 18.2409 274.642 18.9309C274.642 20.1209 274.688 23.5809 274.688 25.3809L321.793 14.6909L337.441 17.8309L274.661 29.9509V34.5609L346.139 19.8009C353.306 20.4509 354.946 21.2709 359.267 21.9909L274.661 39.1509V44.1709L368.092 24.3009C370.403 24.5709 378.82 26.3509 384.519 27.1509L274.679 48.7609L274.661 53.3609L394.821 29.5909C401.29 31.1609 404.09 31.5809 407.75 32.1709L274.633 57.9409C274.633 58.7809 274.651 60.2009 274.661 62.4709L413.449 35.9509L549.23 62.5509V57.1309L274.615 -0.119141V4.48086Z" fill="#D1B8C7" fill-opacity="0.533333"/>
<path d="M549.203 39.1511L362.195 -0.128906H339.824L549.203 44.1711V39.1511Z" fill="#D1B8C7" fill-opacity="0.533333"/>
<path d="M549.203 48.7611H549.221L318.088 -0.128906H296.334L549.203 53.3611V48.7611Z" fill="#D1B8C7" fill-opacity="0.533333"/>
<path d="M549.203 29.9511L407.034 -0.128906H385.316L549.203 34.5611V29.9511Z" fill="#D1B8C7" fill-opacity="0.533333"/>
<path d="M823.77 18.7011C816.857 20.2311 811.865 18.7311 805.948 17.2411L823.77 13.6911V9.09109L792.928 14.8411L780.28 12.6311L823.77 4.48109V-0.118904L769.154 10.1511H766.916L755.789 8.23109L799.687 -0.128906H774.164L743.621 5.5311L731.29 3.6311L751.096 -0.128906H724.793L719.112 0.931091C718.061 1.00109 714.709 0.401094 712.045 -0.128906H703.266L823.779 25.3911V18.7011H823.77Z" fill="#D1B8C7" fill-opacity="0.533333"/>
<path d="M549.229 4.48086C556.658 6.55086 572.106 8.65086 572.596 8.94086L549.229 9.08086L549.247 13.6509C549.899 14.0409 579.844 9.91086 579.844 9.91086C579.844 9.91086 586.839 11.3409 591.151 11.8709C587.872 13.1009 550.66 18.2409 549.256 18.9309C549.256 20.1209 549.301 23.5809 549.301 25.3809L596.407 14.6909L612.054 17.8309L549.274 29.9509V34.5609L620.752 19.8009C627.919 20.4509 629.559 21.2709 633.881 21.9909L549.274 39.1509V44.1709L642.706 24.3009C645.016 24.5709 653.433 26.3509 659.132 27.1509L549.292 48.7609L549.274 53.3609L669.434 29.5909C675.903 31.1609 678.703 31.5809 682.363 32.1709L549.247 57.9409C549.247 58.7809 549.265 60.2009 549.274 62.4709L688.062 35.9509L823.843 62.5509V57.1309L549.229 -0.119141V4.48086Z" fill="#D1B8C7" fill-opacity="0.533333"/>
<path d="M823.816 39.1511L636.808 -0.128906H614.438L823.816 44.1711V39.1511Z" fill="#D1B8C7" fill-opacity="0.533333"/>
<path d="M823.817 48.7611H823.835L592.702 -0.128906H570.947L823.817 53.3611V48.7611Z" fill="#D1B8C7" fill-opacity="0.533333"/>
<path d="M823.816 29.9511L681.648 -0.128906H659.93L823.816 34.5611V29.9511Z" fill="#D1B8C7" fill-opacity="0.533333"/>
<path d="M1098.39 18.7011C1091.47 20.2311 1086.48 18.7311 1080.56 17.2411L1098.39 13.6911V9.09109L1067.54 14.8411L1054.9 12.6311L1098.39 4.48109V-0.118904L1043.77 10.1511H1041.53L1030.4 8.23109L1074.3 -0.128906H1048.78L1018.24 5.5311L1005.9 3.6311L1025.71 -0.128906H999.409L993.728 0.931091C992.677 1.00109 989.324 0.401094 986.66 -0.128906H977.881L1098.39 25.3911V18.7011H1098.39Z" fill="#D1B8C7" fill-opacity="0.533333"/>
<path d="M823.844 4.48086C831.273 6.55086 846.721 8.65086 847.211 8.94086L823.844 9.08086L823.862 13.6509C824.514 14.0409 854.459 9.91086 854.459 9.91086C854.459 9.91086 861.454 11.3409 865.767 11.8709C862.487 13.1009 825.275 18.2409 823.871 18.9309C823.871 20.1209 823.916 23.5809 823.916 25.3809L871.022 14.6909L886.669 17.8309L823.889 29.9509V34.5609L895.367 19.8009C902.534 20.4509 904.174 21.2709 908.496 21.9909L823.889 39.1509V44.1709L917.321 24.3009C919.631 24.5709 928.048 26.3509 933.748 27.1509L823.907 48.7609L823.889 53.3609L944.049 29.5909C950.518 31.1609 953.318 31.5809 956.979 32.1709L823.862 57.9409C823.862 58.7809 823.88 60.2009 823.889 62.4709L962.678 35.9509L1098.46 62.5509V57.1309L823.844 -0.119141V4.48086Z" fill="#D1B8C7" fill-opacity="0.533333"/>
<path d="M1098.43 39.1511L911.423 -0.128906H889.053L1098.43 44.1711V39.1511Z" fill="#D1B8C7" fill-opacity="0.533333"/>
<path d="M1098.43 48.7611H1098.45L867.317 -0.128906H845.562L1098.43 53.3611V48.7611Z" fill="#D1B8C7" fill-opacity="0.533333"/>
<path d="M1098.43 29.9511L956.263 -0.128906H934.545L1098.43 34.5611V29.9511Z" fill="#D1B8C7" fill-opacity="0.533333"/>
<path d="M1373 18.7011C1366.09 20.2311 1361.09 18.7311 1355.18 17.2411L1373 13.6911V9.09109L1342.16 14.8411L1329.51 12.6311L1373 4.48109V-0.118904L1318.38 10.1511H1316.14L1305.02 8.23109L1348.92 -0.128906H1323.39L1292.85 5.5311L1280.52 3.6311L1300.32 -0.128906H1274.02L1268.34 0.931091C1267.29 1.00109 1263.94 0.401094 1261.27 -0.128906H1252.49L1373.01 25.3911V18.7011H1373Z" fill="#D1B8C7" fill-opacity="0.533333"/>
<path d="M1098.46 4.48086C1105.89 6.55086 1121.33 8.65086 1121.82 8.94086L1098.46 9.08086L1098.48 13.6509C1099.13 14.0409 1129.07 9.91086 1129.07 9.91086C1129.07 9.91086 1136.07 11.3409 1140.38 11.8709C1137.1 13.1009 1099.89 18.2409 1098.48 18.9309C1098.48 20.1209 1098.53 23.5809 1098.53 25.3809L1145.64 14.6909L1161.28 17.8309L1098.5 29.9509V34.5609L1169.98 19.8009C1177.15 20.4509 1178.79 21.2709 1183.11 21.9909L1098.5 39.1509V44.1709L1191.93 24.3009C1194.24 24.5709 1202.66 26.3509 1208.36 27.1509L1098.52 48.7609L1098.5 53.3609L1218.66 29.5909C1225.13 31.1609 1227.93 31.5809 1231.59 32.1709L1098.48 57.9409C1098.48 58.7809 1098.49 60.2009 1098.5 62.4709L1237.29 35.9509L1373.07 62.5509V57.1309L1098.46 -0.119141V4.48086Z" fill="#D1B8C7" fill-opacity="0.533333"/>
<path d="M1373.04 39.1511L1186.04 -0.128906H1163.67L1373.04 44.1711V39.1511Z" fill="#D1B8C7" fill-opacity="0.533333"/>
<path d="M1373.05 48.7611H1373.06L1141.93 -0.128906H1120.18L1373.05 53.3611V48.7611Z" fill="#D1B8C7" fill-opacity="0.533333"/>
<path d="M1373.04 29.9511L1230.88 -0.128906H1209.16L1373.04 34.5611V29.9511Z" fill="#D1B8C7" fill-opacity="0.533333"/>
<path d="M1647.61 18.7011C1640.7 20.2311 1635.71 18.7311 1629.79 17.2411L1647.61 13.6911V9.09109L1616.77 14.8411L1604.12 12.6311L1647.61 4.48109V-0.118904L1593 10.1511H1590.76L1579.63 8.23109L1623.53 -0.128906H1598.01L1567.46 5.5311L1555.13 3.6311L1574.94 -0.128906H1548.64L1542.96 0.931091C1541.91 1.00109 1538.55 0.401094 1535.89 -0.128906H1527.11L1647.62 25.3911V18.7011H1647.61Z" fill="#D1B8C7" fill-opacity="0.533333"/>
<path d="M1373.07 4.48086C1380.5 6.55086 1395.95 8.65086 1396.44 8.94086L1373.07 9.08086L1373.09 13.6509C1373.74 14.0409 1403.69 9.91086 1403.69 9.91086C1403.69 9.91086 1410.68 11.3409 1415 11.8709C1411.72 13.1009 1374.5 18.2409 1373.1 18.9309C1373.1 20.1209 1373.14 23.5809 1373.14 25.3809L1420.25 14.6909L1435.9 17.8309L1373.12 29.9509V34.5609L1444.6 19.8009C1451.76 20.4509 1453.4 21.2709 1457.72 21.9909L1373.12 39.1509V44.1709L1466.55 24.3009C1468.86 24.5709 1477.28 26.3509 1482.98 27.1509L1373.14 48.7609L1373.12 53.3609L1493.28 29.5909C1499.75 31.1609 1502.55 31.5809 1506.21 32.1709L1373.09 57.9409C1373.09 58.7809 1373.11 60.2009 1373.12 62.4709L1511.91 35.9509L1647.69 62.5509V57.1309L1373.07 -0.119141V4.48086Z" fill="#D1B8C7" fill-opacity="0.533333"/>
<path d="M1647.66 39.1511L1460.65 -0.128906H1438.28L1647.66 44.1711V39.1511Z" fill="#D1B8C7" fill-opacity="0.533333"/>
<path d="M1647.66 48.7611H1647.68L1416.55 -0.128906H1394.79L1647.66 53.3611V48.7611Z" fill="#D1B8C7" fill-opacity="0.533333"/>
<path d="M1647.66 29.9511L1505.49 -0.128906H1483.77L1647.66 34.5611V29.9511Z" fill="#D1B8C7" fill-opacity="0.533333"/>
<path d="M1922.23 18.7011C1915.32 20.2311 1910.32 18.7311 1904.41 17.2411L1922.23 13.6911V9.09109L1891.39 14.8411L1878.74 12.6311L1922.23 4.48109V-0.118904L1867.61 10.1511H1865.37L1854.25 8.23109L1898.15 -0.128906H1872.62L1842.08 5.5311L1829.75 3.6311L1849.55 -0.128906H1823.25L1817.57 0.931091C1816.52 1.00109 1813.17 0.401094 1810.5 -0.128906H1801.72L1922.24 25.3911V18.7011H1922.23Z" fill="#D1B8C7" fill-opacity="0.533333"/>
<path d="M1647.69 4.48086C1655.12 6.55086 1670.57 8.65086 1671.05 8.94086L1647.69 9.08086L1647.71 13.6509C1648.36 14.0409 1678.3 9.91086 1678.3 9.91086C1678.3 9.91086 1685.3 11.3409 1689.61 11.8709C1686.33 13.1009 1649.12 18.2409 1647.71 18.9309C1647.71 20.1209 1647.76 23.5809 1647.76 25.3809L1694.87 14.6909L1710.51 17.8309L1647.73 29.9509V34.5609L1719.21 19.8009C1726.38 20.4509 1728.02 21.2709 1732.34 21.9909L1647.73 39.1509V44.1709L1741.16 24.3009C1743.48 24.5709 1751.89 26.3509 1757.59 27.1509L1647.75 48.7609L1647.73 53.3609L1767.89 29.5909C1774.36 31.1609 1777.16 31.5809 1780.82 32.1709L1647.71 57.9409C1647.71 58.7809 1647.72 60.2009 1647.73 62.4709L1786.52 35.9509L1922.3 62.5509V57.1309L1647.69 -0.119141V4.48086Z" fill="#D1B8C7" fill-opacity="0.533333"/>
<path d="M1922.28 39.1511L1735.27 -0.128906H1712.9L1922.28 44.1711V39.1511Z" fill="#D1B8C7" fill-opacity="0.533333"/>
<path d="M1922.28 48.7611H1922.29L1691.16 -0.128906H1669.41L1922.28 53.3611V48.7611Z" fill="#D1B8C7" fill-opacity="0.533333"/>
<path d="M1922.27 29.9511L1780.11 -0.128906H1758.39L1922.27 34.5611V29.9511Z" fill="#D1B8C7" fill-opacity="0.533333"/>
</svg>
